{"glyphs":{"0":{"ha":426,"x_min":3,"x_max":422,"o":"m 160 103 q 119 108 140 103 q 81 129 99 114 q 59 156 67 140 q 44 189 51 172 q 35 222 40 206 q 26 256 29 239 q 12 319 21 288 q 10 382 3 350 q 13 404 13 393 q 15 426 13 415 q 23 465 18 438 q 33 521 28 492 q 44 576 39 550 q 53 614 49 603 q 74 669 61 642 q 95 703 82 686 q 117 736 108 719 q 124 747 119 742 q 133 757 129 753 q 152 765 142 768 q 171 760 163 763 q 192 759 186 757 q 204 772 197 761 q 221 787 211 783 q 242 790 231 790 q 278 791 260 792 q 313 789 296 790 q 327 786 319 788 q 339 779 335 785 q 361 762 350 771 q 379 739 372 753 q 388 726 382 732 q 396 714 393 719 q 418 613 414 671 q 413 491 422 554 q 383 365 404 428 q 329 248 361 301 q 254 156 297 194 q 160 103 211 117 m 322 688 q 288 719 311 711 q 276 717 282 722 q 265 702 269 711 q 256 683 260 693 q 249 668 251 674 q 212 563 225 618 q 190 450 199 507 q 177 337 182 393 q 167 228 172 281 q 166 222 165 225 q 165 215 167 218 q 170 188 163 203 q 189 175 178 172 q 209 181 200 178 q 226 192 218 185 q 286 301 261 235 q 325 438 311 367 q 339 576 339 510 q 322 688 339 643 z "},"1":{"ha":244,"x_min":49,"x_max":332,"o":"m 60 686 q 82 697 60 710 q 114 703 99 686 q 130 718 121 711 q 146 733 139 725 q 167 756 157 744 q 186 779 176 767 q 204 797 194 790 q 229 807 214 804 q 238 810 232 807 q 244 815 240 813 q 250 817 249 818 q 260 808 256 813 q 267 797 264 804 q 278 785 268 793 q 299 770 288 778 q 321 755 311 763 q 332 743 331 747 q 297 599 315 669 q 262 458 278 528 q 234 316 246 388 q 218 169 222 244 q 215 149 217 158 q 213 129 214 140 q 213 116 213 122 q 213 103 214 110 q 196 81 210 86 q 168 78 185 78 q 133 81 151 78 q 100 90 115 85 q 76 104 85 96 q 69 111 74 108 q 61 118 64 114 q 54 135 57 125 q 50 149 51 142 q 50 163 49 156 q 56 202 53 190 q 64 231 58 214 q 73 272 68 251 q 83 314 78 293 l 96 368 q 104 397 100 383 q 111 426 108 411 q 122 472 115 444 q 136 531 129 500 q 149 589 143 561 q 160 635 156 617 q 160 642 161 639 q 158 650 160 646 q 151 649 156 649 q 144 647 147 650 q 133 640 138 644 q 121 631 128 635 q 82 633 100 615 q 63 658 67 649 q 60 686 60 667 z "},"2":{"ha":369,"x_min":6,"x_max":357,"o":"m 301 267 q 325 226 315 247 q 338 181 335 204 q 334 150 340 164 q 317 125 328 136 q 286 119 306 114 q 247 144 261 126 q 222 183 232 161 q 213 203 218 194 q 203 222 208 213 q 176 225 190 235 q 149 197 161 215 q 126 160 136 179 q 113 135 117 140 q 102 116 107 125 q 93 97 97 107 q 68 81 86 81 l 53 81 q 38 93 42 81 q 29 110 35 101 q 21 126 24 118 q 8 193 6 157 q 11 245 11 219 q 14 297 11 271 q 21 335 17 317 q 32 369 25 353 q 51 410 40 390 q 72 450 61 431 q 112 508 90 481 q 157 564 133 536 q 208 625 183 594 q 258 686 232 656 q 262 692 261 689 q 265 699 263 696 q 271 723 272 710 q 262 747 269 736 q 243 763 254 757 q 219 765 232 768 q 131 714 163 750 q 75 633 99 678 q 70 624 72 629 q 65 614 68 618 q 60 610 64 611 q 56 610 57 608 q 47 622 47 615 q 59 686 44 658 q 99 738 74 714 q 168 785 131 768 q 250 806 206 803 q 294 799 274 808 q 329 772 314 789 q 338 761 333 767 q 346 750 342 756 q 355 716 357 733 q 353 681 353 699 q 349 654 353 667 q 339 628 344 642 q 321 590 332 607 q 299 553 310 572 q 269 513 285 532 q 239 474 253 494 q 174 376 203 425 q 128 269 146 328 q 164 273 140 264 q 213 290 188 282 q 263 295 239 297 q 301 267 288 293 z "},"3":{"ha":446,"x_min":22,"x_max":425,"o":"m 115 743 q 149 756 128 749 q 181 767 169 764 q 299 792 243 782 q 331 794 314 794 q 363 793 347 794 q 394 784 379 790 q 417 758 410 778 q 420 723 425 739 q 403 692 415 707 q 388 670 397 685 q 367 640 378 656 q 347 610 357 624 q 332 590 338 596 q 333 578 325 582 q 359 567 346 571 q 383 557 372 563 q 403 542 394 551 q 414 517 411 533 q 413 488 415 506 q 409 450 411 469 q 404 412 407 431 q 400 381 401 393 q 397 356 399 368 q 393 332 396 344 q 388 292 390 313 q 381 253 385 272 q 361 210 374 229 q 310 140 338 167 q 249 89 283 114 q 231 79 240 83 q 211 72 221 75 q 201 69 206 69 q 190 65 196 68 q 185 64 188 65 q 181 64 183 63 q 144 69 163 67 q 110 76 126 71 q 44 122 71 89 q 26 165 31 143 q 22 236 22 200 q 24 253 22 244 q 36 265 26 263 q 75 257 58 272 q 83 247 79 253 q 89 233 86 240 q 92 226 92 231 q 96 218 93 222 q 113 213 100 207 q 171 265 142 229 q 224 341 200 300 q 267 424 249 382 q 292 496 285 465 q 274 514 299 519 q 223 501 249 507 q 171 490 197 496 q 137 487 157 489 q 111 501 117 485 q 109 504 110 503 q 107 507 108 506 q 107 538 99 526 q 131 557 115 550 q 163 569 146 564 q 192 582 181 575 q 231 611 211 592 q 267 655 250 631 q 299 703 285 679 q 324 744 314 726 q 314 763 333 763 q 270 757 293 763 q 225 744 247 751 q 182 731 203 738 q 143 721 161 725 q 118 726 124 717 q 115 743 113 735 z "},"4":{"ha":508,"x_min":15,"x_max":483,"o":"m 283 838 q 315 803 311 825 q 322 758 319 782 q 317 674 326 715 q 296 592 308 632 q 286 567 293 579 q 274 543 279 556 q 261 513 267 528 q 250 482 256 497 q 251 469 249 479 q 301 486 278 478 q 308 493 306 489 q 324 525 317 508 q 340 558 332 542 q 361 565 349 575 q 374 556 365 563 q 393 543 383 550 q 411 530 403 536 q 424 519 419 524 q 425 506 428 515 q 419 490 422 494 q 418 481 417 485 q 425 476 419 478 q 444 472 431 475 q 467 464 456 471 q 481 444 479 457 q 474 421 483 432 q 470 417 471 418 q 467 413 469 415 q 443 415 453 397 q 438 424 440 418 q 422 433 431 433 q 407 422 413 433 q 388 382 397 403 q 369 342 378 361 q 349 292 358 317 q 329 243 339 267 l 321 218 q 301 163 311 190 q 281 107 292 135 q 253 81 274 85 q 217 94 232 78 q 207 101 214 96 q 192 111 200 106 q 175 121 183 117 q 164 126 167 125 q 153 150 144 133 q 172 189 163 169 q 192 229 182 208 q 216 286 204 257 q 240 344 228 315 q 250 367 244 356 q 260 389 256 378 q 265 399 263 392 q 254 408 267 413 l 179 375 q 129 354 154 364 q 78 340 104 344 q 74 340 75 340 q 69 340 72 339 q 44 350 56 343 q 25 369 32 357 q 19 404 15 388 q 32 436 22 421 q 65 479 47 458 q 99 521 82 500 q 142 578 122 549 q 181 639 163 607 q 205 678 192 658 q 229 717 218 697 q 257 769 244 743 q 275 824 269 794 q 278 831 276 828 q 283 838 281 835 z "},"5":{"ha":426,"x_min":-19,"x_max":483,"o":"m 179 393 q 150 381 164 386 q 119 372 136 375 q 76 373 96 368 q 36 386 56 378 q -5 424 4 399 q -17 479 -14 449 q -13 526 -19 503 q 1 574 -7 550 q 16 617 8 596 q 33 660 24 639 q 45 686 39 674 q 58 713 51 699 q 68 732 64 722 q 76 753 72 742 q 83 760 79 760 q 92 758 88 761 q 117 749 104 754 q 142 736 131 744 q 174 728 154 729 q 214 727 193 726 q 254 731 235 728 q 286 735 274 733 q 303 739 294 736 q 318 744 311 742 q 342 749 331 749 q 365 739 354 750 q 395 721 371 733 q 441 693 419 708 q 473 663 463 678 q 461 639 483 649 q 434 628 447 632 q 406 625 421 624 q 367 623 386 625 q 329 622 349 621 q 288 628 308 625 q 246 636 267 632 q 197 649 222 643 q 149 663 172 656 q 135 654 136 667 q 133 619 133 636 q 129 583 132 601 l 113 488 q 106 437 104 450 q 119 424 108 424 q 147 434 129 425 q 186 450 164 443 q 300 461 244 465 q 324 459 313 460 q 347 451 336 458 q 385 397 379 432 q 383 278 393 339 q 342 167 372 217 q 264 87 313 117 q 150 61 215 57 q 131 67 140 63 q 113 74 122 71 q 76 90 93 81 q 49 119 60 100 q 40 139 43 129 q 35 160 36 149 q 33 195 32 178 q 33 231 33 213 q 32 239 33 236 q 64 268 28 275 q 100 238 89 263 q 117 214 106 222 q 140 196 129 206 q 149 195 146 192 q 154 203 153 199 q 176 247 161 214 q 200 313 190 279 q 208 372 210 347 q 179 393 206 397 z "},"6":{"ha":389,"x_min":-8,"x_max":376,"o":"m -3 375 q 15 511 -8 447 q 78 629 38 575 q 172 728 119 683 q 276 808 224 774 q 308 802 292 806 q 339 794 324 799 q 349 782 344 793 q 350 767 353 771 q 344 756 347 758 q 250 644 294 701 q 182 517 206 588 q 181 495 179 506 q 199 490 183 485 q 221 497 210 493 q 243 506 232 501 q 325 503 296 518 q 365 456 354 488 q 372 380 376 424 q 351 293 367 336 q 310 213 335 250 q 260 157 286 176 q 231 140 246 147 q 201 129 217 132 q 111 135 154 117 q 42 187 65 158 q 13 267 19 215 q 4 321 8 294 q -3 375 0 347 m 283 390 q 281 400 282 394 q 278 411 281 406 q 253 424 271 421 q 225 422 236 428 q 192 390 201 411 q 172 347 183 368 q 163 328 167 338 q 153 310 160 318 q 142 295 146 303 q 140 276 138 288 q 151 247 143 256 q 181 233 160 238 q 190 225 188 233 q 189 219 192 222 q 183 214 186 217 q 169 213 179 213 q 160 213 165 213 q 151 214 156 214 q 144 203 140 214 q 158 186 149 190 q 179 190 168 182 q 206 210 193 200 q 229 235 219 221 q 265 308 253 269 q 283 390 276 347 z "},"7":{"ha":501,"x_min":39,"x_max":533,"o":"m 299 636 q 290 637 293 636 q 283 638 286 638 q 258 635 274 638 q 224 631 242 633 q 189 628 206 629 q 163 626 172 626 q 131 635 147 626 q 101 656 115 643 q 76 683 86 668 q 64 714 65 699 q 62 722 63 718 q 60 729 61 725 q 62 745 57 740 q 78 747 67 750 q 95 742 86 744 q 111 733 104 739 q 172 728 142 718 q 255 753 214 740 q 338 778 296 765 q 361 790 349 783 q 385 800 374 796 q 410 803 397 804 q 433 794 422 803 q 447 785 440 789 q 461 779 454 782 q 483 769 472 774 q 504 760 493 765 q 526 737 519 751 q 533 706 532 722 q 522 688 533 696 q 506 679 514 683 q 488 672 497 675 q 467 667 478 669 q 446 663 457 665 q 419 647 433 660 q 397 625 404 635 q 355 540 374 589 q 320 436 336 490 q 288 326 304 382 q 253 218 272 269 q 210 123 233 167 q 154 51 186 79 q 138 47 146 49 q 121 47 129 46 q 83 53 110 49 q 44 61 56 57 q 42 65 43 61 q 40 71 40 68 q 40 84 40 78 q 42 96 39 90 q 72 162 54 119 q 110 256 89 204 q 154 364 131 307 q 203 473 178 421 q 252 568 228 525 q 299 636 276 611 z "},"8":{"ha":446,"x_min":17,"x_max":438,"o":"m 129 99 q 68 149 94 115 q 31 221 42 183 q 24 288 17 254 q 55 371 35 328 q 101 438 75 414 l 89 450 q 68 476 78 460 q 50 510 58 492 q 37 545 42 528 q 32 576 32 563 q 47 636 35 608 q 76 692 60 664 q 124 743 94 722 q 183 779 154 764 q 219 792 200 789 q 258 794 238 794 q 298 792 278 793 q 338 794 318 790 q 403 779 372 800 q 415 769 410 776 q 425 756 421 763 q 428 688 438 722 q 401 604 414 643 q 364 528 388 565 q 343 492 354 510 q 321 458 332 475 q 314 431 310 440 q 333 415 318 422 q 356 403 344 411 q 379 390 368 394 q 406 362 399 382 q 411 318 413 342 q 403 272 410 294 q 392 235 397 249 q 357 182 378 204 q 313 138 336 160 q 287 115 300 126 q 258 96 274 104 q 192 80 221 78 q 129 99 164 82 m 243 471 q 255 478 247 468 q 271 503 263 489 q 288 534 279 518 q 303 561 296 550 q 317 587 313 576 q 326 607 322 597 q 334 627 329 617 q 347 653 339 638 q 361 685 353 664 q 372 718 369 707 q 364 733 375 726 q 343 738 353 740 q 314 733 328 735 q 286 725 300 731 q 241 700 258 714 q 208 657 224 686 q 203 646 206 650 q 199 635 201 642 q 178 588 186 613 q 173 542 171 564 q 187 503 175 521 q 226 475 199 485 l 243 471 m 169 156 q 206 150 185 132 q 236 176 221 163 q 267 204 251 189 q 321 297 311 243 q 320 311 322 306 q 311 322 318 317 q 265 345 288 333 q 219 369 243 357 q 206 371 213 372 q 196 363 199 369 q 183 347 189 356 q 175 328 178 338 q 163 285 168 308 q 154 238 157 261 q 154 192 151 214 q 169 156 157 171 z "},"9":{"ha":483,"x_min":14,"x_max":475,"o":"m 90 103 q 97 99 92 100 q 111 103 103 99 q 131 117 119 107 q 157 147 142 128 q 196 197 178 165 q 228 265 214 229 q 251 338 242 301 q 266 402 261 374 q 272 446 271 431 q 267 456 272 461 q 211 415 239 422 q 168 406 183 408 q 119 412 140 403 q 82 439 99 421 q 71 460 74 446 q 67 486 68 474 q 63 552 61 517 q 78 614 64 588 q 103 660 90 638 q 135 703 117 683 q 167 741 150 722 q 200 779 183 760 q 315 843 251 833 q 336 846 326 844 q 357 850 346 847 q 373 852 364 851 q 389 853 382 853 q 412 849 400 851 q 435 843 424 846 q 457 835 450 840 q 468 815 464 831 q 472 759 475 788 q 468 703 468 731 q 456 551 468 633 q 424 399 444 469 q 376 256 403 324 q 310 139 350 189 q 211 59 269 89 q 68 29 153 29 q 36 41 47 31 q 20 67 25 51 q 15 99 15 82 q 14 131 14 117 q 15 144 14 138 q 19 156 15 150 q 27 163 22 160 q 38 168 32 165 q 50 169 42 169 q 74 165 69 169 q 81 140 79 160 q 82 131 82 135 q 85 122 82 126 q 90 103 86 115 m 143 481 q 165 469 146 457 q 174 479 171 472 q 228 548 204 511 q 267 625 251 585 q 294 692 282 658 q 318 758 306 725 q 322 778 322 764 q 308 783 322 792 q 262 754 282 772 q 224 714 242 736 q 204 687 214 700 q 183 660 194 674 q 157 611 165 632 q 145 571 149 590 q 142 531 142 551 q 143 481 143 510 z "},"\u0000":{"ha":0,"x_min":0,"x_max":0,"o":""},"\r":{"ha":313,"x_min":0,"x_max":0,"o":""}," ":{"ha":313,"x_min":0,"x_max":0,"o":""},"D":{"ha":493,"x_min":49,"x_max":472,"o":"m 50 563 q 49 621 49 592 q 49 679 49 650 q 50 717 49 699 q 50 756 51 736 q 56 808 50 785 q 74 822 60 822 q 105 819 89 821 q 132 803 121 817 q 156 796 140 793 q 206 801 181 799 q 257 804 232 803 q 309 801 283 804 q 358 785 335 797 q 374 777 365 781 q 390 769 383 774 q 417 749 407 763 q 436 719 428 735 q 455 667 451 694 q 461 613 458 640 q 463 456 472 536 q 428 301 453 376 q 367 158 404 225 q 289 39 331 90 q 277 24 282 26 q 257 25 272 22 q 240 29 246 25 q 206 40 224 43 q 168 35 188 38 q 164 34 165 35 q 160 33 163 33 q 131 34 143 28 q 108 51 118 40 q 86 97 93 71 q 59 338 64 226 q 50 563 54 450 m 153 756 q 154 738 154 746 q 156 724 154 731 q 193 488 169 601 q 244 261 217 374 q 250 290 247 275 q 256 319 253 304 q 257 326 257 322 q 258 332 257 329 q 278 516 271 425 q 272 694 286 607 q 263 723 269 710 q 249 749 256 736 q 235 757 244 754 q 153 756 199 764 z "},"E":{"ha":440,"x_min":24,"x_max":411,"o":"m 399 679 q 392 668 399 671 q 355 658 372 660 q 320 660 338 657 q 285 667 303 663 q 250 676 268 672 q 207 688 228 682 q 165 693 186 693 q 174 563 168 626 q 183 436 181 500 q 206 422 188 421 q 224 425 215 424 q 243 426 233 426 q 267 426 256 426 q 292 425 279 426 q 297 407 310 419 q 253 386 281 390 q 227 381 240 383 q 200 376 214 379 q 183 372 188 375 q 178 356 179 368 q 185 292 183 328 q 190 220 186 256 q 206 156 194 185 q 246 118 218 128 q 306 143 276 131 q 363 174 335 156 q 381 179 372 179 q 400 176 390 179 q 404 164 411 174 q 392 153 396 156 q 351 122 371 138 q 307 96 331 107 q 255 71 279 83 q 207 50 231 58 q 158 40 183 42 q 106 47 133 39 q 71 72 88 51 q 51 111 54 92 q 35 223 40 169 q 25 331 29 276 q 24 398 25 364 q 26 467 24 432 q 30 547 31 507 q 29 625 29 586 l 25 763 q 38 781 26 775 q 63 788 49 786 q 92 788 78 790 q 115 782 107 786 q 149 771 132 774 q 185 764 167 768 q 256 749 221 756 q 326 731 292 743 q 344 727 335 728 q 363 724 353 726 q 388 719 381 722 q 397 710 396 715 q 398 698 399 706 q 399 679 397 690 z "},"F":{"ha":369,"x_min":-4,"x_max":425,"o":"m 421 801 q 415 775 425 782 q 393 764 406 768 q 348 746 369 756 q 303 728 326 736 q 242 706 272 717 q 179 690 211 694 q 144 687 161 688 q 110 683 128 686 q 126 637 117 660 q 144 591 136 614 q 158 544 153 568 q 160 494 163 519 q 205 514 183 500 q 246 542 226 528 q 272 549 263 551 q 284 538 282 546 q 281 518 286 529 q 261 500 275 507 q 249 490 254 496 q 236 481 243 485 q 210 458 224 469 q 182 438 197 447 q 179 356 171 399 q 201 267 188 313 q 229 174 215 221 q 244 79 243 126 q 206 47 228 56 q 162 40 185 39 q 115 48 139 40 q 71 65 92 56 q 57 86 61 72 q 47 128 51 107 q 36 171 42 149 q 31 205 33 188 q 25 240 28 222 q 22 270 22 256 q 18 300 21 285 l 14 346 q 9 400 11 374 q 3 454 7 426 q -2 563 -4 508 q 6 672 0 618 q 19 742 10 724 q 47 769 28 761 q 96 781 65 776 q 175 810 126 786 q 219 827 197 818 q 263 846 240 836 q 276 846 269 849 q 323 835 300 840 q 369 824 346 831 q 388 817 379 821 q 406 811 397 814 q 415 806 411 808 q 421 801 418 803 z "},"G":{"ha":494,"x_min":28,"x_max":475,"o":"m 344 500 q 303 461 321 471 q 272 453 286 451 q 244 463 257 454 q 217 482 232 472 q 249 519 229 503 q 283 551 268 536 q 318 586 300 569 q 322 589 321 589 q 359 597 342 593 q 396 604 376 600 q 422 591 408 606 q 439 567 435 576 q 467 456 460 514 q 472 341 475 397 q 460 235 469 285 q 439 149 451 185 q 407 97 432 124 q 360 61 382 71 q 322 45 340 53 q 283 40 303 38 q 190 79 232 46 q 115 164 147 113 q 63 278 83 215 q 35 406 43 340 q 33 533 28 471 q 57 643 38 594 q 85 697 72 671 q 115 750 99 724 q 161 801 135 781 q 225 828 188 821 q 293 834 260 835 q 360 833 326 833 q 401 829 382 831 q 438 822 419 828 q 391 786 418 796 q 335 769 364 776 q 279 749 306 761 q 236 706 253 736 q 222 679 229 692 q 208 651 215 667 q 194 617 201 635 q 185 581 188 600 q 181 561 182 567 q 172 507 168 533 q 179 453 175 481 q 190 372 188 415 q 201 287 193 329 q 225 206 208 244 q 275 142 242 168 q 288 135 279 140 q 314 138 304 125 q 332 167 328 154 q 356 333 356 246 q 344 500 356 421 z "},"H":{"ha":471,"x_min":-46,"x_max":431,"o":"m 210 456 q 249 483 231 471 q 286 508 268 496 q 292 522 289 511 q 292 535 292 529 q 290 546 292 540 q 287 598 286 572 q 289 650 288 624 q 289 701 290 675 q 285 753 288 726 q 285 807 282 781 q 293 860 289 833 q 306 881 296 875 q 331 878 317 886 q 365 855 349 867 q 394 828 381 843 q 401 807 401 818 q 403 769 400 788 q 411 731 407 750 q 419 672 417 701 q 425 611 422 642 q 428 525 431 568 q 429 439 426 482 q 428 398 431 418 q 424 357 425 378 l 424 317 q 422 250 428 281 q 423 225 421 238 q 426 200 425 213 q 428 183 429 189 q 408 168 425 165 q 378 174 393 171 q 350 186 364 176 q 325 221 329 199 q 315 285 319 253 q 306 349 311 317 q 302 382 303 365 q 299 415 301 399 q 297 421 297 418 q 296 426 297 424 q 281 431 290 438 q 221 379 249 406 q 215 370 217 376 q 214 358 214 364 q 217 324 215 342 q 221 290 218 307 l 221 281 q 219 238 219 260 q 217 194 218 217 q 217 177 217 186 q 219 160 218 168 q 224 126 222 143 q 221 90 226 108 q 188 35 210 53 q 142 19 165 17 q 99 42 118 21 q 75 103 79 64 q 67 135 72 119 q 60 168 63 151 q 55 208 57 188 q 50 247 53 228 q 46 297 47 272 q 42 347 44 322 q 36 387 39 367 q 31 426 33 407 q 24 479 26 453 q 17 532 21 506 q 10 578 14 556 q 3 624 6 600 q -2 674 0 649 q -4 725 -4 700 q -43 840 -6 786 q -46 847 -44 840 q -38 850 -42 849 q -32 851 -35 851 q 10 851 -11 851 q 51 847 32 850 q 90 833 72 844 q 122 807 107 821 q 124 804 124 806 q 126 801 125 803 q 144 765 135 782 q 161 728 153 747 q 167 708 165 718 q 171 689 168 699 q 174 667 174 678 q 176 644 175 656 q 178 629 176 635 q 178 610 178 619 q 179 590 178 600 q 190 542 185 567 q 201 493 194 518 q 204 478 201 486 l 210 456 z "},"I":{"ha":271,"x_min":49,"x_max":233,"o":"m 125 725 q 130 719 128 722 q 135 714 132 717 q 179 595 165 656 q 200 474 193 535 q 211 353 207 414 q 228 232 215 293 q 231 173 229 200 q 225 118 233 146 q 222 103 222 111 q 218 89 221 96 q 185 60 214 60 q 150 69 165 60 q 99 104 119 88 q 75 158 78 121 q 71 197 72 178 q 67 235 69 215 q 64 273 65 254 q 61 311 63 292 q 57 377 58 344 q 53 443 56 410 q 49 514 50 479 q 53 585 49 549 q 57 628 56 607 q 60 672 58 650 l 60 754 q 125 725 97 754 z "},"J":{"ha":586,"x_min":63,"x_max":528,"o":"m 403 836 q 359 815 381 836 q 316 769 338 794 q 273 723 294 744 q 229 699 251 701 q 193 713 206 699 q 185 727 190 715 q 174 753 181 739 q 163 778 168 767 q 154 793 157 790 q 173 802 164 799 q 193 803 182 806 q 246 815 221 801 q 276 837 261 826 q 307 858 292 847 q 352 883 331 869 q 394 907 374 897 q 438 919 415 917 q 486 910 461 922 q 508 906 499 913 q 524 892 517 899 q 429 -14 528 433 q 360 -85 403 -58 q 269 -117 317 -112 q 177 -103 222 -122 q 101 -39 132 -85 q 72 19 85 -10 q 68 42 68 29 q 64 94 64 67 q 64 117 63 106 q 68 139 65 128 q 75 148 71 146 q 86 153 79 150 q 97 153 92 156 q 101 143 101 150 q 115 108 103 122 q 138 78 126 93 q 149 65 143 71 q 160 53 154 60 q 185 29 169 40 q 217 10 200 18 q 249 -3 233 1 q 276 -4 264 -7 q 289 4 281 -3 q 306 20 297 11 q 322 38 315 29 q 329 51 329 47 l 338 114 q 349 297 336 206 q 377 477 363 388 q 401 656 392 567 q 403 836 411 746 z "},"K":{"ha":440,"x_min":-46,"x_max":447,"o":"m 194 547 q 212 577 203 563 q 228 607 221 592 q 249 647 233 619 q 282 706 264 675 q 317 763 300 736 q 343 800 335 790 q 354 810 349 806 q 365 821 360 815 q 429 835 396 847 q 439 815 447 831 q 428 798 433 807 q 413 785 424 789 q 410 783 411 783 q 407 782 408 783 q 381 746 399 772 q 345 690 364 719 q 311 632 326 660 q 292 592 296 604 q 258 529 281 558 q 243 506 250 518 q 229 482 236 493 q 226 476 228 479 q 226 469 225 472 q 235 443 232 457 q 250 419 238 429 q 274 383 264 407 q 285 361 279 372 q 299 339 290 350 q 305 326 303 333 q 310 313 307 319 q 321 279 315 296 q 338 247 326 263 q 344 225 344 238 q 354 188 347 206 q 372 151 361 169 q 384 133 379 142 q 394 114 389 124 q 404 99 400 107 q 415 85 408 92 q 429 76 422 79 q 446 71 436 74 q 440 56 443 64 q 433 40 436 47 q 428 35 432 36 q 389 25 414 24 q 350 39 364 26 q 299 107 319 69 q 267 169 283 139 q 240 235 251 200 q 236 244 239 240 q 231 254 233 249 q 217 288 224 271 q 203 321 210 304 q 197 334 200 328 q 192 347 194 340 q 185 313 175 333 q 188 279 190 299 q 185 255 185 267 q 193 232 186 243 q 197 217 196 225 q 199 203 197 210 q 198 197 199 200 q 199 190 197 193 q 205 158 201 175 q 211 126 208 142 q 213 108 214 113 q 197 97 211 104 q 174 85 186 90 q 150 74 161 81 q 115 66 132 64 q 79 71 97 68 q 77 72 78 71 q 75 72 76 72 q 49 85 57 75 q 39 111 42 96 q 21 200 26 156 q 13 290 15 244 q 9 334 11 313 q 6 376 7 356 q 0 426 4 401 q -7 474 -4 450 q -8 492 -8 483 q -10 508 -8 500 l -18 642 q -21 675 -19 658 q -24 708 -22 692 q -28 759 -25 735 q -46 806 -31 783 q -25 818 -39 818 q 6 819 -10 819 q 36 813 21 819 q 51 806 43 810 q 64 796 58 801 q 90 764 78 781 q 115 732 101 747 q 118 728 115 731 q 129 699 124 713 q 140 671 135 686 l 149 654 q 165 621 157 638 q 176 585 174 604 q 182 565 178 574 q 189 547 186 557 l 194 547 z "},"L":{"ha":510,"x_min":15,"x_max":531,"o":"m 90 -78 q 126 -22 110 -49 q 160 31 143 4 q 151 38 154 36 q 124 63 135 49 q 106 94 114 78 q 76 176 85 133 q 64 260 67 218 q 59 343 61 301 q 51 422 57 385 q 50 535 50 479 q 49 647 50 590 q 46 746 49 697 q 29 843 43 794 q 23 860 26 851 q 15 876 19 868 q 53 892 33 892 q 94 889 74 893 q 126 881 110 886 q 157 871 142 876 q 182 844 172 865 q 238 666 222 760 q 256 475 254 572 q 248 281 257 378 q 229 96 239 185 q 236 100 235 99 q 257 124 243 106 q 285 163 271 142 q 313 202 300 183 q 335 226 326 221 q 371 244 351 239 q 410 249 390 249 q 433 249 421 250 q 456 247 444 247 q 477 240 469 246 q 492 222 485 233 q 513 177 506 201 q 524 129 519 153 q 501 101 531 101 q 476 103 489 103 q 450 106 464 104 q 433 101 439 106 q 351 54 389 82 q 274 -1 313 26 q 197 -51 236 -29 q 111 -82 157 -74 q 102 -82 107 -83 q 90 -78 97 -81 z "},"M":{"ha":664,"x_min":1,"x_max":622,"o":"m 3 717 q 2 719 3 718 q 1 721 1 719 q 3 726 1 724 q 22 720 13 724 q 39 713 31 717 q 61 706 50 707 q 85 704 72 704 q 124 699 104 704 q 160 678 144 694 q 183 650 171 664 q 204 621 196 636 q 220 593 211 606 q 238 567 229 581 q 257 525 250 547 q 272 491 264 507 q 292 458 281 475 q 296 471 296 465 q 297 483 296 476 q 305 511 301 497 q 311 539 308 525 q 315 563 314 551 q 319 588 317 575 q 321 606 321 597 q 324 625 321 615 q 338 690 331 657 q 363 751 344 722 q 365 761 365 756 q 365 772 365 767 q 390 797 365 799 q 418 797 404 797 q 446 794 432 796 q 493 764 482 794 q 544 608 525 686 q 575 453 563 531 q 597 299 588 376 q 617 144 606 221 q 619 117 618 131 q 621 89 619 103 q 601 67 622 69 q 572 59 589 58 q 536 65 554 60 q 501 77 518 69 q 474 90 485 85 q 426 151 433 107 q 423 165 425 158 q 419 178 421 171 q 412 219 415 199 q 406 258 408 239 q 402 284 403 271 q 399 310 401 297 q 394 364 394 338 q 393 418 393 390 q 392 463 393 442 q 392 507 392 485 q 392 531 392 519 q 389 556 392 543 q 367 499 374 529 q 357 437 360 468 q 355 374 354 406 q 356 315 356 343 q 343 300 356 300 q 306 300 319 297 q 272 322 292 303 q 219 379 242 350 q 178 428 197 408 q 199 324 185 372 q 219 226 213 276 q 226 178 222 203 q 232 131 229 154 q 235 108 233 119 q 239 85 238 96 q 237 66 239 75 q 222 51 235 57 q 176 30 199 35 q 133 33 153 25 q 99 58 114 40 q 76 104 83 76 q 40 256 47 178 q 30 412 32 333 q 24 567 28 490 q 3 717 21 644 z "},"N":{"ha":493,"x_min":-29,"x_max":500,"o":"m -29 811 q -17 810 -22 810 q -8 807 -12 810 q 6 801 -1 804 q 19 794 13 797 q 67 747 51 778 q 94 685 82 715 q 127 578 114 631 q 157 474 140 525 q 165 438 161 456 q 175 400 169 419 q 178 410 176 408 q 190 457 185 433 q 203 504 196 481 l 219 575 q 235 630 228 603 q 251 685 243 657 q 256 699 254 692 q 260 713 257 706 q 269 742 264 726 q 283 769 275 757 q 302 788 292 781 q 326 793 313 794 q 348 792 338 792 q 369 789 358 792 q 407 757 397 782 q 431 708 415 733 q 442 680 439 694 q 447 650 444 665 q 474 432 461 535 q 497 226 486 329 q 494 202 500 211 q 471 193 489 193 q 416 201 446 193 q 361 223 386 208 q 319 260 336 238 q 304 313 303 282 q 305 333 306 324 q 304 353 304 343 q 299 403 300 386 q 299 440 299 419 q 301 498 300 461 q 303 611 303 535 q 303 638 303 625 q 306 667 304 651 q 305 672 306 669 q 304 681 304 675 q 297 675 300 678 q 260 553 268 621 q 248 417 251 486 q 237 279 244 347 q 201 153 229 211 q 203 131 203 142 q 203 110 203 121 q 192 87 203 99 q 171 75 182 75 q 122 75 146 72 q 104 81 113 78 q 88 89 96 85 q 69 100 78 94 q 51 110 60 106 q 28 135 36 118 q 22 169 19 153 q 16 388 21 278 q 0 606 11 499 q -6 654 -3 629 q -12 704 -10 679 q -21 749 -17 726 q -29 793 -25 771 l -29 811 z "},"O":{"ha":460,"x_min":8,"x_max":451,"o":"m 208 49 q 138 81 168 56 q 88 140 108 106 q 56 213 68 174 q 39 290 43 253 q 34 310 38 300 q 26 329 31 319 q 13 370 15 349 q 10 413 10 392 q 9 481 8 447 q 14 549 10 515 q 27 608 19 572 q 49 672 35 643 q 86 715 64 701 q 144 707 108 728 q 172 701 158 701 q 197 713 185 701 q 224 725 210 721 q 261 726 243 733 q 289 719 275 722 q 315 710 303 715 q 340 701 322 707 q 376 689 357 696 q 410 674 394 682 q 429 660 425 667 q 448 570 444 614 q 449 483 451 526 q 442 395 447 439 q 436 307 438 351 q 435 297 436 301 q 435 288 435 293 q 433 264 433 276 q 431 240 432 251 q 428 224 429 232 q 424 208 426 217 q 394 154 417 182 q 340 103 371 126 q 274 65 310 81 q 208 49 239 50 m 214 107 q 235 126 226 108 q 249 165 243 143 q 259 209 254 188 q 268 242 264 231 q 287 312 283 276 q 293 383 290 347 q 295 480 296 432 q 297 576 294 528 q 286 653 297 613 q 276 667 281 664 q 246 676 264 676 q 215 668 228 676 q 199 653 206 661 q 193 633 192 644 q 194 610 196 622 q 190 588 192 599 q 185 569 190 576 q 174 554 181 561 q 162 568 163 558 q 154 586 161 578 q 146 564 147 574 q 140 543 143 557 q 135 523 138 532 q 133 503 133 514 q 133 434 133 475 q 135 348 133 393 q 140 259 136 303 q 153 181 144 215 q 177 125 163 146 q 214 107 192 104 z "},"P":{"ha":486,"x_min":-119,"x_max":526,"o":"m 515 744 q 517 733 517 739 q 519 722 518 728 q 524 665 526 693 q 514 610 522 638 q 508 583 511 596 q 500 556 504 569 q 426 432 481 479 q 299 374 371 385 q 273 374 285 371 q 249 383 261 376 q 249 374 249 378 q 250 365 250 369 q 251 270 243 317 q 269 183 258 224 q 277 148 274 171 q 283 99 281 125 q 286 49 285 74 q 289 11 288 25 q 283 -4 289 1 q 265 -24 275 -15 q 240 -35 256 -32 q 225 -40 233 -37 q 210 -44 217 -43 q 191 -45 200 -46 q 174 -43 182 -44 q 156 -39 164 -42 q 138 -37 149 -36 q 121 -29 129 -39 q 110 -8 113 -19 q 71 366 89 185 q 42 729 53 547 q 42 765 42 747 q 44 801 43 783 q 43 817 44 810 q 31 828 42 824 q 36 832 36 832 q 53 840 44 840 q 72 836 63 839 q 128 814 100 832 q 140 802 135 808 q 151 789 144 796 q 160 781 156 785 q 169 772 164 776 q 185 736 178 764 q 198 676 193 708 q 206 615 203 644 q 211 572 210 585 q 219 523 214 529 q 231 533 225 517 q 244 583 238 550 q 256 651 250 615 q 264 718 261 686 q 265 765 267 750 q 247 836 257 810 q 219 876 238 863 q 174 893 201 890 q 101 894 146 896 q 47 882 74 893 q -3 856 21 871 q -43 843 -22 843 q -85 851 -64 843 q -113 866 -107 854 q -92 882 -119 878 q -84 883 -87 882 q -76 888 -81 885 q 14 927 -33 914 q 111 946 61 940 q 130 947 121 947 q 149 949 139 947 q 263 948 204 958 q 372 910 321 938 q 462 841 424 883 q 515 744 500 799 z "},"Q":{"ha":625,"x_min":58,"x_max":669,"o":"m 386 19 q 374 20 379 19 q 363 19 368 21 q 314 18 338 15 q 268 33 290 21 q 267 35 268 35 q 206 74 228 46 q 167 136 183 101 q 148 174 158 156 q 129 211 138 192 q 90 306 107 258 q 67 407 72 354 q 60 481 63 444 q 64 554 58 518 q 70 619 67 586 q 81 683 74 651 q 113 777 94 732 q 160 849 132 822 q 227 879 188 876 q 322 849 267 882 q 340 845 332 847 q 358 842 349 843 q 371 829 368 839 q 379 810 374 814 q 400 806 385 806 q 441 799 422 804 q 476 778 460 793 q 480 775 479 776 q 483 772 481 774 q 505 753 499 765 q 515 726 511 742 q 528 688 522 707 q 540 649 533 668 q 546 621 543 635 q 551 593 549 607 q 571 475 561 536 q 583 353 581 414 q 578 234 586 292 q 546 129 571 176 q 534 110 540 119 q 521 94 528 101 q 499 69 510 82 q 474 47 489 57 q 457 10 454 36 q 460 -49 454 -18 q 479 -106 467 -79 q 510 -153 492 -133 q 549 -181 528 -174 q 596 -178 571 -187 q 646 -135 621 -168 q 663 -144 658 -129 q 667 -169 664 -160 q 660 -192 669 -179 q 640 -212 650 -203 q 621 -231 631 -221 q 592 -245 608 -242 q 559 -248 576 -249 q 526 -242 542 -247 q 497 -231 510 -237 q 440 -176 460 -204 q 410 -117 419 -147 q 396 -53 400 -87 q 386 19 392 -19 m 432 193 q 436 201 435 199 q 440 207 438 204 q 460 263 453 235 q 471 319 467 290 q 484 408 478 357 q 490 511 490 458 q 483 613 490 564 q 456 695 475 661 q 403 743 436 729 q 319 740 369 757 q 314 729 314 732 q 283 622 296 672 q 265 524 269 572 q 263 425 260 475 q 281 321 267 375 q 320 224 300 271 q 381 132 340 176 q 377 169 383 151 q 368 206 371 188 q 363 242 367 225 q 356 278 358 260 q 360 281 358 281 q 363 282 361 281 q 413 260 400 297 q 420 237 417 249 q 426 214 424 225 q 428 205 428 210 q 432 193 429 200 z "},"R":{"ha":656,"x_min":32,"x_max":658,"o":"m 442 740 q 463 741 451 744 q 483 730 474 738 q 501 713 493 722 q 515 697 510 704 q 529 629 538 667 q 494 551 521 592 q 428 470 467 511 q 353 393 390 429 q 289 328 317 357 q 254 281 261 299 q 270 263 250 272 q 319 244 290 253 q 374 230 347 236 q 407 222 400 224 q 424 218 415 219 q 442 215 433 217 q 578 178 511 203 q 599 173 589 175 q 621 168 610 171 q 633 163 628 165 q 646 157 639 160 q 650 136 658 149 q 607 117 633 113 q 521 136 565 125 q 431 159 476 147 q 343 181 386 171 q 263 200 300 192 q 256 187 256 193 q 256 174 256 181 q 258 130 256 153 q 258 85 260 107 q 251 44 257 64 q 231 13 246 25 q 192 -12 215 -8 q 145 -9 169 -15 q 99 10 121 -3 q 64 36 78 24 q 38 172 43 104 q 34 308 32 240 q 41 442 36 375 q 46 575 46 508 q 44 656 42 608 q 53 750 46 704 q 74 831 61 796 q 108 875 88 867 q 154 857 128 883 q 214 753 181 831 q 259 753 238 750 q 301 763 281 756 q 328 768 315 765 q 356 771 342 771 q 401 765 379 771 q 442 740 424 760 m 242 569 q 242 513 240 540 q 253 501 244 499 q 272 513 261 503 q 294 538 282 522 q 315 569 306 554 q 331 594 325 583 q 339 606 338 604 q 369 649 354 625 q 379 667 375 658 q 388 686 383 676 q 392 702 390 694 q 396 718 394 710 q 382 733 397 733 q 317 725 349 738 q 302 719 310 722 q 288 713 294 715 q 261 697 272 706 q 246 669 250 688 q 244 619 243 643 q 242 569 244 594 z "},"S":{"ha":449,"x_min":4,"x_max":426,"o":"m 69 296 q 106 261 83 275 q 151 240 128 247 q 192 231 174 232 q 219 233 211 229 q 224 237 222 235 q 229 242 226 239 q 247 266 238 253 q 263 296 257 279 q 270 334 269 313 q 263 385 271 356 q 251 405 261 390 q 228 435 242 419 q 203 465 215 451 q 185 482 190 478 q 149 514 168 494 q 110 555 129 533 q 73 599 90 576 q 44 638 56 621 q 13 722 19 675 q 14 744 11 733 q 19 767 17 756 q 48 819 31 796 q 86 864 65 843 q 130 903 107 885 q 176 942 153 922 q 232 963 203 964 q 289 945 261 961 q 342 902 317 929 q 387 844 368 875 q 416 785 406 814 q 424 735 426 756 q 421 715 422 724 q 415 694 419 706 q 375 690 400 658 q 370 721 367 704 q 378 753 374 738 q 372 806 389 785 q 324 835 354 826 q 260 840 294 844 q 200 818 225 836 q 166 785 183 806 q 137 740 149 764 q 120 690 125 715 q 122 643 115 665 q 140 617 128 632 q 166 587 151 601 q 194 559 181 572 q 219 539 208 546 q 282 494 251 515 q 344 450 313 474 q 417 346 397 411 q 421 324 421 333 q 408 249 422 290 q 371 173 394 208 q 316 115 347 138 q 251 96 285 93 q 185 108 211 100 q 139 131 160 117 q 99 165 118 144 q 56 214 81 186 q 26 265 39 235 q 8 326 13 294 q 11 385 4 357 q 42 433 18 414 q 50 435 44 435 q 72 425 58 436 q 89 406 86 414 q 88 394 90 399 q 79 385 85 390 q 62 343 65 371 q 69 296 58 315 z "},"T":{"ha":540,"x_min":-107,"x_max":585,"o":"m -36 813 q -38 813 -37 813 q -40 814 -39 814 q -85 862 -68 842 q -106 918 -101 882 q -103 928 -107 925 q -96 933 -100 931 q -56 926 -79 928 q -7 926 -32 925 q 42 931 18 928 q 83 936 67 933 q 243 965 164 953 q 295 973 269 971 q 347 978 321 975 q 378 983 363 981 q 410 988 394 985 q 483 974 449 993 q 531 939 511 958 q 564 892 551 919 q 572 876 568 883 q 579 858 576 868 q 574 830 585 843 q 549 817 564 817 q 426 817 486 814 q 308 808 367 821 q 302 806 306 807 q 294 803 299 804 q 303 781 299 792 q 310 760 307 771 q 358 583 344 674 q 377 398 371 492 q 390 210 383 304 q 418 25 396 117 q 403 -14 422 0 q 393 -23 397 -18 q 382 -31 389 -28 q 327 -32 353 -39 q 278 -10 301 -25 q 235 23 256 4 q 194 60 214 42 q 190 76 185 67 q 184 222 190 153 q 171 360 178 292 q 160 497 164 428 q 163 642 156 567 l 158 758 q 157 772 158 765 q 156 785 156 778 q 118 797 143 796 q 64 797 93 797 q 8 798 35 796 q -36 813 -19 800 z "},"U":{"ha":486,"x_min":-32,"x_max":474,"o":"m 426 692 q 465 545 457 617 q 472 410 474 474 q 463 290 469 346 q 454 193 456 235 l 454 194 q 423 122 446 157 q 367 61 400 86 q 293 25 333 36 q 211 22 253 14 q 111 94 143 35 q 62 204 81 147 q 32 321 43 261 q 24 362 28 342 q 17 403 19 382 q 9 465 13 435 q 3 526 6 494 q -3 582 1 546 q -11 658 -7 618 q -19 735 -15 699 q -24 790 -22 771 q -32 836 -26 811 q -28 840 -31 838 q -22 842 -25 842 q 38 833 8 839 q 71 821 54 829 q 88 807 81 815 q 97 789 93 799 q 108 771 101 779 q 113 758 111 765 q 115 744 114 751 q 131 665 119 715 q 156 561 143 615 q 181 456 169 507 q 199 371 193 404 q 206 325 203 351 q 212 270 210 299 q 215 217 214 242 q 214 176 215 192 q 224 123 213 144 q 242 96 235 101 q 294 92 265 79 q 347 161 322 106 q 360 335 361 261 q 349 466 358 408 q 326 571 340 524 q 300 668 311 618 q 296 685 297 676 q 292 703 294 694 q 303 719 290 715 q 326 725 314 722 q 350 731 338 728 q 361 734 356 733 q 372 736 367 735 q 405 725 390 742 q 426 692 419 708 z "},"V":{"ha":525,"x_min":-72,"x_max":503,"o":"m -72 836 q -51 850 -62 853 q -29 846 -40 847 q 60 808 25 840 q 119 728 96 776 q 155 620 142 679 q 178 504 168 561 q 198 397 188 447 q 225 315 208 347 q 234 283 231 300 q 243 250 238 267 q 247 263 246 257 q 250 276 249 269 q 263 332 257 304 q 274 388 268 360 q 281 415 276 401 q 288 443 285 428 q 307 507 297 475 q 326 571 317 539 q 329 581 328 576 q 332 590 331 586 q 372 692 353 642 q 415 789 390 742 q 442 803 422 800 q 474 810 463 806 q 499 811 486 815 q 501 795 500 803 q 503 779 503 788 l 503 775 q 494 760 494 768 q 489 744 493 751 q 433 589 456 668 q 390 430 410 510 q 350 272 369 350 q 304 119 331 193 q 284 90 296 103 q 261 64 272 76 q 192 39 229 39 q 151 43 171 39 q 113 60 131 47 q 68 115 78 81 q 38 188 56 154 q 24 228 28 207 q 18 272 21 250 q 10 330 14 301 q 4 389 7 358 q -2 485 1 438 q -10 581 -6 532 q -14 642 -12 611 q -19 701 -15 672 q -26 752 -22 728 q -42 800 -31 776 q -72 836 -53 825 z "},"W":{"ha":810,"x_min":22,"x_max":785,"o":"m 379 644 q 415 651 400 651 q 442 645 431 650 q 465 631 454 640 q 490 608 476 621 q 544 525 524 575 q 580 419 564 475 q 612 307 596 363 q 653 207 628 251 q 659 190 656 199 q 665 175 663 182 q 674 160 668 167 q 690 150 679 153 q 694 170 692 161 q 694 190 696 179 q 692 249 693 219 q 688 310 690 279 q 681 347 685 329 q 675 385 678 365 q 667 440 671 413 q 661 494 664 467 q 653 558 658 526 q 638 622 649 590 q 614 701 624 661 q 597 782 604 742 q 590 811 594 797 q 579 839 585 825 q 597 885 568 871 q 618 897 608 892 q 639 907 628 903 q 658 908 653 911 q 669 893 663 906 q 671 892 671 893 q 689 860 686 878 q 696 825 692 843 q 706 785 700 806 q 718 744 711 764 q 740 671 729 708 q 753 594 750 633 q 754 576 754 585 q 756 557 754 567 q 762 501 758 529 q 769 444 765 472 q 778 304 785 374 q 761 168 771 235 q 741 128 757 147 q 703 93 725 108 q 658 67 682 78 q 617 54 635 56 q 551 81 579 49 q 510 140 529 103 q 475 217 492 176 q 443 296 458 258 q 411 357 428 333 q 406 331 408 343 q 403 306 404 318 q 394 249 399 278 q 393 193 390 219 q 383 140 393 164 q 369 92 374 117 q 311 50 344 58 q 248 49 278 42 q 196 77 218 57 q 171 119 174 97 q 140 287 157 207 q 106 440 124 367 q 69 585 88 514 q 35 726 51 656 q 33 732 35 731 q 23 763 22 747 q 24 794 24 779 q 42 813 24 814 q 74 804 58 810 q 96 779 89 799 q 99 774 97 776 q 103 769 100 772 q 145 693 121 729 q 194 622 169 657 q 239 548 218 586 q 271 465 260 510 q 290 436 283 451 q 301 405 296 421 q 310 372 306 389 q 321 342 314 356 q 324 346 322 344 q 325 350 325 347 q 349 487 339 421 q 375 619 360 553 q 379 644 376 629 z "},"X":{"ha":547,"x_min":-10,"x_max":531,"o":"m 247 547 q 258 545 251 543 q 268 553 264 547 q 342 697 313 624 q 396 842 372 771 q 410 859 401 854 q 431 865 419 864 q 490 838 467 863 q 529 786 514 813 q 528 769 531 779 q 521 756 525 760 q 482 690 501 736 q 444 592 463 644 q 408 490 425 539 q 381 417 392 440 q 400 373 385 403 q 435 311 415 343 q 474 253 454 279 q 506 222 493 228 q 514 215 513 219 q 513 206 515 211 q 508 197 511 201 q 503 188 504 192 q 479 167 497 171 q 422 183 443 164 q 383 230 400 203 q 349 285 365 257 q 308 329 332 314 q 274 299 286 319 q 256 252 263 278 q 246 199 250 226 q 233 151 242 172 q 210 116 225 129 q 169 104 196 103 q 134 112 151 108 q 99 121 117 115 q 47 160 67 132 q 41 181 40 169 q 46 201 42 192 q 62 225 53 217 q 78 249 71 233 q 93 273 82 253 q 116 318 104 293 q 140 367 128 343 q 158 404 151 392 q 170 428 164 417 q 183 450 176 439 q 190 466 190 461 q 182 481 189 471 q 151 518 171 493 q 111 568 132 543 q 72 614 90 593 q 43 640 53 635 q 32 649 38 644 q 24 660 26 654 q 15 674 21 665 q 3 692 8 683 q -6 710 -3 701 q -7 724 -10 719 q 26 747 7 747 q 66 730 44 746 q 111 688 88 714 q 158 633 135 661 q 204 582 182 606 q 247 547 226 558 z "},"Y":{"ha":510,"x_min":-42,"x_max":471,"o":"m -42 808 q -5 815 -21 814 q 25 816 11 817 q 52 814 39 815 q 81 813 65 813 q 126 782 108 808 q 136 767 132 771 q 158 743 144 758 q 185 711 172 728 q 210 679 199 694 q 225 656 221 664 q 242 623 233 639 q 261 590 251 607 q 276 561 268 575 q 292 533 283 547 q 300 518 296 525 q 308 503 304 511 q 313 504 310 504 q 321 524 317 514 q 329 543 325 533 q 344 592 336 568 q 358 640 351 617 q 363 658 361 649 q 365 675 364 667 q 374 712 368 694 q 388 747 379 729 q 394 766 390 757 q 401 785 397 775 q 413 813 407 800 q 424 840 418 826 q 443 860 428 853 q 453 860 450 863 q 460 851 457 858 q 467 804 471 826 q 451 758 463 782 q 412 611 432 692 q 378 456 392 531 q 375 440 376 449 q 369 425 374 432 q 377 338 375 381 q 381 252 379 294 q 387 168 383 210 q 399 85 390 126 q 393 64 401 72 q 377 49 383 56 q 364 37 371 42 q 349 28 357 32 q 328 25 340 25 q 309 26 318 25 q 290 25 300 26 q 240 35 258 24 q 210 76 221 47 q 201 115 204 94 q 192 183 194 149 q 189 251 190 217 q 188 292 188 271 q 190 333 189 313 q 178 368 190 351 q 102 472 133 417 q 46 589 71 528 q 10 685 26 638 q -26 781 -7 732 q -33 794 -29 788 q -42 808 -37 800 z "},"a":{"ha":417,"x_min":0,"x_max":379,"o":"m 344 689 q 369 649 361 678 q 378 585 376 619 q 376 516 379 550 q 371 463 374 482 q 349 269 356 363 q 333 72 343 176 q 335 57 332 65 q 337 37 336 46 q 338 17 338 28 q 337 -3 336 7 q 339 -24 338 -12 q 339 -36 339 -31 q 338 -49 339 -42 q 323 -69 336 -60 q 299 -75 310 -78 q 273 -67 285 -72 q 251 -51 261 -62 q 219 -22 236 -36 q 186 7 203 -7 q 165 57 160 26 q 166 78 167 68 q 167 97 165 88 q 169 116 167 107 q 172 135 171 125 q 176 153 175 144 q 178 171 176 161 q 181 186 181 178 q 183 201 182 194 q 184 218 185 210 q 185 235 183 226 l 185 242 q 170 230 178 235 q 154 219 163 225 q 122 206 139 211 q 89 201 106 200 q 56 210 72 201 q 28 238 40 218 q 14 265 22 244 q 4 293 6 285 q 6 390 0 347 q 29 470 11 433 q 79 539 47 507 q 160 603 111 571 q 198 621 178 615 q 235 630 218 626 q 264 635 253 633 q 276 643 275 638 q 291 667 281 658 q 313 688 301 676 q 344 689 328 703 m 257 549 q 263 569 260 560 q 267 588 265 578 q 268 589 267 589 q 190 561 224 585 q 124 506 157 538 q 85 456 104 489 q 56 385 67 422 q 49 313 46 347 q 75 261 51 279 q 98 254 90 254 q 114 267 106 254 q 147 319 131 293 q 179 372 163 346 q 224 458 206 414 q 257 549 243 503 z "},"b":{"ha":449,"x_min":60,"x_max":425,"o":"m 247 551 q 298 583 274 579 q 343 575 322 588 q 381 538 364 563 q 408 484 397 513 q 422 428 418 456 q 419 381 425 400 q 415 332 413 360 q 403 267 417 304 q 396 251 400 260 q 386 236 392 243 q 352 197 369 217 q 317 157 335 176 q 284 132 304 143 q 240 113 264 121 q 190 101 215 106 q 144 100 165 97 q 106 114 122 103 q 79 147 89 125 q 63 193 68 169 q 61 204 60 199 q 63 215 63 210 q 60 292 61 254 q 60 367 60 329 q 65 504 60 436 q 78 640 71 572 q 89 777 85 708 q 92 917 93 846 q 106 917 99 917 q 121 917 114 918 q 165 910 143 915 q 206 894 186 904 q 253 831 243 871 q 261 742 264 790 q 251 644 258 694 q 247 551 244 594 m 269 421 q 292 419 279 417 q 318 431 306 422 q 339 451 331 439 q 347 475 347 463 q 337 499 343 488 q 321 521 331 511 q 292 522 307 535 q 282 515 286 519 q 272 506 278 510 q 269 496 269 500 l 269 421 m 364 326 q 367 387 371 369 q 353 403 364 404 q 329 384 343 401 q 302 342 315 367 q 279 286 289 317 q 268 228 269 256 q 278 172 268 169 q 329 222 289 175 q 354 272 349 244 q 364 326 360 299 z "},"c":{"ha":440,"x_min":11,"x_max":424,"o":"m 408 204 q 369 113 386 150 q 328 52 353 75 q 268 20 304 29 q 169 17 232 11 q 129 35 149 21 q 54 131 82 72 q 32 195 39 163 q 18 263 25 228 q 13 332 11 297 q 21 401 15 367 q 25 422 24 413 q 29 443 26 432 q 92 588 50 519 q 122 616 103 601 q 160 644 140 631 q 199 671 179 658 q 232 693 218 683 q 255 706 243 700 q 281 711 267 711 q 303 711 292 711 q 325 708 314 711 q 350 705 338 707 q 375 701 363 703 q 409 672 400 694 q 407 629 418 650 q 339 571 383 590 q 312 560 328 564 q 286 558 296 557 q 279 564 276 558 q 307 582 282 569 q 340 626 325 603 q 358 675 356 650 q 303 674 329 683 q 256 644 276 664 q 219 598 235 624 q 199 550 204 572 q 185 502 192 526 q 172 453 178 478 q 158 262 150 360 q 221 86 165 164 q 254 66 236 67 q 290 81 272 65 q 325 124 311 100 q 349 175 339 147 q 358 203 353 190 q 371 232 364 217 q 378 253 375 243 q 386 274 382 263 q 392 286 389 281 q 397 299 394 292 q 419 252 415 275 q 408 204 424 229 z "},"d":{"ha":501,"x_min":17,"x_max":454,"o":"m 249 75 q 233 71 242 74 q 218 67 225 68 q 169 70 193 64 q 122 85 144 76 q 53 153 74 106 q 35 315 17 236 q 124 447 53 394 q 138 451 128 453 q 158 447 147 450 q 178 439 168 443 q 193 433 188 435 q 213 426 203 429 q 235 419 224 424 q 231 464 231 442 q 229 507 231 486 q 224 568 228 532 q 217 644 221 604 q 213 724 214 685 q 217 794 213 764 q 231 843 221 825 q 258 860 240 861 q 278 855 263 860 q 311 844 293 850 q 344 831 329 838 q 363 821 360 825 q 397 748 392 789 q 406 667 403 707 q 422 358 417 511 q 438 51 426 206 q 444 6 439 28 q 450 -39 450 -17 q 448 -64 454 -54 q 432 -83 442 -74 q 392 -101 414 -97 q 350 -103 369 -106 q 347 -103 349 -104 q 342 -103 344 -103 q 294 -94 307 -108 q 276 -58 281 -81 q 272 -9 272 -35 q 265 35 272 17 q 257 56 261 46 q 249 75 253 65 m 232 376 q 210 386 219 381 q 188 388 201 392 q 138 338 154 371 q 121 268 122 306 q 129 193 119 231 q 158 131 139 156 q 188 121 167 118 q 201 128 194 124 q 222 144 213 136 q 242 163 231 153 q 248 272 250 213 q 232 376 246 331 z "},"e":{"ha":439,"x_min":24,"x_max":426,"o":"m 403 318 q 410 315 406 315 q 417 311 414 314 q 425 299 426 304 q 419 283 424 294 q 373 194 399 238 q 315 117 347 150 q 245 68 283 85 q 160 60 207 51 q 86 110 114 78 q 44 183 58 143 q 26 265 29 222 q 28 349 24 308 q 44 425 33 390 q 67 482 54 460 q 106 544 82 510 q 160 612 131 579 q 226 669 190 644 q 303 703 263 694 q 329 695 313 706 q 361 669 346 685 q 387 638 376 654 q 396 611 397 621 q 400 513 410 554 q 367 444 390 472 q 311 396 343 415 q 248 361 279 376 q 192 333 217 346 q 157 303 167 319 q 144 265 147 286 q 144 222 142 243 q 154 180 147 200 q 171 146 161 160 q 199 132 183 131 q 267 156 240 138 q 316 201 294 175 q 357 258 338 228 q 403 318 376 289 m 164 364 q 202 387 182 378 q 242 404 222 396 q 279 423 263 413 q 308 450 296 433 q 326 500 321 469 q 331 549 331 531 q 267 515 293 532 q 221 476 240 497 q 188 428 201 456 q 164 364 175 401 z "},"g":{"ha":518,"x_min":-14,"x_max":603,"o":"m 215 557 q 194 525 204 542 q 174 493 185 508 q 135 460 157 469 q 104 461 121 457 q 80 469 92 465 q 56 476 68 472 q 21 507 33 485 q -7 584 0 544 q -11 665 -14 624 q -3 708 -10 688 q 13 749 4 729 q 22 769 17 760 q 33 788 28 778 q 69 819 47 814 q 153 823 108 831 q 239 804 197 815 q 249 842 243 824 q 253 879 256 860 q 261 885 260 882 q 272 892 265 892 q 282 892 278 893 q 310 876 297 885 q 332 853 324 868 q 337 840 335 846 q 339 828 339 835 q 351 704 347 767 q 374 586 354 642 q 399 625 381 599 q 442 684 418 651 q 491 750 465 717 q 540 808 517 783 q 580 846 563 833 q 603 850 597 858 q 585 823 601 847 q 544 763 568 799 q 494 688 521 728 q 443 613 467 647 q 403 553 419 578 q 385 525 386 528 q 386 390 381 456 q 400 263 392 325 q 416 138 408 200 q 422 13 424 76 q 419 -12 421 0 q 414 -36 417 -25 q 365 -76 396 -57 q 298 -110 333 -96 q 226 -131 263 -125 q 159 -128 189 -136 q 109 -94 129 -119 q 88 -21 89 -68 q 82 28 85 3 q 82 76 79 53 q 136 238 93 160 q 228 379 179 315 q 232 412 232 386 q 229 467 232 438 q 223 522 226 496 q 215 557 219 549 m 238 313 q 176 206 206 261 q 132 92 147 150 q 132 38 125 65 q 143 -11 136 13 q 165 -57 150 -35 q 213 -72 197 -85 q 236 -27 229 -58 q 242 44 243 4 q 240 108 242 83 q 247 215 243 163 q 238 313 250 268 m 108 528 l 125 544 q 146 572 136 558 q 165 600 156 586 q 184 629 175 615 q 200 658 193 643 q 213 693 207 676 q 225 726 218 710 q 229 745 228 736 q 232 765 231 754 q 221 774 232 775 q 194 767 207 771 q 168 760 181 763 q 156 753 158 757 q 156 740 154 749 q 156 732 156 736 q 157 725 157 728 q 121 644 149 682 q 101 590 103 621 q 103 533 99 560 q 108 528 103 533 z "},"f":{"ha":486,"x_min":53,"x_max":451,"o":"m 210 -97 q 202 -24 207 -58 q 189 47 197 11 q 162 102 169 76 q 152 153 154 128 q 151 204 150 178 q 149 260 151 231 q 144 313 146 288 q 140 367 143 339 q 140 377 140 371 q 139 388 140 383 q 105 369 124 381 q 75 350 86 357 q 66 352 71 347 q 57 365 61 357 q 53 383 53 374 q 60 400 53 392 q 75 410 63 403 q 101 427 88 418 q 126 444 114 436 q 138 457 138 453 q 141 580 140 526 q 144 677 142 633 q 153 757 147 721 q 171 826 158 793 q 195 863 179 847 q 231 889 211 878 q 281 900 253 900 q 349 893 317 903 q 414 872 382 883 q 422 857 425 864 q 406 850 419 850 q 328 826 357 850 q 286 765 299 801 q 276 687 274 729 q 293 610 278 644 q 295 597 294 603 q 297 583 296 592 q 307 590 303 588 q 314 594 311 592 q 346 617 329 606 q 379 640 363 629 q 432 650 401 657 q 442 647 438 649 q 449 639 446 646 q 448 629 451 633 q 442 621 444 625 q 419 603 431 611 q 396 585 407 594 q 360 558 378 571 q 325 532 343 546 q 318 511 317 525 q 351 378 332 444 q 388 244 371 311 q 417 107 406 176 q 428 -33 428 38 q 431 -54 431 -44 q 431 -75 431 -64 q 426 -85 431 -83 q 413 -97 419 -92 q 397 -106 406 -101 q 372 -115 385 -114 q 353 -114 364 -117 q 325 -114 339 -110 q 290 -122 307 -118 q 253 -128 272 -125 q 219 -125 225 -132 q 210 -97 214 -118 z "},"h":{"ha":425,"x_min":-29,"x_max":418,"o":"m -29 864 q 40 851 19 863 q 69 833 60 839 q 121 769 103 799 q 149 708 139 739 q 163 644 158 678 q 172 567 168 610 q 177 535 175 551 q 182 504 179 519 q 187 501 183 500 q 193 506 190 503 q 199 515 196 510 q 203 521 201 519 q 254 586 222 557 l 279 607 q 305 615 288 613 q 341 618 322 618 q 377 615 360 618 q 403 608 394 613 q 414 594 413 604 q 417 525 418 568 q 413 434 417 482 q 406 341 410 386 q 399 265 401 296 q 404 203 394 238 q 402 165 417 168 q 365 174 388 161 q 322 208 342 188 q 301 244 301 229 q 300 263 300 254 q 300 282 300 272 q 302 343 301 313 q 304 406 303 374 q 306 423 306 414 q 306 440 306 432 q 309 485 304 464 q 317 529 314 507 q 310 555 319 543 q 292 556 301 567 q 256 510 275 536 q 222 451 236 483 q 199 382 207 418 q 196 307 190 346 q 201 278 197 297 q 208 235 206 258 q 212 188 211 211 q 208 149 213 165 q 166 135 189 133 q 122 147 143 136 q 83 175 100 157 q 58 211 65 193 q 56 219 57 215 q 56 226 56 222 q 51 278 53 253 q 47 329 49 303 q 44 374 44 353 q 42 419 44 396 q 31 522 36 471 q 18 625 25 574 q 1 740 8 690 q -24 846 -7 789 q -29 864 -26 857 z "},"j":{"ha":278,"x_min":-60,"x_max":258,"o":"m 43 514 q 41 573 42 543 q 33 632 40 603 q 47 647 29 650 q 66 644 57 646 q 82 635 75 642 q 101 619 92 626 q 119 603 110 611 q 154 558 140 586 q 170 517 164 539 q 181 475 176 496 q 191 441 185 458 q 197 408 197 424 q 216 281 206 344 q 235 153 226 217 q 251 28 244 90 q 258 -92 258 -33 l 258 -93 q 226 -142 251 -126 q 168 -160 200 -157 q 103 -156 136 -164 q 50 -136 71 -149 q 6 -110 26 -121 q -42 -57 -28 -90 q -47 -47 -44 -51 q -53 -36 -50 -43 q -42 -21 -60 -21 q -19 -22 -31 -21 q 3 -33 -7 -24 q 39 -36 19 -50 q 57 -24 47 -29 q 76 -11 67 -18 q 83 3 83 -7 q 78 131 83 67 q 65 258 72 194 q 51 386 58 322 q 43 514 44 450 m -18 868 q 7 875 -11 879 q 37 869 22 872 q 67 863 51 865 q 83 851 75 860 q 97 830 90 842 q 106 806 103 818 q 110 786 110 794 q 115 755 111 771 q 126 728 119 739 q 122 711 133 717 q 101 705 111 704 q 79 710 90 706 q 49 723 64 717 q 18 736 33 729 q -3 753 4 743 q -12 779 -11 763 q -14 808 -12 794 q -15 838 -15 822 q -17 852 -17 844 q -18 868 -17 860 z "},"i":{"ha":263,"x_min":-18,"x_max":238,"o":"m 231 269 q 237 246 238 261 q 231 215 236 231 q 215 188 225 200 q 196 172 206 175 q 157 170 178 169 q 116 176 136 171 q 81 190 96 181 q 58 215 65 200 q 45 244 51 231 q 33 272 39 257 q 17 365 18 319 q 21 456 17 411 q 29 547 25 501 q 28 638 33 592 q 47 656 24 661 q 110 624 86 649 q 164 536 153 582 q 174 442 175 490 q 169 344 172 394 q 181 246 165 294 q 189 234 182 233 q 204 241 196 235 q 220 256 213 247 q 231 269 228 265 m 119 781 q 115 757 122 767 q 93 747 107 747 q 22 765 54 747 q -10 796 0 776 q -17 832 -18 815 q -15 858 -15 846 q -12 885 -15 871 q 25 910 -8 918 q 69 894 53 906 q 94 865 85 882 q 109 825 104 847 q 119 781 114 803 z "},"k":{"ha":440,"x_min":22,"x_max":440,"o":"m 193 336 q 198 240 200 288 q 189 149 196 193 q 183 113 186 128 q 181 82 181 97 q 178 67 181 71 q 167 60 176 64 q 116 48 142 49 q 64 51 90 47 q 36 75 42 56 q 30 105 33 90 q 25 135 26 119 q 25 358 22 249 q 28 579 28 468 q 30 633 29 607 q 31 688 31 660 q 31 749 29 719 q 42 810 33 779 q 53 874 50 842 q 60 939 57 907 q 61 967 61 957 q 65 983 61 978 q 81 990 69 989 q 115 989 92 990 q 148 982 132 988 q 175 961 164 976 q 204 887 197 933 q 210 788 211 840 q 204 687 208 736 q 201 604 200 638 q 201 553 203 578 q 201 506 200 529 q 248 576 231 544 q 283 635 265 608 q 326 687 301 663 q 397 736 351 711 q 440 729 421 747 q 359 663 396 700 q 296 581 322 625 l 242 476 q 234 457 238 467 q 228 436 231 447 q 227 417 225 426 q 232 400 229 408 q 251 352 243 376 q 271 304 260 328 q 292 257 282 281 q 313 210 301 233 q 328 182 319 194 q 343 154 336 169 q 356 126 350 140 q 369 97 363 111 q 385 76 376 86 q 404 56 394 67 q 413 44 407 51 q 422 30 418 38 q 427 15 426 22 q 422 7 428 8 q 413 5 418 6 q 404 7 408 4 q 369 25 382 14 q 326 64 346 43 q 293 113 307 85 q 264 169 278 140 q 238 225 250 197 q 221 265 228 244 q 207 306 214 285 q 201 321 204 313 q 196 336 199 329 l 193 336 z "},"l":{"ha":369,"x_min":21,"x_max":344,"o":"m 219 -37 q 246 -10 235 -28 q 265 26 257 7 q 276 64 272 44 q 282 99 281 83 q 286 118 283 108 q 292 138 289 128 q 318 165 299 157 q 338 160 331 171 q 339 85 344 128 q 316 2 333 42 q 272 -67 299 -37 q 211 -101 246 -96 q 88 -69 129 -112 q 34 51 47 -26 q 29 229 21 128 q 53 434 38 331 q 85 635 68 538 q 106 801 101 732 q 144 811 125 813 q 182 799 164 810 q 215 772 200 789 q 240 738 231 756 q 245 691 243 714 q 243 644 247 668 q 222 458 235 544 q 201 292 208 372 q 195 131 193 211 q 219 -37 197 50 z "},"m":{"ha":663,"x_min":25,"x_max":671,"o":"m 668 226 q 668 208 671 217 q 661 192 665 200 q 648 171 654 181 q 635 150 642 161 q 620 134 628 142 q 601 124 613 126 q 592 119 597 121 q 583 114 588 117 q 549 99 571 104 q 497 99 513 90 q 475 124 481 107 q 472 163 469 140 q 475 207 474 186 q 476 232 475 219 q 479 257 478 244 q 480 271 481 264 q 481 285 479 278 q 483 303 482 294 q 486 321 485 313 q 497 397 492 360 q 506 474 501 435 q 508 517 507 492 q 500 558 510 543 q 488 538 493 547 q 476 518 482 529 q 469 499 472 508 q 461 479 465 489 q 440 418 450 449 q 425 356 431 388 q 417 289 418 322 q 416 258 415 274 q 415 228 417 243 q 414 213 414 217 q 413 208 414 210 q 410 203 413 206 q 404 189 408 200 q 390 164 393 175 q 382 143 386 153 q 369 123 378 133 q 343 99 361 113 q 331 90 338 92 q 317 88 324 89 q 300 89 306 88 q 275 111 279 89 q 267 153 271 136 q 262 185 264 169 q 259 218 260 201 q 261 260 258 235 q 267 362 264 311 q 281 464 271 413 q 288 516 285 490 q 296 569 292 542 q 297 585 297 576 q 297 601 297 593 q 294 642 294 639 q 267 610 294 646 q 235 551 246 581 q 223 520 228 536 q 213 489 218 504 l 200 456 q 185 351 186 400 q 181 315 183 340 q 174 261 179 289 q 161 210 169 233 q 139 183 153 188 q 128 181 133 182 q 115 178 122 181 q 88 174 101 174 q 64 181 75 174 q 50 193 56 185 q 42 211 44 201 q 36 235 39 222 q 32 260 33 247 q 29 290 29 275 q 28 319 29 304 q 26 381 26 350 q 26 443 25 411 q 27 480 26 451 q 29 539 28 508 q 33 593 31 569 q 38 617 35 617 q 101 610 71 626 q 158 572 131 594 q 175 546 174 564 q 182 533 175 540 q 193 568 186 549 q 216 626 204 597 q 247 681 228 656 q 272 702 258 694 q 300 714 285 710 q 338 690 325 721 q 363 608 356 650 q 373 521 371 565 q 376 431 375 476 q 382 342 376 386 q 387 322 382 310 q 400 366 392 333 q 418 438 408 399 q 438 499 428 476 q 451 527 444 514 q 467 553 457 540 q 474 562 469 558 q 482 568 478 565 q 513 589 494 583 q 537 590 524 593 q 557 575 550 586 q 569 560 563 567 q 579 543 576 553 q 592 492 586 524 q 601 422 597 460 q 607 345 604 383 q 613 276 610 307 q 622 226 617 244 q 633 208 626 207 q 641 219 638 214 q 647 231 644 225 q 660 239 653 242 q 665 233 663 238 q 668 226 667 229 z "},"n":{"ha":378,"x_min":0,"x_max":346,"o":"m 143 411 q 158 431 151 422 q 172 449 165 440 q 194 478 182 463 q 221 505 207 493 q 251 524 235 517 q 283 532 267 532 q 300 524 294 531 q 311 508 306 517 q 335 428 329 478 q 340 325 340 379 q 338 219 340 271 q 338 135 336 168 q 339 105 336 125 q 344 64 342 85 q 344 27 346 43 q 332 8 342 11 q 320 8 328 7 q 304 10 313 8 q 289 15 296 13 q 281 22 282 18 q 273 58 275 40 q 269 94 271 75 q 267 161 268 128 q 265 226 265 194 q 267 276 265 251 q 268 325 268 301 q 270 387 268 361 q 256 436 272 413 q 235 444 247 447 q 212 431 224 440 q 191 410 200 422 q 178 393 182 399 q 162 358 167 376 q 151 319 157 339 q 150 296 147 310 q 151 273 150 285 q 151 250 151 261 q 149 226 150 238 q 147 201 149 214 q 147 194 147 199 q 147 186 146 190 l 160 99 q 155 80 163 90 q 139 67 147 69 q 89 62 114 60 q 39 74 64 64 q 10 107 17 81 q 3 140 4 124 q 1 175 3 157 q 0 219 0 197 q 0 261 0 240 q 3 308 1 285 q 7 356 6 332 q 8 378 8 367 q 7 401 7 390 q 23 467 4 443 q 65 499 42 492 q 110 494 89 506 q 136 454 132 483 q 138 440 139 443 q 139 426 138 438 q 140 419 139 422 q 143 411 142 415 z "},"o":{"ha":425,"x_min":-8,"x_max":463,"o":"m 454 550 q 460 529 457 544 q 456 503 463 514 q 451 494 453 499 q 446 486 449 490 q 437 468 440 476 q 428 451 433 460 q 367 400 404 417 q 344 383 343 389 q 355 304 353 349 q 347 217 357 260 q 310 142 336 175 q 236 94 283 108 q 169 90 201 86 q 104 104 136 93 q 74 129 83 114 q 3 319 15 217 q 33 519 -8 421 q 38 531 38 524 q 42 549 38 536 q 51 574 46 561 q 64 599 57 588 q 75 614 71 610 q 111 618 88 622 q 133 615 122 615 q 154 613 143 614 q 169 621 168 613 q 188 647 174 640 q 217 656 201 653 q 237 658 228 658 q 257 656 246 657 q 285 631 272 656 q 309 573 299 606 q 326 510 319 540 q 335 471 332 481 l 343 433 q 368 442 358 436 q 388 457 378 447 q 415 489 403 472 q 438 525 426 506 q 445 538 442 532 q 454 550 449 543 m 210 615 q 199 549 192 581 q 201 538 201 543 q 203 526 201 532 q 232 469 208 490 q 288 432 256 447 q 288 434 288 433 q 289 436 289 435 l 289 438 q 285 497 292 468 q 269 553 279 525 q 264 565 268 560 q 257 576 260 569 q 249 595 253 586 q 239 613 244 604 q 224 625 233 622 q 215 623 217 628 q 210 615 213 618 m 207 163 q 249 186 233 160 q 274 249 265 213 q 285 324 282 286 q 288 381 288 361 q 284 386 285 383 q 281 390 283 389 q 249 406 264 397 q 219 424 235 415 q 193 450 203 433 q 182 467 188 460 q 169 486 176 475 q 164 469 167 476 q 160 453 161 461 q 147 415 153 428 q 135 378 142 401 l 133 378 q 135 359 135 368 q 136 342 135 350 q 138 328 138 335 q 139 314 138 321 q 147 285 143 299 q 156 257 150 271 q 164 235 157 250 q 178 203 171 219 q 194 175 186 188 q 207 163 201 163 z "},"q":{"ha":425,"x_min":17,"x_max":401,"o":"m 189 419 q 171 374 181 403 q 147 321 161 346 q 113 284 133 296 q 64 290 93 272 q 40 316 49 294 q 25 366 31 338 q 18 424 19 394 q 19 474 17 453 q 28 523 24 499 q 36 571 32 547 q 46 606 39 589 q 60 638 53 622 q 73 667 67 653 q 88 694 79 681 q 108 719 94 703 q 136 750 121 735 q 166 776 151 765 q 192 785 181 786 q 210 781 201 782 q 228 778 219 781 q 251 770 239 775 q 274 761 263 765 q 282 749 283 758 q 268 740 278 739 q 253 744 257 743 q 193 732 218 760 q 123 652 144 693 q 95 566 101 611 q 90 472 89 521 q 85 368 90 422 q 88 351 85 354 q 94 351 90 349 q 101 359 97 353 q 107 371 104 365 q 127 403 118 386 q 147 435 136 419 q 178 485 164 458 q 204 539 192 511 q 232 595 218 567 q 258 651 246 624 q 270 681 265 667 q 282 711 275 696 q 301 757 292 735 q 321 801 310 779 q 335 822 328 817 q 364 815 343 826 q 371 811 365 814 q 394 788 388 801 q 397 751 401 775 q 396 733 394 738 q 399 701 401 717 q 399 668 396 685 q 396 653 399 664 q 390 632 393 643 q 385 610 388 621 q 381 596 382 600 q 349 463 360 519 q 332 358 339 406 q 320 269 325 311 q 307 182 315 228 q 290 104 299 140 q 272 35 282 68 q 248 -31 261 1 q 217 -99 235 -64 q 187 -132 204 -122 q 167 -137 169 -142 q 156 -92 156 -115 q 154 -69 154 -78 q 154 -53 154 -61 q 154 -37 154 -46 q 154 -15 154 -29 q 156 -1 154 -8 q 158 13 157 6 q 163 34 161 24 q 165 56 164 44 q 178 143 174 100 q 184 231 182 186 q 187 322 186 275 q 189 419 188 368 z "},"p":{"ha":486,"x_min":29,"x_max":476,"o":"m 35 721 q 53 731 42 729 q 78 728 65 732 q 103 718 90 725 q 122 706 115 711 q 167 656 151 682 q 197 596 183 629 q 217 622 206 611 q 240 640 228 632 q 272 658 256 651 q 306 672 289 665 q 344 671 326 679 q 361 664 353 667 q 376 658 369 661 q 406 634 394 651 q 432 607 417 617 q 458 567 449 590 q 472 517 468 543 q 476 465 476 492 q 475 418 476 439 q 466 375 472 396 q 463 332 460 354 q 442 278 465 304 q 385 240 418 253 q 320 232 353 226 q 274 271 288 238 q 271 269 272 269 q 274 137 274 199 q 276 13 274 75 q 279 -29 279 -8 q 285 -69 279 -50 q 286 -88 288 -79 q 285 -108 285 -97 q 265 -121 278 -115 q 237 -131 251 -126 q 208 -137 222 -135 q 188 -137 194 -139 q 120 -120 150 -131 q 72 -91 90 -110 q 48 -44 53 -72 q 57 24 43 -17 q 58 46 60 35 q 58 68 57 57 q 49 150 54 104 q 40 256 44 196 q 32 393 35 317 q 32 565 29 469 q 33 590 32 578 q 35 615 33 603 l 39 699 q 38 709 39 704 q 35 721 36 714 m 221 526 q 229 503 225 515 q 235 476 233 490 q 240 441 236 458 q 250 407 243 424 q 256 390 254 399 q 254 371 258 381 q 261 351 251 361 q 271 344 267 347 q 279 336 275 340 q 296 323 288 329 q 313 310 304 317 q 336 310 325 299 q 374 361 365 335 q 382 416 382 388 q 379 474 382 444 q 383 535 376 503 q 376 569 383 551 q 358 601 369 588 q 331 624 346 615 q 297 631 315 632 q 252 603 261 624 q 232 556 243 582 q 226 542 229 549 q 221 526 224 536 z "},"r":{"ha":417,"x_min":17,"x_max":381,"o":"m 149 511 q 154 521 151 518 q 158 526 157 524 q 171 553 165 540 q 181 579 176 565 q 206 633 192 604 q 237 685 219 663 q 278 716 254 707 q 331 710 301 725 q 351 692 344 706 q 373 628 369 658 q 374 567 376 597 q 370 508 372 538 q 375 446 368 478 q 360 421 381 428 q 317 428 338 415 q 277 466 293 444 q 242 506 261 488 q 234 519 235 513 q 236 536 233 526 q 249 585 242 558 q 254 632 257 611 q 217 578 231 613 q 194 506 203 544 q 183 428 186 467 q 175 364 179 390 q 172 315 172 340 q 169 267 171 290 q 168 213 165 244 q 176 149 171 182 q 189 86 182 117 q 200 35 196 56 q 197 16 201 22 q 182 3 193 10 q 101 8 143 -22 q 88 19 94 14 q 74 32 81 25 q 40 56 57 46 q 19 73 22 67 q 22 99 17 79 q 22 154 25 126 q 18 210 18 182 q 20 265 19 238 q 22 321 21 293 q 26 386 24 357 q 31 443 28 415 q 37 540 33 492 q 43 638 40 589 q 44 642 43 640 q 44 646 44 643 q 59 656 49 656 q 81 650 69 656 q 103 634 93 644 q 118 614 114 624 q 122 599 121 607 q 125 585 122 592 q 135 549 128 565 q 149 511 142 532 z "},"s":{"ha":378,"x_min":-8,"x_max":313,"o":"m 143 342 q 133 360 139 350 q 122 382 128 371 q 109 403 115 393 q 99 421 103 414 q 83 426 93 428 q 68 422 76 424 q 51 417 60 419 q 17 428 31 410 q 33 432 22 429 q 55 439 44 435 q 72 449 65 443 q 72 463 78 456 q 51 524 57 497 q 64 585 44 550 q 79 603 67 589 q 106 632 92 617 q 133 659 121 647 q 150 674 146 671 q 169 683 161 681 q 189 681 178 685 q 223 667 207 674 q 256 651 239 660 q 263 649 257 651 q 210 549 244 596 q 139 467 175 503 q 133 457 133 460 q 136 447 132 454 q 185 385 156 414 q 244 328 215 357 q 292 266 272 299 q 313 192 313 233 q 301 141 310 167 q 278 94 293 115 q 243 56 264 72 q 194 35 222 40 q 164 33 179 31 q 135 43 149 36 q 103 63 118 53 q 74 86 88 72 q 33 123 54 106 q -7 160 13 140 q 3 194 -8 176 q 19 220 11 207 q 33 247 26 233 q 41 263 38 254 q 49 281 44 272 q 61 290 58 293 q 63 276 64 286 q 58 253 61 265 q 54 238 56 240 q 49 203 49 222 q 68 182 49 185 q 108 185 88 174 q 142 219 128 196 q 158 274 156 242 q 143 342 160 306 m 107 483 q 133 506 117 488 q 165 545 149 524 q 192 587 181 567 q 207 617 204 607 q 197 614 203 617 q 174 602 185 608 q 156 585 164 596 q 130 555 143 569 q 110 521 117 540 q 107 483 100 499 z "},"t":{"ha":410,"x_min":-153,"x_max":408,"o":"m 29 754 q 29 794 29 772 q 25 832 29 815 q 18 835 24 836 q 8 833 13 835 q -53 816 -24 826 q -112 808 -83 806 q -124 813 -119 808 q -137 829 -131 821 q -153 847 -144 838 q -137 852 -144 850 q -124 857 -131 854 q -11 889 -67 879 q 7 896 0 892 q 14 911 14 900 q 9 992 11 951 q -11 1067 7 1033 q 5 1072 -3 1074 q 19 1067 13 1071 q 88 1013 57 1044 q 133 942 118 981 q 138 932 136 933 q 150 933 140 931 q 206 948 182 940 q 263 964 231 956 q 290 964 278 967 q 317 958 303 961 q 333 952 325 956 q 349 946 342 949 q 356 941 353 943 q 360 932 360 939 q 354 925 358 926 q 346 922 350 924 q 251 903 293 911 q 158 883 210 894 q 142 876 147 881 q 139 860 138 872 q 139 813 139 842 q 140 765 139 783 q 150 640 142 708 q 171 501 158 571 q 199 367 183 432 q 230 252 214 301 q 262 174 246 203 q 290 147 278 144 q 304 150 299 144 q 323 172 311 156 q 348 203 335 188 q 374 229 361 219 q 396 231 386 239 q 404 222 400 226 q 406 210 408 217 q 397 188 401 199 q 386 167 393 176 q 358 130 372 147 q 328 94 343 113 q 206 30 269 22 q 93 114 143 38 q 85 129 89 121 q 79 144 82 138 q 38 442 47 286 q 29 754 29 597 z "},"u":{"ha":456,"x_min":-3,"x_max":435,"o":"m 407 629 q 419 613 415 625 q 430 549 429 581 q 418 489 431 517 q 398 308 400 397 q 419 129 396 219 q 425 94 421 111 q 432 61 429 78 q 417 36 435 40 q 356 51 386 39 q 306 83 325 64 q 283 103 294 93 q 260 124 271 114 q 243 161 239 139 q 243 178 244 169 q 242 196 242 188 q 238 227 239 211 q 235 260 238 243 q 204 230 224 240 q 163 217 185 219 q 117 220 140 215 q 74 235 94 225 q 6 328 11 261 q 21 464 -3 396 q 41 522 31 493 q 61 581 51 551 q 65 592 64 586 q 64 604 67 597 q 46 603 57 604 q 35 610 35 601 q 38 622 32 617 q 53 629 44 626 q 72 633 63 632 q 85 632 81 633 q 106 626 96 629 q 128 621 117 624 q 168 568 164 608 q 170 513 171 540 q 161 458 169 486 q 155 432 157 446 q 151 404 153 418 q 145 339 146 364 q 144 290 144 314 q 185 281 172 279 q 212 316 199 283 q 245 419 225 349 q 307 615 265 489 q 326 641 314 633 q 353 649 339 649 q 381 643 367 649 q 407 629 396 638 z "},"v":{"ha":324,"x_min":-43,"x_max":442,"o":"m -10 567 q 13 563 0 563 q 69 553 42 561 q 124 529 97 544 q 139 517 132 525 q 153 501 146 510 q 176 456 168 475 q 188 417 183 436 q 194 378 192 399 q 203 332 196 358 q 213 304 207 317 q 236 385 225 344 q 253 468 247 426 q 263 517 256 492 q 278 563 269 542 q 290 589 279 567 q 313 638 300 611 q 336 685 325 664 q 350 711 347 707 q 366 738 357 725 q 383 764 375 750 q 397 778 389 774 q 417 778 406 782 l 428 778 q 438 771 435 776 q 438 758 442 765 q 424 738 431 747 q 408 717 417 728 q 382 651 397 690 q 351 568 367 611 q 324 486 336 525 q 307 422 311 447 q 297 345 301 390 q 285 253 292 300 q 268 163 278 207 q 242 90 258 119 q 203 49 226 60 q 149 57 181 38 q 104 86 125 71 q 67 122 83 101 q 52 162 58 135 q 42 218 46 189 q 36 275 38 247 q 35 318 35 303 q 28 404 35 363 q 14 489 21 446 q 10 503 11 496 q 7 518 10 511 q -7 535 4 531 q -30 544 -21 536 q -41 558 -39 551 q -36 567 -43 564 q -10 567 -29 571 z "},"w":{"ha":556,"x_min":-17,"x_max":511,"o":"m 146 393 q 148 414 147 404 q 151 435 149 424 q 156 469 154 451 q 161 503 158 486 q 178 524 164 518 q 210 526 192 531 q 228 522 221 524 q 264 508 244 521 q 276 499 271 504 q 285 486 281 493 q 308 453 296 469 q 332 419 319 436 q 347 400 339 408 q 361 381 354 392 q 371 366 367 374 q 379 351 375 358 q 393 329 385 339 q 410 310 401 319 q 420 298 415 303 q 429 286 425 293 q 449 263 440 275 q 453 264 450 264 q 456 285 456 278 q 428 470 446 382 q 392 646 411 558 q 375 699 386 669 q 367 765 364 732 q 368 775 367 772 q 376 781 371 781 q 380 778 378 779 q 382 775 382 776 l 419 671 q 428 644 424 657 q 436 618 432 631 q 450 568 443 593 q 464 518 457 543 q 470 488 468 503 q 475 457 472 472 q 478 444 476 450 q 481 431 479 438 q 490 376 486 403 q 500 324 494 350 q 501 315 500 319 q 501 308 501 311 q 508 240 500 276 q 508 219 511 231 q 504 206 506 213 q 506 190 503 199 q 489 154 511 168 q 476 142 481 149 q 467 125 471 135 q 453 106 463 114 q 431 99 444 99 q 406 99 418 99 q 382 106 393 100 q 368 110 374 110 q 358 124 363 118 q 351 136 354 129 q 328 171 340 154 q 306 206 317 188 q 279 252 292 233 q 255 286 267 271 q 231 317 243 301 q 207 354 219 333 q 206 319 204 336 q 211 285 208 303 q 208 246 215 267 q 205 224 206 235 q 204 203 204 214 l 204 146 q 206 122 204 135 q 208 99 207 110 q 199 86 208 90 q 181 80 190 81 q 163 81 172 79 q 118 92 135 90 q 90 96 101 93 q 68 108 78 99 q 44 146 58 118 q 22 197 26 171 q 14 239 18 218 q 7 279 10 260 q 8 308 4 296 q 10 368 15 339 q -4 425 4 397 q -12 447 -12 436 q -12 469 -12 458 q -15 490 -14 481 q -15 510 -15 499 q -17 551 -17 531 q -17 593 -17 571 q 6 601 -6 600 q 28 601 17 601 q 46 592 40 600 q 57 576 51 583 q 64 561 61 569 q 69 544 67 553 q 83 513 78 529 q 100 483 89 497 q 111 465 107 475 q 118 444 115 456 q 128 418 122 431 q 140 393 135 406 l 146 393 z "},"x":{"ha":579,"x_min":-4,"x_max":543,"o":"m 256 201 q 250 194 253 197 q 244 189 247 192 q 218 156 232 178 q 190 106 204 133 q 159 52 175 79 q 126 5 143 25 q 91 -24 110 -15 q 53 -21 72 -32 q 30 10 35 -11 q 29 60 25 32 q 44 121 33 89 q 69 183 56 153 q 97 240 83 214 q 119 282 110 265 q 140 321 131 300 q 160 361 150 342 q 13 511 56 425 q -3 581 -4 546 q 15 596 0 599 q 25 594 22 596 q 89 571 65 586 q 131 538 113 556 q 169 503 150 521 q 218 472 188 486 l 222 476 q 251 531 232 492 q 292 616 271 571 q 333 701 314 661 q 363 756 353 740 q 368 763 365 761 q 367 782 372 774 q 375 797 358 796 q 400 797 388 799 q 447 786 424 792 q 494 774 471 781 q 522 756 513 768 q 539 729 532 744 q 541 718 542 724 q 540 707 540 713 q 534 675 538 692 q 528 643 531 658 q 525 631 528 639 q 509 605 517 618 q 494 579 501 592 q 486 568 489 571 q 460 528 482 558 q 412 463 438 497 q 364 397 386 428 q 336 357 342 367 q 338 340 332 349 q 440 215 386 272 q 539 94 493 157 q 542 84 543 89 q 533 76 540 79 q 516 73 525 74 q 497 71 507 72 q 471 66 483 68 q 444 61 458 64 q 396 69 421 56 q 324 135 356 97 q 256 201 293 172 z "},"y":{"ha":401,"x_min":-7,"x_max":389,"o":"m 174 360 q 222 523 189 439 q 283 682 254 607 q 289 699 286 690 q 294 715 292 707 q 303 732 299 729 q 319 735 308 735 q 352 729 336 735 q 379 708 368 724 q 386 681 389 697 q 380 641 382 661 q 371 601 378 621 q 349 501 357 558 q 332 381 340 444 q 314 254 324 318 q 288 134 304 190 q 247 33 272 78 q 185 -36 222 -11 q 169 -43 178 -40 q 154 -49 161 -46 q 97 -58 124 -60 q 88 -56 93 -57 q 79 -53 83 -56 q 72 -46 72 -50 q 78 -35 72 -37 q 116 -8 101 -21 q 140 21 131 6 q 153 56 149 36 q 161 104 158 76 q 166 166 164 131 q 175 225 168 201 q 180 247 178 236 q 185 268 182 257 q 119 291 146 272 q 76 336 93 310 q 49 396 60 363 q 33 465 39 429 q 22 534 26 500 q 10 597 17 568 q 4 652 7 625 q -1 707 1 679 q -2 713 -1 710 q -3 718 -3 715 q 8 733 -7 733 q 27 730 18 732 q 46 726 36 728 q 49 725 46 725 q 81 702 71 718 q 97 664 92 686 q 114 599 103 633 q 123 531 121 564 q 129 466 125 497 q 143 408 133 435 q 174 360 153 381 z "},"z":{"ha":486,"x_min":-11,"x_max":526,"o":"m 431 428 q 471 474 450 451 q 510 525 492 496 q 519 520 526 535 q 496 482 513 506 q 460 433 479 458 q 435 397 442 408 q 426 367 426 382 l 426 243 q 430 138 426 190 q 431 34 433 86 q 415 -69 428 -18 q 369 -169 403 -119 q 353 -182 365 -178 q 312 -188 329 -186 q 278 -190 294 -190 q 244 -189 263 -190 q 203 -185 226 -187 q 181 -168 189 -183 q 158 -79 157 -124 q 165 -21 158 -53 q 198 71 176 28 q 243 157 219 114 q 274 205 258 181 q 304 253 289 229 q 315 282 314 265 q 315 319 315 296 q 315 367 315 342 q 314 420 315 393 q 311 472 313 447 q 272 429 292 449 q 226 380 253 410 q 167 322 199 350 q 104 275 136 294 q 42 256 72 256 q 21 260 31 256 q 3 271 11 264 q 1 309 -11 279 q 32 373 13 339 q 72 437 51 407 q 99 475 93 467 q 171 594 132 536 q 254 718 210 653 q 265 731 260 725 q 272 746 269 738 q 188 725 232 729 q 100 715 144 721 q 86 621 104 665 q 80 615 85 617 q 69 615 75 614 q 58 619 63 615 q 53 629 53 622 q 53 635 53 635 l 61 685 q 61 718 63 701 q 58 739 60 729 q 54 760 57 749 q 63 764 58 764 q 131 762 94 763 q 205 767 168 761 q 276 788 242 772 q 336 832 310 803 q 354 843 343 842 q 378 842 365 844 q 404 835 392 840 q 426 829 417 831 q 400 785 421 819 q 351 703 379 750 q 292 606 324 657 q 235 509 261 554 q 193 432 210 464 q 178 394 176 400 q 241 455 211 419 q 301 524 271 490 q 342 561 324 546 q 389 594 361 576 q 405 585 399 600 q 415 547 411 569 q 422 504 419 525 q 425 478 425 483 q 428 454 428 467 q 431 428 428 442 m 310 163 q 310 185 310 174 q 311 210 310 197 q 301 200 306 207 q 287 174 294 186 q 272 146 279 161 q 224 31 244 89 q 214 -97 204 -26 q 219 -114 217 -106 q 229 -129 221 -122 q 267 -87 253 -111 q 290 -28 282 -62 q 302 53 299 7 q 310 163 306 100 z "},"C":{"ha":479,"x_min":19,"x_max":425,"o":"m 392 790 q 371 771 383 774 q 346 757 358 768 q 331 757 339 750 q 332 774 324 765 q 331 789 339 785 q 313 790 322 793 q 285 785 299 788 q 260 775 272 782 q 206 642 219 717 q 199 489 193 568 q 224 331 204 410 q 267 188 243 253 q 277 174 272 176 q 294 178 282 172 q 360 238 338 197 q 376 272 368 254 q 392 308 385 289 q 417 292 410 310 q 424 251 425 275 q 414 201 422 226 q 393 160 406 175 q 348 111 374 132 q 286 82 322 90 q 161 96 211 75 q 81 156 111 117 q 38 250 51 196 q 22 363 24 304 q 25 481 19 422 q 39 592 31 540 q 53 663 44 628 q 78 731 61 699 q 93 758 85 746 q 111 783 101 771 q 127 808 118 796 q 146 833 136 821 q 178 860 160 853 q 221 867 197 868 q 244 865 232 864 q 267 864 256 865 q 310 862 283 863 q 358 854 336 861 q 392 833 381 847 q 392 790 404 818 z "},"!":{"ha":322,"x_min":33,"x_max":289,"o":"m 289 821 q 284 759 286 790 q 279 696 282 728 q 234 527 261 600 q 183 394 207 454 q 144 281 160 333 q 136 175 129 229 q 119 135 138 150 q 82 121 101 121 q 56 147 58 121 q 53 168 56 158 q 49 188 51 178 q 47 247 49 221 q 45 301 46 274 q 45 364 44 329 q 50 450 46 399 q 57 531 53 490 q 63 613 61 572 q 79 753 65 683 q 108 890 93 822 q 125 940 113 918 q 132 947 126 944 q 142 950 138 950 q 165 950 151 951 q 192 944 178 949 q 219 933 207 939 q 240 921 232 926 q 263 906 246 915 q 283 886 281 896 q 286 853 286 869 q 289 821 286 838 m 33 14 q 52 56 35 39 q 93 71 69 72 q 108 65 99 71 q 125 50 117 58 q 139 33 133 42 q 144 19 144 25 q 125 -24 142 -11 q 88 -39 108 -36 q 51 -22 68 -40 q 33 14 33 -3 z "},"\"":{"ha":279,"x_min":31,"x_max":244,"o":"m 78 689 q 67 690 72 689 q 56 690 61 690 q 36 713 31 690 q 43 739 39 726 q 51 764 47 751 q 60 789 54 772 q 72 822 65 806 q 84 851 78 839 q 96 861 90 863 q 140 833 125 854 q 146 818 146 822 q 136 771 140 794 q 125 728 132 747 q 107 699 118 710 q 78 689 96 688 m 182 796 q 187 818 185 807 q 192 840 189 829 q 199 851 194 849 q 211 851 204 853 q 243 819 239 847 q 243 794 244 807 q 242 768 242 782 q 238 732 240 753 q 228 694 235 711 q 210 670 222 678 q 178 671 199 663 q 160 695 163 679 q 161 729 157 711 q 172 765 165 747 q 182 796 179 783 z "},"#":{"ha":751,"x_min":50,"x_max":708,"o":"m 304 143 q 314 193 310 169 q 324 240 318 217 q 324 263 326 258 q 310 269 321 267 q 290 274 299 272 q 272 274 281 276 q 257 264 261 274 q 225 215 246 231 q 179 189 204 199 q 149 192 160 181 q 138 226 139 203 q 140 239 138 236 q 151 263 151 249 q 153 290 150 278 q 148 303 153 296 q 139 313 143 310 q 114 333 126 324 q 90 353 101 342 q 71 374 79 364 q 56 400 63 385 q 52 415 54 406 q 50 432 50 424 q 52 447 50 440 q 61 453 54 453 q 91 438 78 446 q 117 422 104 429 q 142 408 129 414 q 175 401 156 403 q 182 403 178 400 q 188 411 186 407 q 195 440 192 425 q 203 472 199 456 q 190 496 204 490 q 162 515 175 506 q 136 536 149 525 q 107 597 107 557 q 108 616 108 607 q 107 636 107 625 q 117 646 107 650 q 144 628 131 642 q 170 603 157 615 q 197 583 183 590 q 228 585 211 576 q 239 603 236 593 q 282 744 261 672 q 283 750 283 747 q 285 757 283 753 q 296 785 290 779 q 318 785 301 790 q 349 778 335 778 q 369 750 369 771 q 368 668 372 706 q 357 590 364 631 q 368 563 353 567 q 385 558 376 561 q 404 551 394 554 q 415 552 411 550 q 421 565 419 554 q 426 588 422 576 q 432 608 429 599 q 472 703 450 656 q 501 733 483 726 q 539 725 519 740 q 556 707 554 715 q 554 679 558 699 q 541 611 547 646 q 528 542 535 576 q 534 522 525 529 q 557 511 543 515 q 587 504 571 507 q 613 497 603 501 q 650 487 638 492 q 670 474 663 482 q 683 453 678 465 q 700 422 689 442 q 703 392 708 406 q 682 378 697 379 q 642 382 664 374 q 603 393 621 390 q 556 397 579 399 q 510 394 532 394 q 489 378 493 394 q 479 342 478 349 q 503 325 481 335 q 531 314 517 318 q 560 304 544 310 q 577 285 568 301 q 591 250 586 268 q 592 220 596 232 q 572 215 589 208 q 533 228 553 221 q 496 243 514 236 q 478 244 488 244 q 461 244 469 244 q 452 239 457 243 q 446 232 447 235 q 439 205 443 219 q 433 175 435 190 q 424 146 431 157 q 401 131 417 135 q 379 111 389 129 q 367 97 375 103 q 349 90 358 92 q 330 92 339 89 q 315 103 321 94 q 309 122 311 111 q 304 143 307 133 m 381 422 q 374 426 381 424 q 358 433 367 429 q 343 441 350 438 q 335 446 336 444 q 310 441 317 457 q 301 400 304 425 q 304 390 301 396 q 310 382 307 385 q 326 377 318 379 q 344 372 335 375 q 371 383 360 368 q 381 422 382 397 z "},"$":{"ha":449,"x_min":58,"x_max":414,"o":"m 74 625 q 99 663 83 646 q 133 693 114 679 q 145 701 139 699 q 157 708 151 704 q 165 726 163 714 q 165 735 167 731 q 164 746 164 740 q 159 801 161 774 q 156 856 157 828 q 156 863 154 858 q 160 867 157 867 q 169 867 164 868 q 178 864 175 867 q 203 836 192 851 q 218 801 214 821 q 225 768 221 785 q 233 735 229 751 q 238 728 235 732 q 243 724 240 724 q 322 726 289 729 q 376 713 356 722 q 406 691 397 704 q 410 664 414 678 q 398 645 407 653 q 378 632 389 638 q 359 624 368 626 q 349 621 350 621 q 324 625 332 621 q 308 633 317 629 q 287 640 300 638 q 244 640 274 643 q 202 624 221 633 q 167 597 183 615 q 158 567 156 586 q 164 536 160 549 q 194 506 168 522 q 253 471 219 490 q 321 427 286 451 q 376 374 356 403 q 384 358 382 367 q 389 343 386 350 q 367 240 394 285 q 300 168 340 194 q 294 165 299 167 q 288 161 290 163 q 268 146 271 153 q 269 122 265 139 q 281 76 276 99 q 289 29 285 53 l 289 28 q 290 -1 293 4 q 268 -15 288 -6 q 243 -8 256 -21 q 210 56 218 17 q 201 131 203 96 q 185 161 201 154 q 150 179 168 168 q 117 215 133 193 q 92 263 101 238 q 83 311 83 288 q 96 350 83 335 q 147 373 118 375 q 204 339 176 371 q 234 306 225 314 q 260 307 243 299 q 275 333 276 315 q 258 372 274 351 q 215 412 242 393 q 154 440 188 431 q 126 453 140 444 q 101 473 113 463 q 81 494 89 483 q 71 508 72 504 q 62 542 65 528 q 58 570 58 557 q 62 596 58 583 q 74 625 65 608 z "},"%":{"ha":599,"x_min":67,"x_max":532,"o":"m 122 58 q 109 63 115 61 q 96 68 103 65 q 83 101 76 78 q 167 272 125 185 q 256 444 210 358 q 351 610 301 529 q 457 764 401 692 q 481 774 467 774 q 504 765 494 774 q 511 760 507 763 q 518 756 515 758 q 521 732 532 744 q 326 419 415 579 q 154 94 236 260 q 151 87 153 90 q 149 79 150 83 q 140 63 146 67 q 122 58 135 60 m 67 493 q 72 524 69 510 q 79 554 75 539 q 86 583 82 569 q 97 611 90 597 q 126 653 108 633 q 144 696 144 674 q 156 726 143 718 q 185 740 169 733 q 194 740 189 743 q 240 726 218 733 q 285 711 261 718 q 301 675 310 700 q 291 605 301 642 q 263 534 281 568 q 223 470 246 500 q 174 421 200 440 q 119 419 146 410 q 81 449 93 429 q 72 471 74 460 q 67 493 69 482 m 154 490 q 215 576 197 542 q 233 627 232 610 q 222 644 233 644 q 195 630 210 644 q 167 585 181 615 q 153 511 154 554 q 153 501 153 506 q 154 490 154 496 m 301 326 q 317 349 308 338 q 332 372 325 361 q 342 390 338 381 q 353 406 346 399 q 392 449 371 428 q 425 461 406 463 q 457 454 444 461 q 485 436 469 447 q 490 429 490 433 q 502 402 497 415 q 513 374 507 389 q 521 325 524 349 q 508 281 518 301 q 482 240 497 260 q 451 200 467 219 q 436 183 444 192 q 419 168 428 175 q 349 176 376 164 q 307 210 321 188 q 292 264 293 233 q 301 326 290 294 m 378 232 q 398 258 389 244 q 417 285 407 271 q 429 306 424 296 q 442 328 435 317 q 442 345 446 335 q 429 361 439 356 q 415 362 419 367 q 406 351 410 357 q 385 321 397 342 q 364 280 372 300 q 357 245 356 260 q 378 232 358 231 z "},"&":{"ha":729,"x_min":35,"x_max":674,"o":"m 663 603 q 633 559 650 586 q 598 505 617 532 q 562 456 579 478 q 531 426 544 435 q 498 405 521 421 q 447 369 475 389 q 389 329 418 350 q 338 292 360 308 q 360 264 350 276 q 374 244 371 251 q 389 226 376 239 q 417 199 401 214 q 451 224 436 213 q 471 243 465 236 q 489 258 476 251 q 514 268 501 265 q 538 269 526 271 q 554 260 550 268 q 554 232 561 244 q 546 222 550 226 q 518 202 542 219 q 467 158 494 185 q 521 128 500 132 q 544 116 535 125 q 560 97 554 107 q 567 77 565 86 q 567 65 568 68 q 551 50 564 61 q 519 42 539 39 q 486 64 503 53 q 453 85 471 74 q 418 107 436 96 q 410 97 413 101 q 372 63 392 74 q 336 49 353 53 q 308 45 319 44 q 293 44 296 46 q 269 42 290 43 q 222 42 247 42 q 172 47 196 43 q 140 58 149 50 q 114 85 132 67 q 78 128 96 104 q 47 176 60 151 q 38 222 35 201 q 50 261 40 239 q 74 307 60 283 q 106 353 88 331 q 143 393 124 375 q 120 423 129 411 q 106 440 111 435 q 88 485 94 453 q 78 554 81 517 q 80 627 76 592 q 92 681 83 663 q 117 724 100 699 q 163 772 135 749 q 231 813 192 796 q 321 832 269 829 q 426 829 372 835 q 524 813 479 824 q 597 788 568 803 q 629 757 626 774 q 641 721 631 740 q 660 681 651 701 q 671 640 668 660 q 663 603 674 619 m 306 139 q 338 151 319 142 q 306 186 326 161 q 258 243 285 211 q 230 222 242 233 q 225 197 218 211 q 256 153 236 174 q 306 139 276 132 m 479 706 q 465 724 485 718 q 413 731 446 731 q 342 726 381 732 q 268 707 303 719 q 209 674 233 694 q 182 625 185 653 q 190 526 176 569 q 224 449 204 482 q 297 510 256 472 q 377 586 339 547 q 444 658 415 625 q 479 706 472 690 z "},"'":{"ha":224,"x_min":53,"x_max":168,"o":"m 100 689 q 89 690 94 689 q 78 690 83 690 q 58 713 53 690 q 65 739 61 726 q 74 764 69 751 q 82 789 76 772 q 94 822 88 806 q 106 851 100 839 q 118 861 113 863 q 163 833 147 854 q 168 818 168 822 q 158 771 163 794 q 147 728 154 747 q 129 699 140 710 q 100 689 118 688 z "},"(":{"ha":443,"x_min":61,"x_max":338,"o":"m 76 482 q 83 536 79 510 q 93 589 86 563 q 110 638 97 607 q 140 703 124 669 q 172 767 156 738 q 199 813 188 797 q 227 849 213 832 q 261 876 242 865 q 307 879 285 889 q 313 863 321 875 q 292 835 301 849 q 272 807 282 822 q 190 600 221 707 q 157 387 160 493 q 183 178 154 281 q 279 -17 213 75 q 332 -74 304 -46 q 336 -81 335 -76 q 335 -89 338 -86 q 324 -101 332 -94 q 306 -112 317 -107 q 286 -119 296 -117 q 271 -119 276 -122 q 248 -107 260 -114 q 228 -92 236 -100 q 183 -38 203 -67 q 146 21 164 -10 q 113 87 126 53 q 88 156 100 121 q 65 319 61 236 q 76 482 68 403 z "},")":{"ha":483,"x_min":88,"x_max":364,"o":"m 349 279 q 342 225 346 251 q 332 172 339 199 q 315 123 328 154 q 285 58 301 92 q 253 -6 269 24 q 226 -51 238 -36 q 198 -87 213 -71 q 164 -115 183 -104 q 118 -118 140 -128 q 113 -101 104 -114 q 133 -74 124 -87 q 153 -46 143 -61 q 235 161 204 54 q 268 374 265 268 q 242 583 271 481 q 146 778 213 686 q 93 835 121 807 q 89 842 90 838 q 90 850 88 847 q 100 862 92 856 q 119 873 108 868 q 139 880 129 878 q 154 881 149 882 q 177 868 165 875 q 197 853 189 861 q 242 799 222 828 q 279 740 261 771 q 312 674 299 708 q 338 606 325 640 q 360 442 364 525 q 349 279 357 358 z "},"*":{"ha":575,"x_min":90,"x_max":472,"o":"m 407 535 q 450 517 429 529 q 472 488 471 506 q 467 475 472 479 q 456 468 463 471 q 443 463 450 465 q 432 456 436 461 q 399 464 428 453 q 331 493 371 475 q 331 460 331 474 q 332 444 332 447 q 333 433 332 440 q 331 417 333 425 q 324 403 329 410 q 306 397 318 397 q 287 405 296 397 q 271 425 278 413 q 259 452 264 438 q 253 479 254 467 q 178 424 210 446 q 138 411 146 403 q 119 456 115 431 q 138 496 122 482 q 162 515 143 501 q 208 547 181 528 q 159 569 181 560 q 131 579 138 578 q 109 592 119 581 q 94 619 99 604 q 94 649 90 633 q 115 674 99 664 q 167 665 128 682 q 251 621 207 649 q 251 659 251 643 q 250 681 251 675 q 251 698 247 688 q 259 717 254 708 q 271 731 264 726 q 282 735 278 736 q 322 699 307 725 q 332 653 336 672 q 331 632 331 649 q 351 647 342 640 q 364 657 360 653 q 386 675 372 664 q 414 697 400 686 q 447 724 429 710 q 463 701 463 717 q 464 676 464 686 q 455 665 464 675 q 431 640 446 656 q 394 604 415 624 q 350 564 374 585 q 387 544 372 551 q 407 535 401 536 z "},"+":{"ha":576,"x_min":44,"x_max":535,"o":"m 460 343 q 433 340 451 342 q 395 335 415 338 q 357 331 375 333 q 331 328 339 329 q 313 292 307 324 q 314 272 313 285 q 317 245 315 260 q 321 217 319 231 q 322 199 322 204 q 326 169 325 183 q 329 142 326 156 q 328 124 332 129 q 313 122 325 119 q 299 126 306 124 q 286 132 293 129 q 265 140 275 136 q 246 151 256 144 q 217 199 219 167 q 215 217 217 204 q 213 244 214 231 q 210 271 211 258 q 208 290 208 283 q 196 304 208 304 q 181 305 192 304 q 158 307 169 306 q 135 309 146 308 q 119 310 124 310 q 101 312 110 311 q 82 315 92 313 q 69 324 74 318 q 52 352 60 338 q 44 385 44 367 q 49 390 44 388 q 57 394 54 393 q 72 395 64 396 q 86 396 79 394 q 108 398 94 397 q 137 400 122 399 q 165 402 151 401 q 188 404 179 403 q 206 425 208 408 q 204 456 206 438 q 201 496 203 475 q 197 536 199 517 q 196 568 196 556 q 194 569 196 569 q 192 586 194 575 q 203 588 199 586 q 215 589 208 589 q 257 553 246 582 q 263 532 260 546 q 269 502 265 518 q 274 472 272 486 q 279 451 276 458 q 290 435 285 438 q 308 433 294 432 q 340 436 319 435 q 384 440 361 438 q 428 443 407 442 q 460 444 449 444 q 494 425 482 444 q 512 402 503 414 q 528 379 521 390 q 533 365 531 372 q 532 353 535 358 q 524 346 531 349 q 511 342 518 343 q 486 341 499 340 q 460 342 474 342 l 460 343 z "},",":{"ha":215,"x_min":38,"x_max":160,"o":"m 160 51 q 158 46 160 49 q 134 -1 147 22 q 97 -40 121 -25 q 87 -44 93 -43 q 76 -43 81 -46 q 69 -33 69 -40 q 71 -19 68 -26 q 76 -4 74 -12 q 82 11 79 4 q 75 31 88 22 l 63 39 q 43 82 38 54 q 61 99 47 99 q 118 96 88 100 q 145 78 131 94 q 160 51 160 63 z "},"-":{"ha":525,"x_min":61,"x_max":504,"o":"m 379 481 q 406 474 394 481 q 426 458 417 467 q 456 426 442 443 q 485 393 471 410 q 472 363 504 369 q 412 357 442 356 q 351 364 382 358 q 333 368 342 367 q 314 369 324 369 q 300 367 307 369 q 286 363 293 364 q 209 358 247 361 q 133 363 171 356 q 111 367 122 365 q 90 372 100 368 q 72 391 78 379 q 64 415 67 403 q 67 426 61 424 q 79 429 74 428 q 103 433 92 432 q 128 438 115 435 q 158 444 143 440 q 188 450 172 447 q 239 458 214 454 q 290 465 264 461 q 326 472 308 468 q 364 479 344 475 q 371 480 367 479 q 379 481 375 481 z "},".":{"ha":182,"x_min":33,"x_max":144,"o":"m 33 19 q 52 61 35 44 q 93 76 69 78 q 108 70 99 76 q 125 56 117 64 q 139 39 133 47 q 144 25 144 31 q 125 -18 142 -6 q 88 -33 108 -31 q 51 -16 68 -35 q 33 19 33 3 z "},"/":{"ha":408,"x_min":14,"x_max":546,"o":"m 35 -35 q 38 -22 35 -31 q 129 181 81 64 q 227 422 178 299 q 325 663 276 546 q 419 865 374 781 q 431 889 425 878 q 443 911 436 900 q 458 919 446 917 q 486 922 471 921 q 515 922 501 922 q 536 919 529 921 q 526 859 546 915 q 470 715 507 803 q 385 518 433 628 q 287 296 336 408 q 193 78 238 183 q 119 -104 149 -26 q 99 -116 117 -112 q 63 -118 82 -119 q 29 -111 44 -117 q 17 -96 14 -106 q 18 -75 18 -89 q 24 -55 19 -64 q 35 -35 28 -46 z "},":":{"ha":197,"x_min":46,"x_max":146,"o":"m 46 167 q 63 205 47 190 q 99 218 79 219 q 113 213 104 218 q 128 199 121 207 q 141 184 136 192 q 146 171 146 176 q 128 133 143 144 q 94 119 114 121 q 62 135 78 118 q 46 167 46 151 m 46 388 q 63 426 47 411 q 99 439 79 440 q 113 433 104 439 q 128 420 121 428 q 141 405 136 413 q 146 392 146 397 q 128 353 143 365 q 94 340 114 342 q 62 356 78 339 q 46 388 46 372 z "},";":{"ha":206,"x_min":38,"x_max":150,"o":"m 42 372 q 60 414 43 397 q 100 428 76 431 q 115 422 106 428 q 131 408 124 415 q 144 392 139 400 q 150 378 150 383 q 131 335 147 349 q 94 321 115 322 q 58 338 75 319 q 42 372 42 357 m 97 67 q 87 63 93 64 q 76 64 81 61 q 69 74 69 67 q 71 88 68 81 q 76 103 74 94 q 82 118 79 111 q 75 138 88 129 l 63 146 q 43 189 38 161 q 61 206 47 206 q 118 203 88 207 q 137 183 135 201 q 133 140 139 164 q 117 94 128 117 q 97 67 107 72 z "},"<":{"ha":372,"x_min":40,"x_max":324,"o":"m 278 103 q 236 107 251 92 q 207 138 225 122 q 160 180 183 158 q 113 222 136 201 q 83 251 97 236 q 46 269 69 265 q 42 274 44 269 q 42 279 40 278 q 51 298 49 289 q 56 318 54 307 q 58 322 56 321 q 61 325 60 324 q 103 358 82 342 q 146 392 125 375 q 177 419 156 399 q 222 462 199 439 q 265 506 244 485 q 296 533 286 526 q 310 536 304 539 q 313 531 313 535 q 314 524 313 526 q 314 515 317 518 q 311 482 314 497 q 292 456 308 467 q 270 435 286 451 q 236 398 254 418 q 202 360 218 378 q 182 339 186 343 q 174 330 176 335 q 179 318 172 325 q 204 297 192 307 q 229 275 217 286 q 252 253 240 264 q 275 229 264 242 q 301 199 289 215 q 318 167 313 183 q 314 131 324 150 q 296 113 307 118 q 278 103 285 107 z "},"=":{"ha":547,"x_min":79,"x_max":513,"o":"m 397 596 q 424 589 413 596 q 444 574 435 582 q 468 552 460 558 q 490 529 476 546 q 493 513 500 518 q 471 506 486 508 q 430 499 449 500 q 393 500 411 499 q 357 503 375 501 q 319 506 339 506 q 229 497 274 506 q 139 499 185 489 q 117 503 128 501 q 96 508 106 504 q 84 517 83 515 q 82 531 85 518 q 85 541 79 539 q 97 544 92 543 q 122 549 110 547 q 146 553 133 550 q 176 559 161 556 q 206 565 190 563 q 257 573 232 569 q 308 581 282 576 q 344 587 326 583 q 382 594 363 590 q 389 595 385 594 q 397 596 393 596 m 101 431 q 99 447 92 442 q 121 454 106 451 q 199 459 164 464 q 272 454 233 454 q 363 463 318 454 q 453 461 407 471 q 475 457 464 458 q 496 451 486 456 q 508 443 508 444 q 510 429 507 442 q 506 419 513 421 q 494 415 500 417 q 470 411 482 413 q 446 407 458 410 q 416 401 431 404 q 386 394 401 397 q 250 378 304 375 q 163 393 196 382 q 116 417 131 404 q 101 431 101 431 z "},">":{"ha":371,"x_min":43,"x_max":326,"o":"m 89 103 q 71 113 82 107 q 53 131 60 118 q 49 167 43 150 q 65 199 54 183 q 92 229 78 215 q 115 253 103 242 q 138 275 126 264 q 163 297 150 286 q 188 318 175 307 q 192 330 194 325 q 185 339 190 335 q 165 360 181 343 q 131 398 149 378 q 97 435 113 418 q 75 456 81 451 q 56 482 58 467 q 53 515 53 497 q 53 524 50 518 q 54 531 54 526 q 57 536 54 535 q 71 533 63 539 q 101 506 81 526 q 145 462 122 485 q 189 419 168 439 q 221 392 210 399 q 263 358 242 375 q 306 325 285 342 q 309 322 307 324 q 311 318 311 321 q 315 298 313 307 q 325 279 318 289 q 324 274 326 278 q 321 269 322 269 q 283 251 297 265 q 254 222 269 236 q 207 180 231 201 q 160 138 183 158 q 131 107 142 122 q 89 103 115 92 z "},"?":{"ha":601,"x_min":49,"x_max":525,"o":"m 49 240 q 51 298 49 258 q 60 383 54 338 q 74 470 65 428 q 93 538 82 513 q 153 604 110 581 q 174 610 161 608 q 199 617 188 613 q 280 660 240 638 q 353 715 319 682 q 383 749 369 732 q 400 789 397 765 q 397 806 400 796 q 390 819 394 815 q 328 846 368 843 q 257 838 288 849 q 231 827 251 835 q 188 810 211 819 q 146 794 165 801 q 121 786 126 788 q 103 788 110 781 q 90 800 96 790 q 91 805 90 800 q 94 815 92 810 q 99 826 96 821 q 103 832 101 831 q 246 892 178 881 q 369 889 314 903 q 463 842 424 875 q 519 769 503 808 q 524 751 522 763 q 524 726 525 739 q 522 700 524 713 q 515 681 519 688 q 497 649 504 665 q 482 615 489 632 q 460 583 475 596 q 431 556 446 571 q 414 540 422 547 q 394 526 406 533 q 329 493 364 506 q 261 465 294 481 q 256 463 260 463 q 226 442 233 457 q 218 406 218 426 q 213 363 219 392 q 196 304 206 335 q 178 247 186 274 q 172 210 171 219 q 173 186 172 199 q 174 163 174 174 q 168 150 174 158 q 145 135 161 139 q 119 139 129 132 q 111 142 117 139 q 67 160 79 143 q 51 203 54 178 q 49 219 50 210 q 49 240 49 229 m 56 13 q 77 59 58 40 q 121 75 96 78 q 139 68 129 75 q 157 53 149 61 q 172 35 165 44 q 178 19 178 25 q 157 -28 175 -14 q 115 -44 139 -43 q 94 -40 104 -46 q 75 -26 83 -35 q 61 -6 67 -17 q 56 13 56 4 z "},"@":{"ha":1157,"x_min":40,"x_max":1118,"o":"m 40 346 q 83 603 43 492 q 186 792 122 714 q 332 917 250 869 q 503 981 414 964 q 681 988 592 999 q 849 940 771 978 q 990 841 928 903 q 1085 694 1051 779 q 1117 502 1118 610 q 1068 268 1115 394 q 1008 172 1051 222 q 906 83 964 121 q 779 29 847 46 q 643 33 711 13 q 556 80 586 51 q 514 141 526 108 q 501 205 501 174 q 504 260 501 236 q 490 248 497 253 q 474 238 482 243 q 442 224 458 229 q 408 219 425 218 q 376 228 392 219 q 347 256 360 236 q 333 283 342 263 q 324 311 325 303 q 325 408 319 365 q 349 488 331 451 q 399 557 367 525 q 479 621 431 589 q 517 639 497 633 q 555 648 538 644 q 583 653 572 651 q 596 661 594 656 q 610 685 600 676 q 632 706 621 694 q 664 707 647 721 q 688 667 681 696 q 697 603 696 638 q 696 534 699 568 q 690 481 693 500 q 669 360 682 418 q 650 243 656 303 q 647 185 646 211 q 655 138 649 161 q 681 103 661 114 q 747 90 708 85 q 822 113 785 94 q 886 156 858 131 q 922 201 914 181 q 976 473 981 357 q 926 667 972 589 q 801 785 879 744 q 633 832 722 826 q 451 808 543 838 q 288 718 360 779 q 173 565 215 657 q 138 350 131 472 q 228 98 146 201 q 485 -71 310 -6 q 644 -104 572 -104 q 767 -90 715 -104 q 874 -44 826 -75 q 878 -79 879 -62 q 869 -110 876 -94 q 840 -136 861 -125 q 667 -184 757 -178 q 488 -167 576 -190 q 320 -96 400 -144 q 179 20 240 -47 q 81 170 118 88 q 40 346 43 253 m 499 390 q 544 476 525 432 q 576 567 563 521 q 582 587 579 578 q 586 606 585 596 q 588 607 586 607 q 510 579 543 603 q 443 524 476 556 q 405 474 424 507 q 376 403 386 440 q 368 331 365 365 q 394 279 371 297 q 417 272 410 272 q 433 285 425 272 l 499 390 z "},"[":{"ha":533,"x_min":115,"x_max":472,"o":"m 218 -221 q 217 -215 218 -218 q 219 -208 217 -211 q 181 -2 200 -106 q 147 205 161 101 q 124 413 132 308 q 118 619 115 517 q 119 642 119 631 q 121 667 119 654 q 125 716 122 688 q 132 774 128 744 q 143 831 136 804 q 160 875 150 858 q 189 896 168 890 q 225 894 210 901 q 252 884 239 888 q 278 875 265 881 q 296 868 288 872 q 314 860 304 864 q 316 856 315 860 q 315 850 317 853 q 304 844 313 847 l 254 836 q 233 815 238 832 q 216 569 210 699 q 244 309 222 440 q 295 51 265 178 q 347 -186 325 -75 q 365 -194 351 -197 q 395 -185 381 -190 q 425 -176 410 -181 q 440 -175 432 -175 q 457 -175 449 -175 q 463 -189 472 -178 q 451 -200 458 -196 q 428 -210 440 -206 q 404 -221 417 -215 q 356 -243 381 -232 q 308 -264 332 -254 q 281 -272 294 -269 q 256 -262 268 -275 q 242 -253 249 -257 q 228 -244 235 -249 q 218 -221 215 -236 z "},"\\":{"ha":649,"x_min":40,"x_max":571,"o":"m 551 -35 q 563 -55 558 -46 q 568 -75 567 -64 q 569 -96 568 -89 q 556 -111 571 -106 q 523 -118 542 -117 q 487 -116 504 -119 q 467 -104 469 -112 q 393 78 438 -26 q 299 296 349 183 q 201 518 250 408 q 116 715 153 628 q 60 859 79 803 q 50 919 40 915 q 70 922 56 921 q 100 922 85 922 q 128 919 115 921 q 143 911 140 917 q 156 889 150 900 q 167 865 161 878 q 261 663 213 781 q 359 422 310 546 q 456 181 408 299 q 549 -22 504 64 q 551 -35 551 -31 z "},"]":{"ha":522,"x_min":107,"x_max":464,"o":"m 361 -221 q 351 -244 364 -236 q 338 -253 344 -249 q 324 -262 331 -257 q 298 -272 311 -275 q 271 -264 285 -269 q 223 -243 247 -254 q 175 -221 199 -232 q 151 -210 163 -215 q 128 -200 139 -206 q 117 -189 121 -196 q 122 -175 107 -178 q 139 -175 131 -175 q 154 -176 147 -175 q 184 -185 169 -181 q 214 -194 199 -190 q 232 -186 228 -197 q 284 51 254 -75 q 335 309 314 178 q 363 569 357 440 q 346 815 369 699 q 325 836 342 832 l 275 844 q 264 850 267 847 q 263 856 263 853 q 265 860 264 860 q 283 868 275 864 q 301 875 292 872 q 327 884 314 881 q 354 894 340 888 q 390 896 369 901 q 419 875 411 890 q 436 831 429 858 q 447 774 443 804 q 454 716 451 744 q 458 667 457 688 q 460 642 460 654 q 461 619 460 631 q 456 413 464 517 q 433 205 447 308 q 399 -2 418 101 q 360 -208 379 -106 q 362 -215 363 -211 q 361 -221 361 -218 z "},"^":{"ha":522,"x_min":46,"x_max":493,"o":"m 57 728 q 61 769 46 754 q 92 799 76 781 q 134 846 113 822 q 176 893 156 869 q 205 922 190 908 q 224 960 219 936 q 228 963 224 961 q 233 964 232 965 q 252 954 243 957 q 272 950 261 951 q 276 948 275 950 q 279 944 278 946 q 313 902 296 924 q 346 860 329 881 q 373 828 353 849 q 416 784 393 807 q 460 740 439 761 q 488 710 481 719 q 490 696 493 701 q 485 693 489 693 q 478 692 481 693 q 469 692 472 689 q 436 694 451 692 q 410 714 421 697 q 389 735 406 719 q 352 769 372 751 q 315 803 332 788 q 293 824 297 819 q 284 831 289 829 q 272 826 279 833 q 251 801 261 814 q 229 776 240 789 q 207 753 218 765 q 183 731 196 742 q 153 704 169 717 q 121 688 138 693 q 85 692 104 682 q 67 710 72 699 q 57 728 61 721 z "},"_":{"ha":744,"x_min":72,"x_max":674,"o":"m 551 -103 q 578 -110 567 -103 q 599 -125 589 -117 q 614 -136 607 -133 q 628 -142 621 -139 q 641 -148 635 -144 q 654 -160 647 -151 q 642 -190 674 -183 q 535 -204 601 -200 q 395 -208 468 -208 q 254 -203 322 -207 q 144 -190 186 -199 q 122 -186 133 -187 q 101 -181 111 -185 q 83 -162 89 -174 q 75 -137 78 -150 q 78 -126 72 -129 q 90 -124 85 -122 q 313 -135 203 -139 q 536 -104 424 -131 q 543 -103 539 -104 q 551 -103 547 -103 z "},"`":{"ha":290,"x_min":50,"x_max":264,"o":"m 256 772 l 246 753 q 218 743 238 728 q 200 758 213 747 q 174 780 188 768 q 149 803 161 792 q 132 818 138 814 q 111 833 125 824 q 83 853 97 843 q 60 874 69 864 q 54 889 50 883 q 96 919 69 914 q 105 920 100 919 q 113 919 110 921 q 160 887 132 906 q 212 849 188 868 q 250 809 236 829 q 256 772 264 789 z "},"{":{"ha":558,"x_min":75,"x_max":410,"o":"m 368 -26 q 365 -49 365 -37 q 361 -71 364 -60 q 347 -119 356 -96 q 322 -165 338 -143 q 259 -209 299 -197 q 181 -210 219 -221 q 149 -195 163 -204 q 126 -169 135 -186 q 117 -145 119 -158 q 111 -119 114 -132 q 103 -78 107 -99 q 99 -36 99 -57 q 103 -6 99 -21 q 111 25 107 10 q 131 85 121 56 q 151 143 140 114 q 152 158 154 154 q 139 168 150 163 q 78 236 93 188 q 82 256 75 246 q 100 269 89 267 q 113 272 107 271 q 126 275 119 272 q 142 288 136 278 q 157 338 153 315 q 158 356 158 346 q 156 374 157 365 q 144 421 150 397 q 133 468 139 444 q 131 492 131 481 q 128 517 131 504 q 125 533 126 525 q 122 551 124 542 q 122 579 122 565 q 124 606 121 593 q 132 637 125 615 q 147 683 139 658 q 163 728 154 707 q 178 758 171 750 q 193 780 185 769 q 210 800 201 790 q 222 813 215 807 q 235 826 228 819 q 265 850 247 843 q 303 864 283 857 q 309 864 306 865 q 315 861 313 863 q 343 846 329 854 q 372 831 357 838 q 385 823 379 826 q 399 815 392 819 q 406 810 401 813 q 410 806 410 807 q 403 798 407 801 q 397 792 400 794 l 393 792 q 352 783 369 794 q 317 760 335 771 q 304 746 308 751 q 285 715 297 736 q 261 669 274 693 q 238 622 249 644 q 224 588 228 599 q 213 510 211 549 q 211 494 213 501 q 210 479 210 486 q 211 454 211 467 q 214 431 211 442 q 235 376 224 403 q 256 321 246 349 q 246 221 272 268 q 240 212 243 217 q 238 203 236 207 q 244 198 239 200 q 254 193 250 196 q 265 187 260 190 q 276 179 271 183 q 290 133 301 161 q 271 78 281 106 q 250 24 261 51 q 235 -17 243 3 q 222 -60 226 -37 q 220 -96 219 -78 q 224 -133 221 -114 q 251 -147 226 -157 q 282 -130 268 -140 q 307 -104 296 -119 l 361 -29 l 365 -25 q 368 -26 367 -26 z "},"|":{"ha":390,"x_min":138,"x_max":260,"o":"m 256 -137 q 259 -166 258 -151 q 256 -192 260 -181 q 254 -204 254 -199 q 253 -217 254 -210 q 236 -229 251 -229 q 203 -222 221 -229 q 171 -203 185 -215 q 157 -179 157 -192 q 158 -3 158 -103 q 155 208 157 97 q 150 433 153 318 q 144 656 147 547 q 140 861 142 765 q 138 1029 138 957 q 142 1143 139 1101 q 154 1185 146 1185 q 173 1179 160 1185 q 199 1165 186 1174 q 223 1149 213 1157 q 233 1133 233 1140 q 237 1101 235 1118 q 239 1069 239 1085 q 247 894 244 990 q 251 691 250 797 q 251 474 251 585 q 251 258 250 364 q 253 54 251 151 q 260 -122 254 -43 q 257 -131 257 -128 q 256 -137 257 -135 z "},"}":{"ha":503,"x_min":228,"x_max":486,"o":"m 486 531 q 475 475 486 501 q 449 426 464 449 q 419 382 435 403 q 397 342 404 361 q 392 306 389 324 q 417 269 394 288 q 443 256 424 263 q 465 243 463 250 q 470 224 469 235 q 468 204 471 214 q 459 189 465 196 q 446 175 453 182 q 431 159 439 167 q 417 143 424 151 q 412 142 414 142 q 408 139 410 142 q 402 131 406 135 q 399 122 399 126 q 400 95 399 115 q 403 53 401 75 q 408 13 406 32 q 414 -14 411 -7 q 435 -72 428 -42 q 440 -133 443 -101 q 426 -181 438 -164 q 383 -206 415 -197 q 365 -212 374 -208 q 346 -217 356 -215 q 314 -214 332 -218 q 293 -206 303 -211 q 272 -197 283 -201 q 254 -181 260 -192 q 243 -161 249 -171 q 235 -137 238 -150 q 229 -112 232 -125 q 246 -89 228 -93 q 275 -100 265 -83 q 296 -133 283 -117 q 310 -137 300 -137 q 324 -131 318 -135 q 332 -117 331 -128 q 332 -91 332 -104 q 331 -65 332 -78 q 328 -49 331 -57 q 324 -32 326 -40 q 317 8 321 -18 q 312 63 314 33 q 309 117 310 92 q 310 157 308 143 q 315 174 311 165 q 324 192 319 183 q 317 214 331 207 q 280 238 294 229 q 265 274 265 247 q 272 291 265 282 q 289 309 279 300 q 308 326 299 318 q 319 343 317 335 q 362 430 346 394 q 385 492 378 465 q 394 543 393 519 q 394 596 396 567 q 391 663 393 625 q 389 758 389 701 q 386 790 389 776 q 377 812 383 803 q 360 828 371 821 q 332 842 349 835 q 316 849 324 844 q 301 858 308 854 q 303 869 290 865 q 319 872 313 874 q 432 829 379 867 q 451 810 443 822 q 463 788 458 799 q 485 658 485 722 q 486 531 485 594 z "},"~":{"ha":782,"x_min":74,"x_max":717,"o":"m 88 407 q 125 424 103 418 q 169 431 143 429 q 229 424 196 432 q 285 405 263 415 q 328 385 307 394 q 372 367 349 375 q 432 358 396 360 q 501 363 468 357 q 563 379 535 369 q 610 401 590 389 q 642 424 631 413 q 653 422 647 424 q 678 411 665 419 q 704 384 692 400 q 710 358 717 368 q 688 341 707 354 q 641 314 668 328 q 583 288 614 300 q 522 274 551 276 q 401 279 464 268 q 293 317 339 290 q 245 335 269 329 q 197 342 221 342 q 153 337 174 342 q 119 324 133 332 q 94 322 106 315 q 78 344 83 329 q 75 376 74 358 q 88 407 76 394 z "},"":{"ha":426,"x_min":-76,"x_max":425,"o":"m 301 611 q 328 604 317 611 q 349 589 339 597 q 372 567 364 574 q 394 544 381 561 q 397 528 404 533 q 375 521 390 524 q 335 514 357 517 q 289 509 313 511 q 242 506 265 507 q 197 506 218 506 q 199 474 199 490 q 203 443 200 458 q 276 449 239 447 q 340 446 313 451 q 363 442 351 443 q 383 436 374 440 q 395 428 396 429 q 397 414 394 426 q 394 403 400 406 q 382 400 388 401 l 333 392 q 310 388 326 390 q 277 384 294 386 q 244 380 260 382 q 221 376 228 378 q 214 375 218 375 q 238 276 224 324 q 267 188 251 229 q 277 174 272 176 q 294 178 282 172 q 360 238 338 197 q 376 272 368 254 q 392 308 385 289 q 417 292 410 310 q 424 251 425 275 q 414 201 422 226 q 393 160 406 175 q 348 111 374 132 q 286 82 322 90 q 160 96 210 75 q 79 158 110 117 q 35 253 49 199 q 21 368 22 308 q -43 395 -24 379 q -64 413 -62 411 q -67 428 -74 424 q -44 436 -60 433 q 22 442 -10 444 q 24 469 22 456 q 26 494 25 482 q -17 499 6 494 q -39 503 -28 501 q -60 508 -50 504 q -72 517 -72 515 q -74 531 -71 518 q -70 541 -76 539 q -58 544 -64 543 l -10 553 l 33 561 l 39 592 q 53 663 44 628 q 78 731 61 699 q 93 758 85 746 q 111 783 101 771 q 127 808 118 796 q 146 833 136 821 q 178 860 160 853 q 221 867 197 868 q 244 865 232 864 q 267 864 256 865 q 310 862 283 863 q 358 854 336 861 q 392 833 381 847 q 392 790 404 818 q 371 771 383 774 q 346 757 358 768 q 331 757 339 750 q 332 774 324 765 q 331 789 339 785 q 313 790 322 793 q 285 785 299 788 q 260 775 272 782 q 217 688 232 735 q 199 590 203 642 q 249 601 224 596 q 286 610 275 607 q 293 610 289 610 q 301 611 297 611 z "},"":{"ha":215,"x_min":38,"x_max":160,"o":"m 160 51 q 158 46 160 49 q 134 -1 147 22 q 97 -40 121 -25 q 87 -44 93 -43 q 76 -43 81 -46 q 69 -33 69 -40 q 71 -19 68 -26 q 76 -4 74 -12 q 82 11 79 4 q 75 31 88 22 l 63 39 q 43 82 38 54 q 61 99 47 99 q 118 96 88 100 q 145 78 131 94 q 160 51 160 63 z "},"":{"ha":486,"x_min":46,"x_max":451,"o":"m 153 331 q 151 341 153 332 q 147 359 149 350 q 142 376 144 368 q 139 388 139 385 q 105 369 124 381 q 75 350 86 357 q 66 352 71 347 q 57 365 61 357 q 53 383 53 374 q 60 400 53 392 q 75 410 63 403 q 101 427 88 418 q 126 444 114 436 q 138 457 138 453 q 141 580 140 526 q 144 677 142 633 q 153 757 147 721 q 171 826 158 793 q 195 863 179 847 q 231 889 211 878 q 281 900 253 900 q 349 893 317 903 q 414 872 382 883 q 422 857 425 864 q 406 850 419 850 q 328 826 357 850 q 286 765 299 801 q 276 687 274 729 q 293 610 278 644 l 297 583 q 307 590 303 588 q 314 594 311 592 l 379 640 q 432 650 401 657 q 442 647 438 649 q 449 639 446 646 q 448 629 451 633 q 442 621 444 625 l 396 585 l 325 532 q 318 511 317 525 q 343 415 325 475 q 380 285 361 356 q 414 138 399 214 q 433 -3 429 63 q 424 -119 438 -69 q 374 -189 411 -169 q 311 -219 350 -201 q 232 -233 272 -236 q 152 -239 192 -231 q 97 -250 113 -247 q 66 -240 82 -253 q 47 -207 50 -226 q 47 -185 46 -197 q 53 -163 49 -174 q 63 -144 57 -153 q 81 -135 69 -136 q 107 -133 89 -133 q 145 -129 125 -132 q 183 -117 165 -126 q 210 -90 201 -108 q 233 -9 229 -49 q 229 78 238 31 q 201 185 221 125 q 153 331 182 246 z "},"":{"ha":358,"x_min":38,"x_max":310,"o":"m 160 51 q 158 46 160 49 q 134 -1 147 22 q 97 -40 121 -25 q 87 -44 93 -43 q 76 -43 81 -46 q 69 -33 69 -40 q 71 -19 68 -26 q 76 -4 74 -12 q 82 11 79 4 q 75 31 88 22 l 63 39 q 43 82 38 54 q 61 99 47 99 q 118 96 88 100 q 145 78 131 94 q 160 51 160 63 m 310 51 q 308 46 310 49 q 284 -1 297 22 q 247 -40 271 -25 q 237 -44 243 -43 q 226 -43 231 -46 q 219 -33 219 -40 q 221 -19 218 -26 q 226 -4 224 -12 q 232 11 229 4 q 225 31 238 22 l 213 39 q 193 82 188 54 q 211 99 197 99 q 268 96 238 100 q 295 78 281 94 q 310 51 310 63 z "},"":{"ha":485,"x_min":33,"x_max":447,"o":"m 33 19 q 52 61 35 44 q 93 76 69 78 q 108 70 99 76 q 125 56 117 64 q 139 39 133 47 q 144 25 144 31 q 125 -18 142 -6 q 88 -33 108 -31 q 51 -16 68 -35 q 33 19 33 3 m 185 19 q 203 61 186 44 q 244 76 221 78 q 259 70 250 76 q 276 56 268 64 q 290 39 285 47 q 296 25 296 31 q 276 -18 293 -6 q 239 -33 260 -31 q 202 -16 219 -35 q 185 19 185 3 m 336 19 q 355 61 338 44 q 396 76 372 78 q 410 70 401 76 q 428 56 419 64 q 442 39 436 47 q 447 25 447 31 q 428 -18 444 -6 q 390 -33 411 -31 q 353 -16 371 -35 q 336 19 336 3 z "},"":{"ha":313,"x_min":-47,"x_max":396,"o":"m 271 793 q 297 786 286 793 q 318 771 308 779 q 348 739 333 756 q 376 706 363 722 q 364 675 396 682 q 303 669 333 668 q 243 676 274 671 l 218 681 q 218 466 218 575 q 218 252 218 357 q 220 51 218 147 q 228 -122 222 -44 q 225 -131 225 -128 q 224 -137 225 -135 q 227 -166 226 -151 q 224 -192 228 -181 l 221 -217 q 204 -229 219 -229 q 171 -222 189 -229 q 139 -203 153 -215 q 125 -179 125 -192 q 126 0 126 -101 q 123 214 125 101 q 117 444 121 326 q 111 671 114 561 q 67 670 89 669 q 25 675 46 671 q 3 679 14 678 q -18 685 -8 681 q -36 703 -31 692 q -44 728 -42 715 q -41 738 -47 736 q -29 742 -35 740 l 19 750 l 79 763 l 110 767 q 106 931 107 856 q 107 1063 106 1007 q 112 1152 108 1119 q 122 1185 115 1185 q 141 1179 128 1185 q 167 1165 154 1174 q 191 1149 181 1157 q 201 1133 201 1140 q 205 1101 203 1118 q 207 1069 207 1085 q 214 935 211 1007 q 218 783 217 863 l 256 792 q 263 792 258 792 q 271 793 267 793 z "},"":{"ha":313,"x_min":-57,"x_max":374,"o":"m -37 178 q -40 194 -47 189 q -18 201 -33 199 q 55 207 22 211 q 124 201 88 203 l 111 681 q 57 676 83 678 q 3 681 31 674 q -19 685 -8 683 q -40 690 -31 686 q -52 699 -53 697 q -54 713 -51 700 q -51 723 -57 721 q -39 726 -44 725 l 10 735 l 69 747 l 110 753 q 106 923 107 844 q 106 1060 106 1001 q 111 1151 107 1118 q 122 1185 115 1185 q 141 1179 128 1185 q 167 1165 154 1174 q 191 1149 181 1157 q 201 1133 201 1140 q 205 1101 203 1118 q 207 1069 207 1085 q 215 930 213 1006 q 218 771 217 854 q 232 773 225 772 q 246 776 239 774 q 253 777 249 776 q 261 778 257 778 q 288 771 276 778 q 308 756 299 764 q 332 734 324 740 q 354 711 340 728 q 357 695 364 700 q 335 688 350 690 q 274 681 301 679 q 218 686 246 683 q 219 447 219 568 q 218 208 218 325 q 266 212 242 211 q 314 208 290 213 q 336 204 325 206 q 357 199 347 203 q 369 190 369 192 q 371 176 368 189 q 367 166 374 168 q 356 163 361 164 l 307 154 l 247 142 q 233 138 240 139 q 219 136 226 138 q 222 -1 221 64 q 228 -122 224 -65 q 225 -131 225 -128 q 224 -137 225 -135 q 227 -166 226 -151 q 224 -192 228 -181 l 221 -217 q 204 -229 219 -229 q 171 -222 189 -229 q 139 -203 153 -215 q 125 -179 125 -192 q 126 -39 126 -117 q 125 125 126 39 q 49 133 81 125 q -1 151 18 142 q -28 169 -19 161 q -37 178 -37 178 z "},"":{"ha":1157,"x_min":263,"x_max":610,"o":"m 411 872 q 385 861 396 874 q 365 828 374 849 q 349 782 356 807 q 339 735 343 757 l 263 732 l 263 756 q 270 814 264 785 q 291 868 276 843 q 328 912 306 893 q 382 940 350 931 q 449 945 417 949 q 514 931 482 942 q 544 906 535 921 q 606 765 589 840 l 610 744 l 474 740 l 463 778 q 453 800 460 785 q 440 831 447 815 q 424 860 432 847 q 411 872 417 872 z "},"":{"ha":833,"x_min":61,"x_max":774,"o":"m 117 8 q 103 13 110 11 q 90 18 97 15 q 78 51 71 28 q 94 93 86 72 q 110 136 101 114 q 117 146 113 142 q 125 156 122 150 l 154 214 q 156 217 156 215 q 178 251 171 232 q 197 289 186 269 q 226 342 213 315 q 254 396 239 368 q 281 447 268 422 q 308 499 294 472 q 347 565 328 532 q 385 632 365 599 q 403 657 393 646 q 425 681 414 668 q 438 697 432 689 q 451 714 444 706 q 475 724 461 724 q 499 715 489 724 q 506 710 501 713 q 513 706 510 708 q 515 682 526 694 q 503 664 508 672 q 490 646 497 656 q 463 606 476 626 q 438 564 450 585 q 428 548 432 557 q 419 531 424 539 q 400 499 410 515 q 381 467 390 483 q 361 431 369 449 q 342 396 353 414 q 332 378 338 386 q 322 363 326 371 q 298 323 310 343 q 275 282 286 303 q 242 225 258 254 q 211 167 226 196 q 202 149 206 158 q 194 129 199 139 q 189 119 192 124 q 183 110 186 115 q 165 78 174 94 q 149 44 157 61 q 146 37 147 40 q 143 29 144 33 q 135 13 140 17 q 117 8 129 10 m 61 443 q 67 474 64 460 q 74 504 69 489 q 81 533 76 519 q 92 561 85 547 q 107 590 100 575 q 128 615 114 604 q 136 629 133 619 q 139 646 139 639 q 151 676 138 668 q 179 690 164 683 q 189 690 183 693 q 234 676 213 683 q 279 661 256 668 q 296 625 304 650 q 292 606 292 614 q 288 571 292 588 q 279 539 285 554 q 278 535 279 536 q 256 491 264 515 q 238 444 249 467 q 209 402 224 422 q 168 371 194 382 q 114 369 140 360 q 75 399 88 379 q 66 421 68 410 q 61 443 64 432 m 149 440 q 169 470 158 447 q 188 519 181 493 q 199 570 196 546 q 199 604 203 594 q 194 600 196 601 q 193 597 192 599 q 191 575 197 585 q 179 556 185 565 q 147 461 151 514 q 148 451 147 456 q 149 440 149 446 m 283 218 q 296 276 281 249 q 311 299 303 288 q 326 322 319 311 q 336 340 332 331 q 347 356 340 349 q 386 399 365 378 q 419 411 400 413 q 424 413 422 411 q 429 413 426 414 q 446 408 439 413 q 463 398 456 403 q 479 386 471 393 q 485 379 485 383 q 497 352 492 365 q 507 324 501 339 q 513 309 510 317 q 518 294 517 301 q 519 281 519 288 q 515 267 518 274 q 504 241 510 254 q 492 217 499 228 q 446 150 471 183 q 431 133 439 142 q 414 118 422 125 q 392 117 406 114 q 369 122 381 119 q 347 119 358 125 q 339 121 343 117 q 319 139 329 131 q 303 158 310 147 q 290 187 294 172 q 279 217 285 201 q 281 217 281 217 q 283 218 282 218 m 347 200 l 350 200 q 349 192 349 197 q 353 182 351 186 q 357 172 354 178 q 365 177 361 175 q 372 182 369 179 q 392 208 383 194 q 411 235 401 221 q 424 256 418 246 q 436 278 429 267 q 437 295 440 285 q 424 311 433 306 q 409 312 414 317 q 400 301 404 307 q 375 263 385 283 q 354 222 365 242 q 351 211 351 217 q 347 200 350 206 m 538 218 q 550 276 535 249 q 565 299 557 288 q 581 322 574 311 q 590 340 586 331 q 601 356 594 349 q 640 399 619 378 q 674 411 654 413 q 678 413 676 411 q 683 413 681 414 q 700 408 693 413 q 717 398 710 403 q 733 386 725 393 q 739 379 739 383 q 751 352 746 365 q 761 324 756 339 q 767 309 764 317 q 772 294 771 301 q 773 281 774 288 q 769 267 772 274 q 758 241 764 254 q 746 217 753 228 q 700 150 725 183 q 685 133 693 142 q 668 118 676 125 q 646 117 660 114 q 624 122 635 119 q 601 119 613 125 q 593 121 597 117 q 574 139 583 131 q 557 158 564 147 q 544 187 549 172 q 533 217 539 201 q 535 217 535 217 q 538 218 536 218 m 601 200 l 604 200 q 603 192 603 197 q 607 182 606 186 q 611 172 608 178 q 619 177 615 175 q 626 182 624 179 q 647 208 638 194 q 665 235 656 221 q 678 256 672 246 q 690 278 683 267 q 691 295 694 285 q 678 311 688 306 q 663 312 668 317 q 654 301 658 307 q 629 263 639 283 q 608 222 619 242 q 605 211 606 217 q 601 200 604 206 z "},"":{"ha":313,"x_min":-146,"x_max":386,"o":"m -125 104 q -122 117 -125 108 q -31 320 -79 203 q 67 561 18 438 q 165 802 117 685 q 260 1004 214 919 q 271 1028 265 1017 q 283 1050 276 1039 q 299 1058 286 1056 q 326 1060 311 1060 q 356 1060 342 1061 q 376 1058 369 1060 q 367 998 386 1054 q 310 854 347 942 q 225 657 274 767 q 127 435 176 547 q 33 217 78 322 q -40 35 -11 113 q -60 23 -43 26 q -97 21 -78 19 q -131 28 -115 22 q -143 43 -146 33 q -142 64 -142 50 q -136 84 -140 75 q -125 104 -132 93 z "},"":{"ha":707,"x_min":53,"x_max":682,"o":"m 675 269 q 681 246 682 261 q 675 215 681 231 q 660 188 669 200 q 640 172 650 175 q 601 170 622 169 q 560 176 581 171 q 525 190 540 181 q 503 215 510 200 q 490 244 496 231 q 478 272 483 257 q 462 365 463 319 q 465 456 461 411 q 474 547 469 501 q 472 638 478 592 q 492 656 468 661 q 554 624 531 649 q 608 536 597 582 q 618 442 619 490 q 613 344 617 394 q 625 246 610 294 q 633 234 626 233 q 649 241 640 235 q 665 256 657 247 q 675 269 672 265 m 538 747 q 467 765 499 747 q 435 796 444 776 q 428 832 426 815 q 423 848 428 846 q 406 850 418 850 q 328 826 357 850 q 286 765 299 801 q 276 687 274 729 q 293 610 278 644 l 297 583 q 307 590 303 588 q 314 594 311 592 l 379 640 q 432 650 401 657 q 442 647 438 649 q 449 639 446 646 q 448 629 451 633 q 442 621 444 625 l 396 585 l 325 532 q 318 511 317 525 q 351 378 332 444 q 388 244 371 311 q 417 107 406 176 q 428 -33 428 38 q 431 -54 431 -44 q 431 -75 431 -64 q 426 -85 431 -83 q 413 -97 419 -92 q 397 -106 406 -101 q 372 -115 385 -114 q 353 -114 364 -117 q 325 -114 339 -110 q 290 -122 307 -118 q 253 -128 272 -125 q 219 -125 225 -132 q 210 -97 214 -118 q 202 -24 207 -58 q 189 47 197 11 q 162 102 169 76 q 152 153 154 128 q 151 204 150 178 q 149 260 151 231 l 140 367 q 140 377 140 371 q 139 388 140 383 q 105 369 124 381 q 75 350 86 357 q 66 352 71 347 q 57 365 61 357 q 53 383 53 374 q 60 400 53 392 q 75 410 63 403 q 101 427 88 418 q 126 444 114 436 q 138 457 138 453 q 141 580 140 526 q 144 677 142 633 q 153 757 147 721 q 171 826 158 793 q 192 865 179 847 q 222 897 206 882 q 331 953 272 944 q 444 948 390 963 q 541 902 499 933 q 601 838 583 871 q 607 779 619 806 q 538 747 594 753 z "},"":{"ha":815,"x_min":53,"x_max":790,"o":"m 783 160 q 785 85 790 128 q 762 2 779 42 q 718 -67 744 -37 q 657 -101 692 -96 q 536 -69 575 -112 q 488 53 497 -25 q 490 234 478 132 q 520 441 501 336 q 558 644 539 546 q 581 811 576 742 q 510 856 550 844 q 428 859 469 867 q 351 828 388 851 q 293 772 315 806 q 269 696 271 738 q 293 610 267 654 l 297 583 q 307 590 303 588 q 314 594 311 592 l 379 640 q 432 650 401 657 q 442 647 438 649 q 449 639 446 646 q 448 629 451 633 q 442 621 444 625 l 396 585 l 325 532 q 318 511 317 525 q 351 378 332 444 q 388 244 371 311 q 417 107 406 176 q 428 -33 428 38 q 431 -54 431 -44 q 431 -75 431 -64 q 426 -85 431 -83 q 413 -97 419 -92 q 397 -106 406 -101 q 372 -115 385 -114 q 353 -114 364 -117 q 325 -114 339 -110 q 290 -122 307 -118 q 253 -128 272 -125 q 219 -125 225 -132 q 210 -97 214 -118 q 202 -24 207 -58 q 189 47 197 11 q 162 102 169 76 q 152 153 154 128 q 151 204 150 178 q 149 260 151 231 l 140 367 q 140 377 140 371 q 139 388 140 383 q 105 369 124 381 q 75 350 86 357 q 66 352 71 347 q 57 365 61 357 q 53 383 53 374 q 60 400 53 392 q 75 410 63 403 q 101 427 88 418 q 126 444 114 436 q 138 457 138 453 q 141 580 140 526 q 144 677 142 633 q 153 757 147 721 q 171 826 158 793 q 239 909 192 872 q 345 968 286 946 q 468 996 404 990 q 585 987 532 1001 q 672 935 638 972 q 710 833 707 897 q 691 607 710 718 q 656 387 672 496 q 638 172 640 278 q 665 -37 635 65 q 692 -10 681 -28 q 710 26 703 7 q 722 64 718 44 q 728 99 726 83 q 732 118 729 108 q 738 138 735 128 q 764 165 744 157 q 783 160 776 171 z "},"":{"ha":510,"x_min":-78,"x_max":531,"o":"m 90 -78 l 160 31 q 151 38 154 36 q 124 63 135 49 q 106 94 114 78 q 77 168 86 131 q 65 244 68 206 q 60 319 61 282 q 56 393 60 357 q 39 390 47 390 q 24 388 31 389 q -4 383 8 385 q -31 381 -17 381 q -57 390 -47 382 q -74 408 -67 399 q -72 419 -78 415 q -58 426 -65 424 l -1 450 q 24 463 11 457 q 50 474 36 468 q 49 560 49 518 q 49 647 50 603 q 46 746 49 697 q 29 843 43 794 q 23 860 26 851 q 15 876 19 868 q 53 892 33 892 q 94 889 74 893 q 126 881 110 886 q 157 871 142 876 q 182 844 172 865 q 229 707 214 778 q 251 561 244 636 q 262 566 257 564 q 274 571 267 568 q 282 574 278 572 q 292 578 286 576 q 326 582 311 583 q 354 576 342 581 q 400 560 378 568 q 443 540 422 551 q 436 510 472 528 q 364 483 400 492 q 289 467 328 474 q 256 461 269 464 q 247 275 256 367 q 229 96 239 183 l 236 100 q 257 124 243 106 q 285 163 271 142 q 313 202 300 183 q 335 226 326 221 q 371 244 351 239 q 410 249 390 249 q 433 249 421 250 q 456 247 444 247 q 477 240 469 246 q 492 222 485 233 q 513 177 506 201 q 524 129 519 153 q 501 101 531 101 l 450 106 q 433 101 439 106 q 351 54 389 82 q 274 -1 313 26 q 197 -51 236 -29 q 111 -82 157 -74 q 102 -82 107 -83 q 90 -78 97 -81 z "},"":{"ha":369,"x_min":-124,"x_max":476,"o":"m 219 -37 q 246 -10 235 -28 q 265 26 257 7 q 276 64 272 44 q 282 99 281 83 q 286 118 283 108 q 292 138 289 128 q 318 165 299 157 q 338 160 331 171 q 339 85 344 128 q 316 2 333 42 q 272 -67 299 -37 q 211 -101 246 -96 q 106 -83 144 -110 q 48 -3 67 -56 q 27 122 29 50 q 32 276 25 194 q 11 269 21 272 q -10 263 1 265 q -42 253 -26 258 q -69 247 -57 249 q -100 250 -89 244 q -118 263 -111 256 q -116 274 -124 269 q -101 282 -108 278 l -40 314 q -3 335 -21 325 q 35 356 15 346 l 42 358 q 60 481 50 419 q 78 600 69 543 q 95 708 88 657 q 106 801 103 760 q 144 811 125 813 q 182 799 164 810 q 215 772 200 789 q 240 738 231 756 q 245 691 243 714 q 243 644 247 668 q 233 544 238 592 q 221 451 228 496 l 258 472 l 278 482 q 315 491 297 490 q 347 490 332 492 q 396 483 372 488 q 443 475 419 479 q 436 444 476 467 q 358 408 399 424 q 276 381 317 393 q 251 374 263 376 q 226 365 239 371 l 207 356 q 194 163 196 257 q 219 -37 193 68 z "},"":{"ha":1157,"x_min":263,"x_max":610,"o":"m 443 799 q 499 817 482 801 q 523 853 517 832 q 529 901 529 875 q 533 949 529 926 l 610 951 l 610 928 q 602 869 608 899 q 581 815 596 840 q 544 772 567 790 q 490 743 522 753 q 423 738 456 735 q 358 753 390 742 q 328 778 338 763 q 267 918 283 843 l 263 939 l 371 940 l 379 894 q 385 871 381 888 q 397 838 389 854 q 416 809 404 821 q 443 799 428 797 z "},"":{"ha":182,"x_min":33,"x_max":144,"o":"m 33 813 q 52 854 35 838 q 93 869 69 871 q 108 863 99 869 q 125 849 117 857 q 139 832 133 840 q 144 818 144 824 q 125 775 142 788 q 88 760 108 763 q 51 777 68 758 q 33 813 33 796 z "},"":{"ha":1157,"x_min":328,"x_max":581,"o":"m 357 839 q 372 862 364 850 q 388 885 381 874 q 397 902 393 893 q 408 918 401 911 q 447 961 426 940 q 486 977 467 981 q 522 958 506 974 q 551 921 539 942 q 568 886 563 900 q 574 872 571 879 q 579 857 578 864 q 580 843 581 850 q 576 829 579 836 q 565 803 571 817 q 553 779 560 790 q 507 713 532 746 q 472 685 492 693 q 433 678 453 676 q 394 690 413 679 q 364 721 376 701 q 357 839 328 779 m 458 744 q 478 778 469 760 q 496 817 488 797 q 509 844 504 831 q 519 872 514 857 q 515 895 522 883 q 494 911 507 907 q 474 908 479 915 q 464 893 468 900 q 440 842 449 868 q 422 789 432 815 q 423 767 419 781 q 432 744 426 754 q 444 733 438 735 q 458 744 451 732 z "},"":{"ha":421,"x_min":44,"x_max":361,"o":"m 101 778 q 88 775 94 775 q 75 774 82 775 q 58 789 44 767 q 88 835 71 811 q 106 858 94 843 q 128 890 117 874 q 151 917 140 906 q 167 929 161 929 q 214 915 200 929 q 217 904 217 906 q 192 861 204 882 q 168 822 181 840 q 140 792 156 804 q 101 778 124 781 m 246 778 q 233 775 239 775 q 219 774 226 775 q 203 789 189 767 q 232 835 215 811 q 250 858 239 843 q 273 890 261 874 q 295 917 285 906 q 311 929 306 929 q 358 915 344 929 q 361 904 361 906 q 337 861 349 882 q 313 822 325 840 q 284 792 300 804 q 246 778 268 781 z "},"":{"ha":378,"x_min":31,"x_max":349,"o":"m 324 -246 q 274 -262 308 -254 q 201 -270 240 -269 q 126 -262 163 -271 q 69 -228 90 -253 q 40 -172 49 -203 q 33 -112 31 -142 q 53 -56 36 -82 q 104 -17 71 -31 q 157 6 138 -3 q 188 18 176 14 q 204 21 199 22 q 215 15 210 19 q 229 6 221 11 q 244 -3 238 1 q 251 -15 250 -8 q 243 -32 251 -22 q 215 -47 235 -42 q 173 -58 194 -53 q 133 -68 151 -62 q 108 -83 114 -74 q 97 -107 103 -93 q 90 -135 90 -121 q 97 -161 89 -150 q 125 -176 104 -172 q 167 -172 146 -181 q 211 -150 189 -162 q 254 -125 233 -137 q 294 -108 275 -112 q 326 -122 314 -104 q 344 -165 339 -140 q 344 -213 349 -189 q 324 -246 339 -237 z "},"":{"ha":481,"x_min":85,"x_max":426,"o":"m 418 958 q 414 924 426 936 q 402 912 407 918 q 390 899 397 906 q 358 859 375 879 q 326 819 342 839 q 304 794 315 806 q 290 763 293 782 q 286 761 288 763 q 282 760 282 757 q 268 768 275 767 q 253 771 261 769 q 249 773 250 771 q 247 776 249 775 q 222 812 235 794 q 196 847 210 829 q 175 874 190 856 q 142 911 160 892 q 109 948 125 931 q 88 974 93 965 q 86 986 85 983 q 90 989 88 989 q 96 989 93 989 q 101 989 99 992 q 127 987 115 989 q 147 971 139 985 q 163 953 150 967 q 192 924 176 939 q 220 895 207 908 q 236 878 233 882 q 244 872 240 874 q 253 875 247 869 q 269 897 261 886 q 286 918 278 907 q 303 937 294 928 q 321 957 311 946 q 332 969 326 964 q 344 979 338 974 q 368 992 356 988 q 396 989 381 997 q 411 974 407 983 q 418 958 415 965 z "},"":{"ha":686,"x_min":29,"x_max":722,"o":"m 697 117 q 671 124 683 121 q 646 131 658 128 q 625 132 639 132 q 428 122 538 142 q 201 78 319 101 q 181 83 194 78 q 178 85 178 85 q 140 113 156 90 q 117 154 125 136 q 117 205 106 179 q 136 243 128 231 q 160 288 149 265 q 183 335 171 311 q 199 362 186 340 q 231 413 213 383 q 273 474 250 442 q 317 536 296 507 q 356 586 339 565 q 382 613 374 607 q 394 627 389 619 q 406 642 399 635 q 419 658 413 650 q 433 675 426 667 q 463 708 449 692 q 492 740 476 725 q 498 749 492 742 q 504 757 504 756 q 466 759 489 757 q 429 758 443 761 q 339 746 382 747 q 255 744 296 744 q 175 738 214 743 q 99 715 136 732 q 88 717 93 713 q 79 725 83 721 q 71 740 75 732 q 64 754 67 747 q 56 780 64 765 q 42 807 49 794 q 32 828 35 819 q 39 838 29 838 q 97 831 68 829 q 156 835 126 832 q 293 856 226 846 q 426 876 360 867 l 447 876 q 492 865 467 874 q 541 845 517 857 q 583 817 565 833 q 607 783 601 801 q 613 772 608 776 q 621 761 618 767 q 624 747 625 754 q 614 736 622 739 q 514 639 557 692 q 431 531 471 586 q 382 466 403 497 q 342 403 361 435 q 307 340 324 372 q 272 272 290 308 q 265 253 269 265 q 256 232 260 242 q 331 264 286 249 q 424 290 375 279 q 523 307 474 301 q 613 310 572 313 q 646 276 631 300 q 674 236 661 251 q 712 181 701 203 q 722 145 722 158 q 715 125 722 132 q 697 117 707 118 m 502 1118 q 498 1085 510 1097 q 486 1073 491 1079 q 475 1061 481 1067 q 444 1022 460 1042 q 413 984 428 1003 q 391 959 402 971 q 378 929 381 948 q 374 928 375 929 q 370 927 370 924 q 356 935 363 933 q 342 937 350 936 q 338 939 339 937 q 336 943 338 941 q 312 977 324 960 q 287 1011 300 994 q 266 1037 281 1019 q 235 1073 252 1054 q 203 1108 218 1092 q 182 1133 187 1125 q 181 1145 179 1142 q 185 1148 182 1148 q 190 1148 187 1148 q 195 1148 193 1151 q 220 1146 209 1148 q 240 1130 232 1144 q 255 1113 242 1126 q 283 1085 268 1100 q 310 1057 297 1070 q 326 1041 323 1045 q 333 1035 330 1037 q 342 1038 336 1033 q 358 1059 350 1049 q 374 1079 366 1069 q 390 1098 382 1089 q 408 1117 398 1106 q 418 1128 413 1124 q 430 1138 424 1133 q 453 1151 441 1147 q 480 1148 465 1156 q 495 1134 491 1142 q 502 1118 499 1125 z "},"":{"ha":486,"x_min":-11,"x_max":526,"o":"m 431 428 q 471 474 450 451 q 510 525 492 496 q 519 520 526 535 q 496 482 513 506 q 460 433 479 458 q 435 397 442 408 q 426 367 426 382 l 426 243 q 430 138 426 190 q 431 34 433 86 q 415 -69 428 -18 q 369 -169 403 -119 q 353 -182 365 -178 q 312 -188 329 -186 q 278 -190 294 -190 q 244 -189 263 -190 q 203 -185 226 -187 q 181 -168 189 -183 q 158 -79 157 -124 q 165 -21 158 -53 q 198 71 176 28 q 243 157 219 114 q 274 205 258 181 q 304 253 289 229 q 315 282 314 265 q 315 319 315 296 q 315 367 315 342 q 314 420 315 393 q 311 472 313 447 q 272 429 292 449 q 226 380 253 410 q 167 322 199 350 q 104 275 136 294 q 42 256 72 256 q 21 260 31 256 q 3 271 11 264 q 1 309 -11 279 q 32 373 13 339 q 72 437 51 407 q 99 475 93 467 q 171 594 132 536 q 254 718 210 653 q 265 731 260 725 q 272 746 269 738 q 188 725 232 729 q 100 715 144 721 q 86 621 104 665 q 80 615 85 617 q 69 615 75 614 q 58 619 63 615 q 53 629 53 622 q 53 635 53 635 l 61 685 q 61 718 63 701 q 58 739 60 729 q 54 760 57 749 q 63 764 58 764 q 131 762 94 763 q 205 767 168 761 q 276 788 242 772 q 336 832 310 803 q 354 843 343 842 q 378 842 365 844 q 404 835 392 840 q 426 829 417 831 q 400 785 421 819 q 351 703 379 750 q 292 606 324 657 q 235 509 261 554 q 193 432 210 464 q 178 394 176 400 q 241 455 211 419 q 301 524 271 490 q 342 561 324 546 q 389 594 361 576 q 405 585 399 600 q 415 547 411 569 q 422 504 419 525 q 425 478 425 483 q 428 454 428 467 q 431 428 428 442 m 310 163 q 310 185 310 174 q 311 210 310 197 q 301 200 306 207 q 287 174 294 186 q 272 146 279 161 q 224 31 244 89 q 214 -97 204 -26 q 219 -114 217 -106 q 229 -129 221 -122 q 267 -87 253 -111 q 290 -28 282 -62 q 302 53 299 7 q 310 163 306 100 m 359 980 q 356 951 366 962 q 346 941 350 947 q 336 930 342 936 q 309 897 323 914 q 283 864 295 880 q 264 842 273 852 q 252 816 255 832 q 249 815 250 816 q 245 814 245 812 q 234 821 240 820 q 221 823 228 822 q 218 825 219 823 q 216 828 218 827 q 196 858 206 843 q 173 887 185 872 q 156 909 169 894 q 129 941 143 925 q 101 972 114 957 q 83 993 88 986 q 82 1004 81 1001 q 85 1006 83 1006 q 90 1006 88 1006 q 94 1006 92 1008 q 116 1004 106 1006 q 133 991 126 1003 q 146 976 135 987 q 170 951 157 964 q 194 927 183 939 q 207 913 205 916 q 214 908 211 909 q 221 911 216 906 q 235 929 228 920 q 249 947 242 937 q 263 962 256 955 q 278 979 270 970 q 287 989 283 985 q 298 998 292 993 q 317 1009 307 1005 q 341 1006 328 1013 q 353 994 350 1001 q 359 980 357 986 z "},"":{"ha":449,"x_min":4,"x_max":426,"o":"m 69 296 q 106 261 83 275 q 151 240 128 247 q 192 231 174 232 q 219 233 211 229 q 224 237 222 235 q 229 242 226 239 q 247 266 238 253 q 263 296 257 279 q 270 334 269 313 q 263 385 271 356 q 251 405 261 390 q 228 435 242 419 q 203 465 215 451 q 185 482 190 478 q 149 514 168 494 q 110 555 129 533 q 73 599 90 576 q 44 638 56 621 q 13 722 19 675 q 14 744 11 733 q 19 767 17 756 q 48 819 31 796 q 86 864 65 843 q 130 903 107 885 q 176 942 153 922 q 232 963 203 964 q 289 945 261 961 q 342 902 317 929 q 387 844 368 875 q 416 785 406 814 q 424 735 426 756 q 421 715 422 724 q 415 694 419 706 q 375 690 400 658 q 370 721 367 704 q 378 753 374 738 q 372 806 389 785 q 324 835 354 826 q 260 840 294 844 q 200 818 225 836 q 166 785 183 806 q 137 740 149 764 q 120 690 125 715 q 122 643 115 665 q 140 617 128 632 q 166 587 151 601 q 194 559 181 572 q 219 539 208 546 q 282 494 251 515 q 344 450 313 474 q 417 346 397 411 q 421 324 421 333 q 408 249 422 290 q 371 173 394 208 q 316 115 347 138 q 251 96 285 93 q 185 108 211 100 q 139 131 160 117 q 99 165 118 144 q 56 214 81 186 q 26 265 39 235 q 8 326 13 294 q 11 385 4 357 q 42 433 18 414 q 50 435 44 435 q 72 425 58 436 q 89 406 86 414 q 88 394 90 399 q 79 385 85 390 q 62 343 65 371 q 69 296 58 315 m 345 1178 q 342 1149 352 1159 q 332 1139 336 1144 q 322 1128 328 1133 q 295 1094 309 1111 q 269 1061 281 1077 q 250 1040 259 1050 q 239 1013 241 1030 q 235 1012 236 1013 q 232 1011 232 1009 q 220 1018 226 1017 q 207 1020 214 1019 q 204 1022 205 1020 q 203 1025 204 1024 q 182 1055 192 1040 q 160 1084 171 1069 q 142 1107 155 1091 q 115 1138 129 1122 q 87 1169 100 1154 q 69 1191 74 1184 q 68 1201 67 1199 q 71 1203 69 1203 q 76 1203 74 1203 q 81 1203 78 1206 q 102 1202 92 1203 q 119 1188 112 1200 q 132 1173 121 1185 q 156 1149 143 1161 q 180 1125 169 1136 q 193 1110 191 1114 q 200 1105 197 1107 q 207 1108 203 1103 q 221 1126 214 1117 q 235 1144 228 1135 q 249 1160 242 1152 q 264 1177 256 1167 q 273 1186 269 1182 q 284 1195 278 1191 q 304 1206 293 1202 q 327 1203 314 1210 q 340 1191 336 1199 q 345 1178 343 1184 z "},"":{"ha":585,"x_min":40,"x_max":506,"o":"m 383 7 q 342 11 357 -4 q 313 42 331 26 q 273 77 301 51 q 213 132 244 103 q 153 186 182 161 q 113 222 125 211 q 83 251 97 236 q 46 269 69 265 q 42 274 44 269 q 42 279 40 278 q 51 298 49 289 q 56 318 54 307 q 58 322 56 321 q 61 325 60 324 q 103 358 82 342 q 146 392 125 375 q 178 422 153 396 q 240 483 204 447 q 315 558 275 518 q 391 634 356 599 q 452 695 426 669 q 485 725 478 721 q 499 728 493 731 q 501 722 501 726 q 503 715 501 718 q 503 707 506 710 q 500 674 503 689 q 481 647 497 658 q 454 622 476 644 q 399 565 432 599 q 330 494 367 532 q 261 422 293 456 q 207 365 229 389 q 182 339 185 342 q 174 330 176 335 q 179 318 172 325 q 204 297 192 307 q 229 275 217 286 q 257 249 235 269 q 305 204 279 228 q 353 160 331 181 q 381 133 375 139 q 407 103 394 119 q 424 71 418 88 q 419 35 429 54 q 401 17 413 22 q 383 7 390 11 z "},"":{"ha":885,"x_min":8,"x_max":694,"o":"m 682 679 q 675 668 682 671 q 638 658 656 660 q 603 660 621 657 q 569 667 586 663 q 533 676 551 672 q 490 688 511 682 q 449 693 469 693 q 458 563 451 626 q 467 436 464 500 q 489 422 471 421 q 508 425 499 424 q 526 426 517 426 q 551 426 539 426 q 575 425 563 426 q 581 407 593 419 q 536 386 564 390 q 510 381 524 383 q 483 376 497 379 q 467 372 471 375 q 461 356 463 368 q 468 292 467 328 q 474 220 469 256 q 490 156 478 185 q 529 118 501 128 q 589 143 560 131 q 646 174 618 156 q 665 179 656 179 q 683 176 674 179 q 688 164 694 174 l 675 153 q 634 122 654 138 q 590 96 614 107 q 538 71 563 83 q 490 50 514 58 q 442 40 467 42 q 389 47 417 39 q 358 67 374 50 q 336 101 343 83 q 272 65 306 79 q 208 49 239 50 q 138 81 168 56 q 88 140 108 106 q 56 213 68 174 q 39 290 43 253 q 34 310 38 300 q 26 329 31 319 q 13 370 15 349 q 10 413 10 392 q 9 481 8 447 q 14 549 10 515 q 27 608 19 572 q 49 672 35 643 q 86 715 64 701 q 144 707 108 728 q 172 701 158 701 q 197 713 185 701 q 224 725 210 721 q 261 726 243 733 q 285 719 272 722 q 310 711 299 715 l 308 763 q 321 781 310 775 q 347 788 332 786 q 376 788 361 790 q 399 782 390 786 q 433 771 415 774 q 468 764 450 768 q 540 749 504 756 q 610 731 575 743 l 646 724 q 672 719 664 722 q 681 710 679 715 q 681 698 682 706 q 682 679 681 690 m 214 107 q 235 126 226 108 q 249 165 243 143 q 259 209 254 188 q 268 242 264 231 q 287 312 283 276 q 293 383 290 347 q 295 480 296 432 q 297 576 294 528 q 286 653 297 613 q 276 667 281 664 q 246 676 264 676 q 215 668 228 676 q 199 653 206 661 q 193 633 192 644 q 194 610 196 622 q 190 588 192 599 q 185 569 190 576 q 174 554 181 561 q 162 568 163 558 q 154 586 161 578 q 146 564 147 574 q 140 543 143 557 q 135 523 138 532 q 133 503 133 514 q 133 434 133 475 q 135 348 133 393 q 140 259 136 303 q 153 181 144 215 q 177 125 163 146 q 214 107 192 104 z "},"":{"ha":215,"x_min":39,"x_max":201,"o":"m 39 717 q 40 728 39 722 q 72 818 56 774 q 121 893 89 863 q 135 899 128 897 q 149 899 143 901 q 160 878 160 892 q 157 853 161 864 q 149 823 154 838 q 142 794 144 808 q 141 772 138 782 q 151 757 144 763 l 168 740 q 193 657 201 711 q 184 634 190 643 q 169 625 178 625 q 94 631 133 621 q 76 642 86 632 q 58 665 67 651 q 44 692 50 678 q 39 717 39 707 z "},"":{"ha":258,"x_min":36,"x_max":199,"o":"m 199 808 q 197 797 199 803 q 165 707 182 751 q 117 632 149 663 q 102 626 110 628 q 89 626 94 624 q 77 647 78 633 q 81 672 76 661 q 88 702 83 688 q 96 731 93 717 q 97 753 100 743 q 86 768 93 763 l 69 785 q 44 868 36 814 q 53 891 47 882 q 68 900 60 900 q 143 894 104 904 q 161 883 151 893 q 179 860 171 874 q 193 833 188 847 q 199 808 199 818 z "},"":{"ha":476,"x_min":39,"x_max":383,"o":"m 39 717 q 40 728 39 722 q 72 818 56 774 q 121 893 89 863 q 135 899 128 897 q 149 899 143 901 q 160 878 160 892 q 157 853 161 864 q 149 823 154 838 q 142 794 144 808 q 141 772 138 782 q 151 757 144 763 l 168 740 q 193 657 201 711 q 184 634 190 643 q 169 625 178 625 q 94 631 133 621 q 76 642 86 632 q 58 665 67 651 q 44 692 50 678 q 39 717 39 707 m 221 717 q 222 728 221 722 q 254 818 238 774 q 303 893 271 863 q 317 899 310 897 q 331 899 325 901 q 342 878 342 892 q 339 853 343 864 q 331 823 336 838 q 324 794 326 808 q 323 772 319 782 q 333 757 326 763 l 350 740 q 375 657 383 711 q 366 634 372 643 q 351 625 360 625 q 276 631 315 621 q 258 642 268 632 q 240 665 249 651 q 226 692 232 678 q 221 717 221 707 z "},"":{"ha":424,"x_min":36,"x_max":382,"o":"m 199 808 q 197 797 199 803 q 165 707 182 751 q 117 632 149 663 q 102 626 110 628 q 89 626 94 624 q 77 647 78 633 q 81 672 76 661 q 88 702 83 688 q 96 731 93 717 q 97 753 100 743 q 86 768 93 763 l 69 785 q 44 868 36 814 q 53 891 47 882 q 68 900 60 900 q 143 894 104 904 q 161 883 151 893 q 179 860 171 874 q 193 833 188 847 q 199 808 199 818 m 382 808 q 381 797 382 803 q 349 707 365 751 q 300 632 332 663 q 285 626 293 628 q 272 626 278 624 q 260 647 261 633 q 264 672 260 661 q 272 702 267 688 q 279 731 276 717 q 280 753 283 743 q 269 768 276 763 l 253 785 q 228 868 219 814 q 237 891 231 882 q 251 900 243 900 q 326 894 288 904 q 344 883 335 893 q 363 860 354 874 q 376 833 371 847 q 382 808 382 818 z "},"":{"ha":342,"x_min":33,"x_max":275,"o":"m 33 479 q 46 531 35 507 q 75 571 57 554 q 116 597 93 588 q 164 604 139 606 q 197 590 178 603 q 233 559 215 576 q 263 523 250 542 q 275 492 275 504 q 233 397 268 425 q 151 365 197 369 q 110 375 131 364 q 72 403 89 386 q 44 441 56 421 q 33 479 33 461 z "},"":{"ha":874,"x_min":139,"x_max":740,"o":"m 618 454 q 644 447 633 454 q 665 432 656 440 q 681 421 674 424 q 694 415 688 418 q 708 409 701 413 q 721 397 714 406 q 708 367 740 374 q 601 353 668 357 q 462 349 535 349 q 321 354 389 350 q 211 367 253 358 q 189 371 200 369 q 168 376 178 372 q 150 395 156 383 q 142 419 144 407 q 145 431 139 428 q 157 433 151 435 q 380 422 269 418 q 603 453 490 426 q 610 453 606 453 q 618 454 614 454 z "},"":{"ha":944,"x_min":85,"x_max":899,"o":"m 776 440 q 803 433 792 440 q 824 418 814 426 q 839 407 832 410 q 853 401 846 404 q 866 395 860 399 q 879 383 872 392 q 867 353 899 360 q 785 342 840 346 q 661 335 731 338 q 515 331 592 332 q 367 332 438 331 q 241 336 297 333 q 157 344 185 339 q 135 349 146 347 q 114 354 124 350 q 96 373 101 361 q 88 397 90 385 q 91 409 85 406 q 103 411 97 413 q 193 403 140 406 q 307 401 246 401 q 432 404 368 401 q 557 412 496 407 q 671 424 618 417 q 761 439 724 431 q 768 440 764 439 q 776 440 772 440 z "},"":{"ha":642,"x_min":103,"x_max":553,"o":"m 113 921 q 139 935 124 929 q 169 940 151 939 q 211 935 188 942 q 250 919 235 928 q 280 901 265 910 q 311 887 294 893 q 353 879 328 881 q 401 883 378 878 q 444 897 425 889 q 478 916 464 906 q 500 935 493 926 q 508 933 504 935 q 515 931 511 932 q 525 925 519 929 q 544 901 535 915 q 547 879 553 888 q 531 865 544 875 q 499 842 518 854 q 458 819 481 829 q 417 807 436 808 q 332 812 376 803 q 256 844 288 821 q 189 866 224 867 q 135 850 154 865 q 117 849 125 843 q 106 867 110 854 q 103 894 103 879 q 113 921 104 910 z "},"":{"ha":654,"x_min":63,"x_max":560,"o":"m 93 835 l 92 836 q 73 856 81 847 q 64 881 65 865 q 68 888 63 885 q 106 884 83 882 q 144 889 129 886 q 179 895 163 892 q 214 901 196 899 q 236 904 225 904 q 258 907 247 904 q 272 908 265 907 q 285 911 278 910 q 317 904 301 913 q 351 869 342 892 q 356 862 354 865 q 358 856 357 858 q 357 843 361 849 q 346 838 353 838 q 292 837 318 835 q 242 833 267 839 q 236 831 239 833 q 239 822 238 826 q 242 813 240 817 q 263 736 257 775 q 272 657 269 697 q 276 576 274 617 q 289 496 279 535 q 282 479 292 485 q 274 472 276 474 q 228 481 247 465 q 193 511 210 496 q 190 518 188 514 q 188 581 190 551 q 183 640 186 611 q 178 699 179 669 q 179 761 176 729 q 178 787 178 774 q 178 813 178 800 q 177 818 178 815 q 176 824 176 821 q 160 828 171 828 q 136 828 149 829 q 112 828 124 828 q 93 835 100 829 m 293 794 l 293 796 l 293 799 q 301 795 297 796 q 308 792 306 794 q 328 789 315 789 q 361 778 350 789 q 371 765 365 771 q 381 753 376 760 q 387 741 383 746 q 394 729 390 736 q 399 721 397 725 q 403 711 401 717 q 418 683 407 697 q 419 693 419 686 q 423 706 422 700 q 426 718 424 711 q 428 728 428 724 q 429 739 428 732 q 431 746 431 742 q 432 754 431 750 q 438 783 435 769 q 449 808 440 796 l 449 818 q 460 829 449 829 q 472 828 467 829 q 483 828 478 828 q 504 814 500 828 q 540 681 532 747 q 557 547 547 614 q 558 536 558 542 q 560 524 558 531 q 551 514 560 515 q 523 513 540 507 q 496 524 506 519 q 475 550 479 531 q 472 563 475 554 q 469 579 471 571 q 467 597 468 588 q 465 608 465 603 q 464 618 465 613 q 461 642 461 631 q 461 665 461 654 l 461 704 q 460 725 461 718 q 445 673 446 701 q 444 621 444 644 q 440 614 444 614 q 423 615 429 613 q 410 624 417 617 q 386 649 396 636 q 368 669 376 661 q 377 625 371 646 q 386 583 383 604 q 390 563 389 572 q 392 542 390 553 q 394 522 394 528 q 394 514 394 518 q 388 507 393 510 q 350 499 368 492 q 325 531 332 507 q 309 595 313 561 q 305 663 306 629 q 303 729 304 696 q 293 794 301 763 z "},"":{"ha":378,"x_min":-8,"x_max":313,"o":"m 143 342 q 133 360 139 350 q 122 382 128 371 q 109 403 115 393 q 99 421 103 414 q 83 426 93 428 q 68 422 76 424 q 51 417 60 419 q 17 428 31 410 q 33 432 22 429 q 55 439 44 435 q 72 449 65 443 q 72 463 78 456 q 51 524 57 497 q 64 585 44 550 q 79 603 67 589 q 106 632 92 617 q 133 659 121 647 q 150 674 146 671 q 169 683 161 681 q 189 681 178 685 q 223 667 207 674 q 256 651 239 660 q 263 649 257 651 q 210 549 244 596 q 139 467 175 503 q 133 457 133 460 q 136 447 132 454 q 185 385 156 414 q 244 328 215 357 q 292 266 272 299 q 313 192 313 233 q 301 141 310 167 q 278 94 293 115 q 243 56 264 72 q 194 35 222 40 q 164 33 179 31 q 135 43 149 36 q 103 63 118 53 q 74 86 88 72 q 33 123 54 106 q -7 160 13 140 q 3 194 -8 176 q 19 220 11 207 q 33 247 26 233 q 41 263 38 254 q 49 281 44 272 q 61 290 58 293 q 63 276 64 286 q 58 253 61 265 q 54 238 56 240 q 49 203 49 222 q 68 182 49 185 q 108 185 88 174 q 142 219 128 196 q 158 274 156 242 q 143 342 160 306 m 107 483 q 133 506 117 488 q 165 545 149 524 q 192 587 181 567 q 207 617 204 607 q 197 614 203 617 q 174 602 185 608 q 156 585 164 596 q 130 555 143 569 q 110 521 117 540 q 107 483 100 499 m 280 874 q 276 847 286 857 q 267 838 271 843 q 258 827 263 833 q 233 796 246 812 q 208 765 220 781 q 191 745 200 755 q 180 721 182 736 q 177 720 178 721 q 174 719 174 717 q 163 725 168 724 q 151 727 157 726 q 148 729 149 727 q 147 732 148 731 q 127 760 137 746 q 107 787 117 773 q 90 808 102 794 q 65 837 79 822 q 39 866 52 852 q 22 886 27 879 q 21 896 20 894 q 24 898 22 898 q 29 898 27 898 q 33 898 31 900 q 53 896 44 898 q 69 884 62 895 q 81 870 71 881 q 103 847 92 859 q 126 825 115 835 q 138 811 136 814 q 144 806 141 808 q 151 809 147 805 q 164 826 157 818 q 177 843 170 834 q 190 857 183 850 q 204 873 196 864 q 213 882 208 878 q 222 890 217 886 q 241 901 231 897 q 262 898 251 904 q 274 887 271 894 q 280 874 278 879 z "},"":{"ha":575,"x_min":83,"x_max":549,"o":"m 206 721 q 247 717 232 732 q 276 686 258 701 q 316 650 288 675 q 376 596 344 625 q 435 541 407 567 q 476 506 464 515 q 506 477 492 492 q 543 458 519 463 q 547 454 544 458 q 547 449 549 450 q 538 430 540 439 q 533 410 535 421 q 531 406 533 407 q 528 403 529 404 q 485 369 507 386 q 443 336 464 353 q 410 306 436 331 q 349 245 385 281 q 274 169 314 210 q 198 94 233 129 q 137 33 163 58 q 104 3 111 7 q 90 0 96 -3 q 88 6 88 1 q 86 13 88 10 q 86 21 83 18 q 89 54 86 39 q 108 81 92 69 q 135 106 113 83 q 190 163 157 129 q 259 234 222 196 q 328 306 296 272 q 382 363 360 339 q 407 389 404 386 q 415 398 413 393 q 410 410 417 403 q 385 431 397 421 q 360 453 372 442 q 332 479 354 458 q 284 524 310 500 q 236 567 258 547 q 208 594 214 588 q 182 625 194 608 q 165 657 171 640 q 169 693 160 674 q 188 711 176 706 q 206 721 199 717 z "},"":{"ha":790,"x_min":-10,"x_max":794,"o":"m 785 289 q 793 277 794 282 q 788 261 792 272 q 741 172 767 215 q 683 95 715 128 q 613 46 651 63 q 528 38 575 29 q 454 88 482 56 q 412 159 426 119 q 394 242 397 199 q 396 326 392 286 q 381 315 389 319 q 365 307 374 311 q 343 290 342 296 q 353 211 351 256 q 345 124 356 167 q 308 49 335 82 q 235 1 282 15 q 167 -3 200 -7 q 103 11 135 0 q 72 36 82 21 q 2 226 14 124 q 32 426 -10 328 q 36 438 36 431 q 40 456 36 443 q 50 481 44 468 q 63 506 56 494 q 74 521 69 517 q 110 525 86 529 q 131 522 121 522 q 153 519 142 521 q 168 528 167 519 q 186 553 172 547 q 215 563 200 560 q 235 565 226 565 q 256 563 244 564 q 284 538 271 563 q 308 480 297 513 q 324 417 318 447 q 333 378 331 388 l 342 340 q 367 349 357 343 q 386 364 376 354 q 398 376 393 371 q 408 389 403 382 q 421 428 414 411 q 435 460 428 446 q 474 522 450 488 q 528 590 499 557 q 594 647 558 622 q 671 681 631 672 q 697 673 681 683 q 729 647 714 663 q 755 615 744 632 q 764 589 765 599 q 768 491 778 532 q 735 422 758 450 q 679 374 711 393 q 616 339 647 354 q 560 310 585 324 q 525 281 535 297 q 513 242 515 264 q 513 199 510 221 q 522 158 515 178 q 539 124 529 138 q 567 110 551 108 q 635 134 608 115 q 684 179 663 153 q 725 236 706 206 q 771 296 744 267 q 778 292 774 293 q 785 289 782 292 m 699 526 q 635 492 661 510 q 589 454 608 475 q 556 406 569 433 q 532 342 543 379 q 570 365 550 356 q 610 382 590 374 q 647 401 631 390 q 676 428 664 411 q 694 478 689 447 q 699 526 699 508 m 206 69 q 248 93 232 67 q 272 156 264 119 q 283 231 281 193 q 286 288 286 268 q 283 293 283 290 q 279 297 282 296 q 248 313 263 304 q 218 331 233 322 q 192 357 201 340 q 181 374 186 367 q 168 393 175 382 q 163 376 165 383 q 158 360 160 368 q 146 322 151 335 q 133 285 140 308 l 132 285 l 135 249 l 138 221 q 145 192 142 206 q 154 164 149 178 q 163 142 156 157 q 177 110 169 126 q 192 82 185 94 q 206 69 200 69 m 288 344 q 284 403 290 375 q 268 460 278 432 q 263 472 267 467 q 256 483 258 476 q 247 502 251 493 q 238 519 243 511 q 222 532 232 529 q 213 530 215 535 q 208 522 211 525 q 197 456 190 488 q 200 444 200 450 q 201 433 200 439 q 231 376 207 397 q 286 339 254 354 q 287 341 286 340 q 288 343 288 342 l 288 344 z "},"":{"ha":283,"x_min":33,"x_max":251,"o":"m 33 832 q 48 863 33 847 q 78 876 63 878 q 108 863 94 874 q 125 828 122 853 q 109 802 125 818 q 82 786 93 786 q 49 799 63 785 q 33 832 35 813 m 160 835 q 174 865 160 850 q 204 879 189 881 q 235 866 221 876 q 251 831 249 856 q 235 805 251 821 q 208 789 219 789 q 175 801 189 788 q 160 835 161 815 z "},"":{"ha":510,"x_min":-42,"x_max":471,"o":"m -42 808 q -5 815 -21 814 q 25 816 11 817 q 52 814 39 815 q 81 813 65 813 q 126 782 108 808 q 136 767 132 771 q 158 743 144 758 q 185 711 172 728 q 210 679 199 694 q 225 656 221 664 q 242 623 233 639 q 261 590 251 607 q 276 561 268 575 q 292 533 283 547 q 300 518 296 525 q 308 503 304 511 q 313 504 310 504 q 321 524 317 514 q 329 543 325 533 q 344 592 336 568 q 358 640 351 617 q 363 658 361 649 q 365 675 364 667 q 374 712 368 694 q 388 747 379 729 q 394 766 390 757 q 401 785 397 775 q 413 813 407 800 q 424 840 418 826 q 443 860 428 853 q 453 860 450 863 q 460 851 457 858 q 467 804 471 826 q 451 758 463 782 q 412 611 432 692 q 378 456 392 531 q 375 440 376 449 q 369 425 374 432 q 377 338 375 381 q 381 252 379 294 q 387 168 383 210 q 399 85 390 126 q 393 64 401 72 q 377 49 383 56 q 364 37 371 42 q 349 28 357 32 q 328 25 340 25 q 309 26 318 25 q 290 25 300 26 q 240 35 258 24 q 210 76 221 47 q 201 115 204 94 q 192 183 194 149 q 189 251 190 217 q 188 292 188 271 q 190 333 189 313 q 178 368 190 351 q 102 472 133 417 q 46 589 71 528 q 10 685 26 638 q -26 781 -7 732 q -33 794 -29 788 q -42 808 -37 800 m 108 967 q 129 1011 108 989 q 172 1031 150 1033 q 216 1012 196 1027 q 240 961 236 997 q 217 924 240 947 q 178 900 194 900 q 130 919 150 898 q 108 967 110 939 m 291 971 q 312 1015 291 993 q 355 1035 333 1037 q 399 1016 379 1031 q 423 965 419 1001 q 400 928 423 951 q 361 904 377 904 q 313 923 333 902 q 291 971 293 943 z "},"":{"ha":322,"x_min":44,"x_max":315,"o":"m 315 -224 q 313 -256 313 -240 q 310 -289 313 -272 q 290 -308 307 -299 q 267 -324 272 -318 q 246 -336 258 -331 q 219 -347 233 -342 q 191 -353 204 -351 q 168 -353 178 -356 q 158 -350 164 -353 q 151 -343 153 -347 q 135 -293 139 -321 q 106 -156 119 -225 q 89 -15 92 -86 q 83 66 88 25 q 76 147 79 107 q 72 233 72 199 q 72 296 71 268 q 74 350 72 324 q 75 410 75 376 q 80 429 78 419 q 82 450 82 439 q 108 476 85 476 q 146 462 128 476 q 163 422 164 447 q 171 316 156 368 q 210 203 186 264 q 260 70 233 143 q 306 -99 288 -3 q 310 -162 308 -131 q 315 -224 313 -193 m 44 629 q 51 651 44 639 q 67 674 57 664 q 90 690 78 683 q 114 696 101 696 q 161 676 140 693 q 186 621 182 660 q 179 603 186 614 q 162 582 172 592 q 140 565 151 572 q 121 556 129 557 q 69 576 92 554 q 44 629 46 597 z "},"":{"ha":440,"x_min":11,"x_max":424,"o":"m 408 204 q 367 106 385 147 q 322 40 349 64 q 328 -109 325 -39 q 336 -247 332 -179 q 335 -256 336 -253 q 332 -262 333 -260 q 335 -291 335 -276 q 332 -317 336 -306 l 329 -342 q 314 -356 328 -354 q 285 -352 300 -357 q 257 -337 269 -347 q 244 -315 244 -328 q 245 -166 246 -247 q 242 8 244 -85 q 209 10 226 7 q 169 17 192 14 q 129 35 149 21 q 54 131 82 72 q 32 195 39 163 q 18 263 25 228 q 13 332 11 297 q 21 401 15 367 q 25 422 24 413 q 29 443 26 432 q 92 588 50 519 q 120 614 103 600 q 157 641 138 628 q 195 667 176 654 q 228 689 214 679 q 226 832 226 767 q 226 945 225 897 q 231 1021 228 993 q 242 1049 235 1049 q 256 1044 247 1049 q 272 1031 264 1039 q 285 1016 279 1024 q 290 1001 290 1008 q 294 969 292 986 q 296 938 296 953 q 308 710 304 836 q 325 708 319 710 q 350 705 338 707 q 375 701 363 703 q 409 672 400 694 q 407 629 418 650 q 339 571 383 590 q 313 561 326 563 q 317 341 315 453 q 322 119 319 229 q 349 175 338 143 q 358 203 353 190 q 371 232 364 217 l 386 274 q 392 286 389 281 q 397 299 394 292 q 419 252 415 275 q 408 204 424 229 m 229 614 q 199 550 206 582 q 185 502 192 526 q 172 453 178 478 q 158 262 150 360 q 221 86 165 164 q 243 68 231 72 q 236 345 240 204 q 229 614 232 486 m 313 588 q 342 629 329 607 q 358 675 356 651 q 310 675 333 682 q 310 631 310 653 q 313 588 311 610 z "},"":{"ha":510,"x_min":-87,"x_max":531,"o":"m 356 547 q 382 540 371 547 q 403 525 393 533 q 433 493 418 510 q 461 460 447 476 q 449 429 481 436 q 407 423 433 425 q 352 419 381 421 q 297 418 324 418 q 256 421 271 418 q 245 256 253 338 q 229 96 238 174 l 236 100 q 257 124 243 106 q 285 163 271 142 q 313 202 300 183 q 335 226 326 221 q 371 244 351 239 q 410 249 390 249 q 433 249 421 250 q 456 247 444 247 q 477 240 469 246 q 492 222 485 233 q 513 177 506 201 q 524 129 519 153 q 501 101 531 101 l 450 106 q 433 101 439 106 q 351 54 389 82 q 274 -1 313 26 q 197 -51 236 -29 q 111 -82 157 -74 q 102 -82 107 -83 q 90 -78 97 -81 l 160 31 q 151 38 154 36 q 124 63 135 49 q 106 94 114 78 q 76 172 85 132 q 65 253 68 213 q 60 334 61 294 q 53 411 58 374 q 16 410 33 410 q -15 414 -1 411 q -37 418 -26 417 q -58 424 -49 419 q -76 442 -71 431 q -85 467 -82 454 q -81 477 -87 475 q -69 481 -75 479 l -21 489 l 50 501 q 49 574 49 538 q 49 647 49 611 q 46 746 49 697 q 29 843 43 794 q 23 860 26 851 q 15 876 19 868 q 53 892 33 892 q 94 889 74 893 q 126 881 110 886 q 157 871 142 876 q 182 844 172 865 q 232 694 215 772 q 253 535 249 617 q 265 538 257 535 q 281 539 267 538 q 310 542 294 540 q 340 546 326 544 q 356 547 353 547 z "},"":{"ha":693,"x_min":39,"x_max":638,"o":"m 631 681 q 602 651 624 671 q 555 610 581 632 q 506 569 529 589 q 471 542 482 550 q 481 503 478 519 q 486 479 483 486 q 503 338 496 410 q 492 208 510 265 q 528 170 506 193 q 572 125 550 147 l 625 72 q 601 43 614 56 q 579 26 590 32 q 558 28 568 21 q 540 44 551 32 q 514 74 528 57 q 485 109 500 90 q 456 144 469 128 q 388 103 431 117 q 320 98 353 94 q 256 113 288 101 q 225 138 235 122 l 201 176 q 167 140 185 160 q 135 106 150 121 q 101 68 118 86 q 71 90 83 79 q 53 111 60 100 q 54 133 47 122 q 71 153 58 140 q 100 181 83 165 q 136 214 117 197 q 172 244 156 231 q 152 385 150 314 q 185 528 154 457 q 189 539 189 532 q 197 568 189 549 q 156 598 182 579 q 103 635 129 617 q 39 678 72 656 q 57 711 47 697 q 76 731 65 722 q 99 733 88 739 q 122 719 107 731 q 157 691 138 707 q 196 657 176 675 q 232 625 215 639 q 247 628 239 628 q 263 626 254 628 q 284 623 274 624 q 306 621 294 622 q 321 629 319 621 q 339 655 325 649 q 368 664 353 661 q 388 666 379 667 q 408 664 397 665 q 431 648 419 664 q 450 608 442 632 q 487 644 464 621 q 532 692 510 668 q 585 749 557 718 q 614 725 601 738 q 631 703 625 714 q 631 681 638 692 m 358 171 q 419 247 401 203 q 439 343 436 292 q 434 450 442 394 q 421 561 426 506 q 415 573 419 568 q 408 585 411 578 q 400 603 404 594 q 390 621 396 613 q 375 633 385 631 q 366 631 368 636 q 361 624 364 626 q 329 565 343 590 q 306 515 315 540 q 291 458 296 489 q 286 386 286 428 l 285 386 l 288 350 l 290 322 q 298 293 294 307 q 307 265 301 279 q 315 243 308 258 q 330 212 322 228 q 345 183 338 196 q 358 171 353 171 z "},"":{"ha":510,"x_min":-42,"x_max":494,"o":"m 386 389 q 413 382 401 389 q 433 367 424 375 q 457 345 449 351 q 479 322 465 339 q 482 306 489 311 q 460 299 475 301 q 379 293 417 289 l 382 233 q 435 229 407 233 q 457 225 446 226 q 478 219 468 224 q 490 211 490 213 q 492 197 489 210 q 488 187 494 189 q 476 183 482 185 l 428 175 l 386 167 q 399 85 390 124 q 393 64 401 72 q 377 49 383 56 q 364 37 371 42 q 349 28 357 32 q 328 25 340 25 q 309 26 318 25 q 290 25 300 26 q 240 35 258 24 q 210 76 221 47 q 201 115 204 94 q 197 132 199 124 q 194 149 196 140 q 109 178 135 158 q 83 199 83 197 q 81 215 74 210 q 103 222 88 219 q 148 228 126 228 q 189 226 169 229 l 189 251 q 188 269 188 260 q 188 288 188 278 q 128 292 157 285 q 106 296 117 294 q 85 301 94 297 q 73 310 72 308 q 71 324 74 311 q 74 334 68 332 q 86 338 81 336 l 135 346 l 185 356 q 178 368 183 360 q 102 472 133 417 q 46 589 71 528 q 10 685 26 638 q -26 781 -7 732 q -33 794 -29 788 q -42 808 -37 800 q -5 815 -21 814 q 25 816 11 817 q 52 814 39 815 q 81 813 65 813 q 126 782 108 808 q 136 767 132 771 q 158 743 144 758 q 185 711 172 728 q 210 679 199 694 q 225 656 221 664 q 242 623 233 639 q 261 590 251 607 q 276 561 268 575 q 292 533 283 547 l 308 503 q 313 504 310 504 l 329 543 q 344 592 336 568 q 358 640 351 617 q 363 658 361 649 q 365 675 364 667 q 374 712 368 694 q 388 747 379 729 q 394 766 390 757 q 401 785 397 775 q 413 813 407 800 q 424 840 418 826 q 443 860 428 853 q 453 860 450 863 q 460 851 457 858 q 467 804 471 826 q 451 758 463 782 q 412 611 432 692 q 378 456 392 531 q 375 440 376 449 q 369 425 374 432 l 374 388 q 380 388 376 388 q 386 389 383 389 z "},"":{"ha":403,"x_min":138,"x_max":260,"o":"m 151 474 q 144 747 147 618 q 139 973 140 876 q 141 1127 138 1069 q 154 1185 144 1185 q 173 1179 160 1185 q 199 1165 186 1174 q 223 1149 213 1157 q 233 1133 233 1140 q 237 1101 235 1118 q 239 1069 239 1085 q 251 800 250 942 q 253 481 253 658 l 151 474 m 251 278 q 253 63 251 165 q 260 -122 254 -39 q 257 -131 257 -128 q 256 -137 257 -135 q 259 -166 258 -151 q 256 -192 260 -181 l 253 -217 q 236 -229 251 -229 q 203 -222 221 -229 q 171 -203 185 -215 q 157 -179 157 -192 q 158 34 160 -87 q 153 290 156 156 l 251 278 z "},"":{"ha":449,"x_min":-29,"x_max":426,"o":"m 311 160 q 383 56 364 121 q 388 33 388 43 q 375 -41 389 0 q 338 -117 361 -82 q 283 -175 314 -153 q 218 -194 251 -197 q 152 -182 178 -190 q 106 -160 126 -174 q 66 -125 85 -146 q 22 -76 47 -104 q -8 -26 6 -56 q -25 35 -21 4 q -22 95 -29 67 q 8 143 -15 124 q 17 144 11 144 q 39 135 25 146 q 56 115 53 124 q 54 104 57 108 q 46 94 51 100 q 28 53 32 81 q 36 6 25 25 q 72 -29 50 -15 q 117 -51 94 -43 q 159 -60 140 -58 q 186 -57 178 -61 q 191 -53 189 -56 q 196 -49 193 -51 q 214 -24 204 -37 q 230 6 224 -11 q 237 44 236 22 q 229 94 238 65 q 218 115 228 100 q 195 145 208 129 q 169 174 182 161 q 151 192 157 188 q 115 224 135 204 q 76 265 96 243 q 40 308 57 286 q 11 347 22 331 q -21 432 -14 385 q -19 454 -22 443 q -14 476 -17 465 q 40 560 6 525 q 114 628 75 596 q 74 675 93 651 q 44 717 56 699 q 13 801 19 754 q 14 824 11 813 q 19 846 17 835 q 48 899 31 875 q 86 943 65 922 q 130 983 107 964 q 176 1021 153 1001 q 232 1042 203 1043 q 289 1024 261 1040 q 342 981 317 1008 q 387 924 368 954 q 416 864 406 893 q 424 814 426 835 q 421 794 422 803 q 415 774 419 785 q 375 769 400 738 q 370 800 367 783 q 378 832 374 817 q 372 885 389 864 q 324 915 354 906 q 260 919 294 924 q 200 897 225 915 q 166 864 183 885 q 137 819 149 843 q 120 769 125 794 q 122 722 115 744 q 140 696 128 711 q 166 666 151 681 q 194 638 181 651 q 219 618 208 625 q 282 574 251 594 q 344 529 313 553 q 417 425 397 490 q 421 403 421 413 q 412 338 422 374 q 383 270 401 303 q 338 213 364 238 q 285 178 313 188 q 298 169 292 174 q 311 160 304 164 m 167 528 q 133 494 150 515 q 103 449 115 474 q 87 400 92 425 q 89 353 82 375 q 125 329 106 339 q 163 315 144 319 q 197 309 182 310 q 219 313 213 308 q 224 316 222 314 q 229 321 226 318 q 247 345 238 332 q 263 375 257 358 q 270 413 269 392 q 263 464 271 435 q 240 499 260 474 q 201 544 219 525 q 183 538 192 542 q 167 528 174 533 z "},"":{"ha":906,"x_min":40,"x_max":792,"o":"m 383 7 q 342 11 357 -4 q 313 42 331 26 q 273 77 301 51 q 213 132 244 103 q 153 186 182 161 q 113 222 125 211 q 83 251 97 236 q 46 269 69 265 q 42 274 44 269 q 42 279 40 278 q 51 298 49 289 q 56 318 54 307 q 58 322 56 321 q 61 325 60 324 q 103 358 82 342 q 146 392 125 375 q 178 422 153 396 q 240 483 204 447 q 315 558 275 518 q 391 634 356 599 q 452 695 426 669 q 485 725 478 721 q 499 728 493 731 q 501 722 501 726 q 503 715 501 718 q 503 707 506 710 q 500 674 503 689 q 481 647 497 658 q 454 622 476 644 q 399 565 432 599 q 330 494 367 532 q 261 422 293 456 q 207 365 229 389 q 182 339 185 342 q 174 330 176 335 q 179 318 172 325 q 204 297 192 307 q 229 275 217 286 q 257 249 235 269 q 305 204 279 228 q 353 160 331 181 q 381 133 375 139 q 407 103 394 119 q 424 71 418 88 q 419 35 429 54 q 401 17 413 22 q 383 7 390 11 m 669 7 q 628 11 643 -4 q 599 42 617 26 q 559 77 588 51 q 499 132 531 103 q 440 186 468 161 q 399 222 411 211 q 369 251 383 236 q 332 269 356 265 q 328 274 331 269 q 328 279 326 278 q 338 298 335 289 q 342 318 340 307 q 344 322 342 321 q 347 325 346 324 q 390 358 368 342 q 432 392 411 375 q 465 422 439 396 q 526 483 490 447 q 601 558 561 518 q 677 634 642 599 q 738 695 713 669 q 771 725 764 721 q 785 728 779 731 q 788 722 788 726 q 789 715 788 718 q 789 707 792 710 q 786 674 789 689 q 767 647 783 658 q 740 622 763 644 q 685 565 718 599 q 616 494 653 532 q 547 422 579 456 q 493 365 515 389 q 468 339 471 342 q 465 318 456 328 q 490 297 478 307 q 515 275 503 286 q 543 249 521 269 q 591 204 565 228 q 639 160 617 181 q 667 133 661 139 q 693 103 681 119 q 710 71 704 88 q 706 35 715 54 q 688 17 699 22 q 669 7 676 11 z "},"":{"ha":576,"x_min":44,"x_max":536,"o":"m 411 101 q 438 94 426 101 q 458 79 449 88 q 488 47 474 64 q 517 14 503 31 q 504 -17 536 -10 q 444 -22 474 -24 q 383 -15 414 -21 q 365 -11 374 -12 q 346 -10 356 -10 q 332 -12 339 -10 q 318 -17 325 -15 q 241 -21 279 -18 q 165 -17 203 -24 q 143 -12 154 -14 q 122 -7 132 -11 q 104 12 110 0 q 96 36 99 24 q 99 47 93 44 q 111 50 106 49 q 135 54 124 53 q 160 58 147 56 q 190 65 175 61 q 219 71 204 68 q 271 78 246 75 q 322 86 296 82 q 358 92 340 89 q 396 100 376 96 q 403 101 399 100 q 411 101 407 101 m 460 343 q 433 340 451 342 q 395 335 415 338 q 357 331 375 333 q 331 328 339 329 q 313 292 307 324 q 314 272 313 285 q 317 245 315 260 q 321 217 319 231 q 322 199 322 204 q 326 169 325 183 q 329 142 326 156 q 328 124 332 129 q 313 122 325 119 q 299 126 306 124 q 286 132 293 129 q 265 140 275 136 q 246 151 256 144 q 217 199 219 167 q 215 217 217 204 q 213 244 214 231 q 210 271 211 258 q 208 290 208 283 q 196 304 208 304 q 181 305 192 304 q 158 307 169 306 q 135 309 146 308 q 119 310 124 310 q 101 312 110 311 q 82 315 92 313 q 69 324 74 318 q 52 352 60 338 q 44 385 44 367 q 49 390 44 388 q 57 394 54 393 q 72 395 64 396 q 86 396 79 394 q 108 398 94 397 q 137 400 122 399 q 165 402 151 401 q 188 404 179 403 q 206 425 208 408 q 204 456 206 438 q 201 496 203 475 q 197 536 199 517 q 196 568 196 556 q 194 569 196 569 q 192 586 194 575 q 203 588 199 586 q 215 589 208 589 q 257 553 246 582 q 263 532 260 546 q 269 502 265 518 q 274 472 272 486 q 279 451 276 458 q 290 435 285 438 q 308 433 294 432 q 340 436 319 435 q 384 440 361 438 q 428 443 407 442 q 460 444 449 444 q 494 425 482 444 q 512 402 503 414 q 528 379 521 390 q 533 365 531 372 q 532 353 535 358 q 524 346 531 349 q 511 342 518 343 q 486 341 499 340 q 460 342 474 342 l 460 343 z "},"":{"ha":324,"x_min":57,"x_max":271,"o":"m 65 772 q 71 809 57 789 q 109 849 85 829 q 161 887 133 868 q 208 919 189 906 q 216 920 211 921 q 225 919 221 919 q 267 889 251 914 q 261 874 271 883 q 238 853 251 864 q 209 833 224 843 q 189 818 194 824 q 172 803 183 814 q 147 780 160 792 q 121 758 133 768 q 103 743 108 747 q 75 753 83 728 l 65 772 z "},"":{"ha":1157,"x_min":154,"x_max":733,"o":"m 189 -268 q 172 -244 176 -262 q 166 -203 167 -226 q 167 -158 165 -181 q 168 -122 168 -135 q 168 -63 168 -114 q 167 60 168 -12 q 165 218 167 133 q 163 379 164 303 q 160 514 161 456 q 157 592 158 572 q 169 636 154 621 q 208 658 185 651 q 255 667 231 665 q 294 669 279 668 q 308 642 304 671 q 312 569 313 614 q 308 468 311 524 q 302 358 304 413 q 299 256 300 303 q 301 182 297 208 q 332 125 307 142 q 388 107 357 108 q 449 115 418 106 q 499 138 481 125 q 531 173 517 150 q 556 219 546 196 q 571 262 565 243 q 576 283 576 281 q 575 308 576 285 q 572 364 574 331 q 569 437 571 397 q 565 513 567 476 q 563 578 564 550 q 561 618 561 607 q 578 667 561 651 q 621 689 596 683 q 653 690 633 692 q 690 682 672 689 q 720 661 707 675 q 733 625 733 647 q 730 575 733 610 q 722 495 726 540 q 711 399 717 450 q 701 303 706 349 q 693 221 696 257 q 692 168 690 185 q 691 114 693 143 q 686 61 689 85 q 678 4 682 32 q 647 -26 663 -14 q 617 -45 633 -37 q 588 -49 601 -53 q 572 -12 574 -44 q 575 57 571 19 q 585 125 579 94 q 592 157 592 156 q 533 61 578 110 q 417 -15 488 13 q 356 -20 381 -31 q 317 10 332 -10 q 286 64 299 32 q 289 -64 288 -7 q 290 -113 289 -89 q 290 -158 290 -137 q 288 -194 289 -179 q 285 -214 286 -208 q 269 -237 281 -225 q 245 -257 258 -249 q 217 -269 232 -265 q 189 -268 201 -274 z "},"":{"ha":1157,"x_min":99,"x_max":1018,"o":"m 1003 894 q 1015 853 1013 872 q 1014 819 1018 836 q 992 790 1010 801 q 930 778 965 775 q 871 789 894 782 q 872 685 871 750 q 875 546 874 621 q 878 392 876 471 q 881 247 879 313 q 883 134 882 181 q 883 76 883 88 q 889 24 883 57 q 897 -41 894 -8 q 896 -100 900 -74 q 874 -132 892 -126 q 820 -151 836 -143 q 804 -147 804 -158 q 803 -90 804 -144 q 799 50 801 -35 q 796 240 797 135 q 794 447 794 344 q 794 642 793 550 q 800 790 796 733 q 725 780 768 786 q 644 764 682 774 q 578 741 606 754 q 551 711 551 728 q 557 656 551 700 q 572 545 563 611 q 593 398 582 479 q 615 234 604 317 q 634 72 625 151 q 647 -70 643 -7 q 651 -174 651 -133 q 640 -221 650 -215 q 606 -248 621 -232 q 579 -274 592 -264 q 556 -284 567 -285 q 536 -261 546 -283 q 524 -220 526 -239 q 521 -184 521 -201 q 523 -148 521 -167 q 526 -107 525 -129 q 528 -55 528 -92 q 526 30 528 -18 q 523 130 525 78 q 517 227 521 182 q 510 305 514 272 q 501 344 507 338 q 474 351 496 351 q 421 351 453 351 q 351 351 389 350 q 278 360 314 351 q 212 388 242 368 q 164 443 182 407 q 130 527 146 479 q 106 627 114 575 q 103 733 99 679 q 131 836 107 788 q 203 924 156 885 q 328 989 250 964 q 472 1017 406 1014 q 595 1013 539 1021 q 699 988 651 1004 q 787 958 746 972 q 863 933 828 943 q 928 929 897 924 q 991 932 974 936 q 1011 919 1008 928 q 1003 894 1014 910 z "},"":{"ha":1157,"x_min":78,"x_max":853,"o":"m 203 -297 q 196 -286 203 -293 q 183 -262 189 -279 q 174 -213 176 -244 q 179 -129 171 -182 q 176 -56 182 -108 q 158 67 169 -4 q 132 224 146 139 q 106 394 118 308 q 86 563 94 481 q 79 714 78 646 q 121 828 81 783 q 224 898 161 874 q 363 926 286 922 q 511 918 439 931 q 612 878 583 906 q 642 815 640 850 q 626 744 643 781 q 590 679 608 708 q 556 623 571 650 q 532 575 542 596 q 517 541 522 554 q 511 526 511 528 q 513 520 511 525 q 526 510 515 515 q 562 500 538 504 q 631 496 586 496 q 716 477 675 496 q 788 423 757 458 q 835 337 818 388 q 849 224 853 286 q 817 118 844 161 q 751 47 789 75 q 671 5 713 19 q 600 -15 629 -10 q 545 -28 571 -21 q 496 -36 519 -35 q 447 -30 472 -37 q 392 0 421 -22 q 360 47 363 22 q 372 92 358 72 q 408 120 386 111 q 446 119 429 129 q 486 107 463 110 q 535 110 510 104 q 584 133 560 117 q 625 179 608 150 q 648 244 642 208 q 650 310 654 279 q 633 366 646 342 q 600 397 621 390 q 544 401 579 404 q 472 398 508 399 q 406 406 436 397 q 367 446 376 414 q 364 501 357 476 q 385 544 371 525 q 418 579 400 563 q 447 613 436 596 q 480 678 474 651 q 480 724 486 706 q 460 753 474 742 q 436 774 447 764 q 393 784 414 790 q 353 763 372 778 q 316 729 333 747 q 283 704 299 711 q 274 661 276 701 q 274 558 272 621 q 282 414 276 494 q 293 249 288 333 q 305 82 299 164 q 316 -67 311 0 q 323 -181 321 -135 q 322 -237 325 -226 q 299 -274 318 -260 q 258 -294 279 -287 q 220 -301 238 -300 q 203 -297 203 -301 z "},"":{"ha":1018,"x_min":238,"x_max":989,"o":"m 646 7 q 628 17 639 11 q 610 35 617 22 q 606 71 600 54 q 622 103 611 88 q 649 133 635 119 q 676 160 654 139 q 724 204 699 181 q 772 249 750 228 q 800 275 794 269 q 825 297 813 286 q 850 318 838 307 q 855 330 857 325 q 847 339 853 335 q 822 365 844 342 q 768 422 800 389 q 699 494 736 456 q 630 565 663 532 q 575 622 597 599 q 549 647 553 644 q 529 674 532 658 q 526 707 526 689 q 526 715 524 710 q 528 722 528 718 q 531 728 528 726 q 544 725 536 731 q 577 694 551 719 q 638 634 603 669 q 714 558 674 599 q 790 483 754 518 q 851 422 825 447 q 883 392 876 396 q 926 358 904 375 q 968 325 947 342 q 972 322 969 324 q 974 318 974 321 q 978 298 975 307 q 988 279 981 289 q 987 274 989 278 q 983 269 985 269 q 946 251 960 265 q 917 222 932 236 q 876 186 904 211 q 816 132 847 161 q 756 77 785 103 q 717 42 728 51 q 688 11 699 26 q 646 7 672 -4 m 360 7 q 342 17 353 11 q 324 35 331 22 q 319 71 314 54 q 336 103 325 88 q 363 133 349 119 q 390 160 368 139 q 438 204 413 181 q 486 249 464 228 q 514 275 508 269 q 539 297 526 286 q 564 318 551 307 q 569 330 571 325 q 561 339 567 335 q 536 365 558 342 q 482 422 514 389 q 413 494 450 456 q 344 565 376 532 q 289 622 311 599 q 263 647 267 644 q 243 674 246 658 q 240 707 240 689 q 240 715 238 710 q 242 722 242 718 q 244 728 242 726 q 258 725 250 731 q 291 694 265 719 q 352 634 317 669 q 428 558 388 599 q 503 483 468 518 q 565 422 539 447 q 597 392 590 396 q 640 358 618 375 q 682 325 661 342 q 685 322 683 324 q 688 318 688 321 q 692 298 689 307 q 701 279 694 289 q 701 274 703 278 q 697 269 699 269 q 660 251 674 265 q 631 222 646 236 q 590 186 618 211 q 530 132 561 161 q 470 77 499 103 q 431 42 442 51 q 401 11 413 26 q 360 7 386 -4 z "},"":{"ha":601,"x_min":50,"x_max":526,"o":"m 526 344 q 524 287 526 326 q 515 202 521 247 q 501 115 510 157 q 482 47 493 72 q 422 -19 465 4 q 401 -26 414 -24 q 376 -32 388 -28 q 295 -75 335 -53 q 222 -131 256 -97 q 192 -164 206 -147 q 175 -204 178 -181 q 178 -221 175 -211 q 185 -235 181 -231 q 247 -261 207 -258 q 318 -253 288 -264 q 344 -242 324 -250 q 387 -226 364 -235 q 429 -210 410 -217 q 454 -201 449 -203 q 472 -203 465 -196 q 485 -215 479 -206 q 484 -220 485 -215 q 481 -231 483 -225 q 476 -241 479 -236 q 472 -247 474 -246 q 329 -307 397 -296 q 206 -304 261 -318 q 112 -257 151 -290 q 56 -185 72 -224 q 51 -166 53 -178 q 51 -141 50 -154 q 54 -115 51 -128 q 60 -96 56 -103 q 79 -64 71 -81 q 93 -31 86 -47 q 115 1 100 -11 q 144 29 129 14 q 161 44 153 38 q 181 58 169 51 q 246 92 211 79 q 314 119 281 104 q 319 122 315 122 q 349 143 342 128 q 357 179 357 158 q 363 222 356 193 q 379 281 369 250 q 397 338 389 311 q 403 375 404 365 q 402 399 403 386 q 401 422 401 411 q 407 435 401 426 q 430 449 414 446 q 456 446 446 453 q 464 443 458 446 q 508 424 496 442 q 524 382 521 407 q 526 365 525 375 q 526 344 526 356 m 519 572 q 498 526 517 544 q 454 510 479 507 q 436 517 446 510 q 418 532 426 524 q 403 550 410 540 q 397 565 397 560 q 418 613 400 599 q 460 629 436 628 q 481 625 471 631 q 500 610 492 619 q 514 591 508 601 q 519 572 519 581 z "},"":{"ha":564,"x_min":17,"x_max":546,"o":"m 546 61 q 528 40 540 46 q 504 28 517 33 q 481 21 489 21 q 468 24 474 21 q 456 33 463 28 q 436 46 450 39 q 391 105 401 64 q 382 194 381 146 q 390 289 383 242 q 394 367 396 336 q 392 378 394 369 q 368 369 385 376 q 334 354 351 363 q 301 337 317 346 q 282 322 286 328 q 261 267 271 306 q 240 181 251 228 q 215 85 229 133 q 181 4 201 38 q 132 -40 160 -29 q 67 -26 104 -51 q 44 -11 54 -21 q 26 10 33 -1 q 17 42 17 25 q 22 75 17 58 q 38 123 26 90 q 61 192 49 156 q 84 261 74 228 q 99 311 94 294 q 113 360 106 336 q 131 410 119 385 q 167 518 149 451 q 201 657 185 585 q 229 797 217 729 q 250 907 242 864 q 264 917 251 922 q 283 910 274 914 q 303 903 293 907 q 408 822 371 879 q 463 688 444 764 q 486 522 481 611 q 496 347 492 433 q 510 186 500 261 q 546 61 519 111 m 422 990 l 413 971 q 385 961 404 946 q 367 976 379 965 q 341 998 354 986 q 316 1021 328 1010 q 299 1036 304 1032 q 278 1051 292 1042 q 250 1072 264 1061 q 226 1092 236 1082 q 221 1107 217 1101 q 263 1138 236 1132 q 272 1138 267 1138 q 279 1138 276 1139 q 326 1105 299 1124 q 378 1067 354 1086 q 417 1027 403 1047 q 422 990 431 1007 m 289 431 q 296 419 285 419 q 322 422 307 418 q 353 432 338 426 q 375 440 369 438 q 387 474 389 446 q 372 536 385 503 q 341 599 360 569 q 301 635 322 628 q 307 590 307 619 q 304 530 307 561 q 297 471 301 499 q 289 431 293 443 z "},"":{"ha":564,"x_min":17,"x_max":546,"o":"m 546 61 q 528 40 540 46 q 504 28 517 33 q 481 21 489 21 q 468 24 474 21 q 456 33 463 28 q 436 46 450 39 q 391 105 401 64 q 382 194 381 146 q 390 289 383 242 q 394 367 396 336 q 392 378 394 369 q 368 369 385 376 q 334 354 351 363 q 301 337 317 346 q 282 322 286 328 q 261 267 271 306 q 240 181 251 228 q 215 85 229 133 q 181 4 201 38 q 132 -40 160 -29 q 67 -26 104 -51 q 44 -11 54 -21 q 26 10 33 -1 q 17 42 17 25 q 22 75 17 58 q 38 123 26 90 q 61 192 49 156 q 84 261 74 228 q 99 311 94 294 q 113 360 106 336 q 131 410 119 385 q 167 518 149 451 q 201 657 185 585 q 229 797 217 729 q 250 907 242 864 q 264 917 251 922 q 283 910 274 914 q 303 903 293 907 q 408 822 371 879 q 463 688 444 764 q 486 522 481 611 q 496 347 492 433 q 510 186 500 261 q 546 61 519 111 m 289 431 q 296 419 285 419 q 322 422 307 418 q 353 432 338 426 q 375 440 369 438 q 387 474 389 446 q 372 536 385 503 q 341 599 360 569 q 301 635 322 628 q 307 590 307 619 q 304 530 307 561 q 297 471 301 499 q 289 431 293 443 m 213 1017 q 218 1053 204 1033 q 256 1093 232 1074 q 308 1131 281 1113 q 356 1164 336 1150 q 363 1165 358 1165 q 372 1164 368 1164 q 414 1133 399 1158 q 408 1118 418 1128 q 385 1098 399 1108 q 356 1078 371 1088 q 336 1063 342 1068 q 319 1047 331 1058 q 294 1024 307 1036 q 268 1002 281 1013 q 250 988 256 992 q 222 997 231 972 l 213 1017 z "},"":{"ha":564,"x_min":17,"x_max":546,"o":"m 546 61 q 528 40 540 46 q 504 28 517 33 q 481 21 489 21 q 468 24 474 21 q 456 33 463 28 q 436 46 450 39 q 391 105 401 64 q 382 194 381 146 q 390 289 383 242 q 394 367 396 336 q 392 378 394 369 q 368 369 385 376 q 334 354 351 363 q 301 337 317 346 q 282 322 286 328 q 261 267 271 306 q 240 181 251 228 q 215 85 229 133 q 181 4 201 38 q 132 -40 160 -29 q 67 -26 104 -51 q 44 -11 54 -21 q 26 10 33 -1 q 17 42 17 25 q 22 75 17 58 q 38 123 26 90 q 61 192 49 156 q 84 261 74 228 q 99 311 94 294 q 113 360 106 336 q 131 410 119 385 q 167 518 149 451 q 201 657 185 585 q 229 797 217 729 q 250 907 242 864 q 264 917 251 922 q 283 910 274 914 q 303 903 293 907 q 408 822 371 879 q 463 688 444 764 q 486 522 481 611 q 496 347 492 433 q 510 186 500 261 q 546 61 519 111 m 289 431 q 296 419 285 419 q 322 422 307 418 q 353 432 338 426 q 375 440 369 438 q 387 474 389 446 q 372 536 385 503 q 341 599 360 569 q 301 635 322 628 q 307 590 307 619 q 304 530 307 561 q 297 471 301 499 q 289 431 293 443 m 268 1110 q 246 1100 256 1111 q 228 1072 236 1089 q 216 1033 221 1054 q 207 993 211 1011 l 142 990 l 142 1010 q 167 1106 144 1061 q 243 1167 189 1151 q 300 1172 272 1174 q 356 1158 328 1169 q 381 1138 372 1151 q 433 1018 418 1083 l 436 1001 l 321 997 l 311 1029 q 304 1048 310 1035 q 292 1075 299 1061 q 279 1099 286 1089 q 268 1110 272 1110 z "},"":{"ha":564,"x_min":17,"x_max":565,"o":"m 546 61 q 528 40 540 46 q 504 28 517 33 q 481 21 489 21 q 468 24 474 21 q 456 33 463 28 q 436 46 450 39 q 391 105 401 64 q 382 194 381 146 q 390 289 383 242 q 394 367 396 336 q 392 378 394 369 q 368 369 385 376 q 334 354 351 363 q 301 337 317 346 q 282 322 286 328 q 261 267 271 306 q 240 181 251 228 q 215 85 229 133 q 181 4 201 38 q 132 -40 160 -29 q 67 -26 104 -51 q 44 -11 54 -21 q 26 10 33 -1 q 17 42 17 25 q 22 75 17 58 q 38 123 26 90 q 61 192 49 156 q 84 261 74 228 q 99 311 94 294 q 113 360 106 336 q 131 410 119 385 q 167 518 149 451 q 201 657 185 585 q 229 797 217 729 q 250 907 242 864 q 264 917 251 922 q 283 910 274 914 q 303 903 293 907 q 408 822 371 879 q 463 688 444 764 q 486 522 481 611 q 496 347 492 433 q 510 186 500 261 q 546 61 519 111 m 289 431 q 296 419 285 419 q 322 422 307 418 q 353 432 338 426 q 375 440 369 438 q 387 474 389 446 q 372 536 385 503 q 341 599 360 569 q 301 635 322 628 q 307 590 307 619 q 304 530 307 561 q 297 471 301 499 q 289 431 293 443 m 125 1074 q 151 1088 136 1082 q 182 1093 164 1092 q 224 1088 200 1094 q 263 1072 247 1081 q 292 1054 278 1063 q 324 1040 307 1046 q 365 1032 340 1033 q 414 1036 390 1031 q 457 1050 438 1042 q 491 1069 476 1058 q 513 1088 506 1079 q 521 1086 517 1088 q 528 1083 524 1085 q 538 1078 532 1082 q 556 1054 547 1068 q 560 1032 565 1040 q 544 1017 557 1028 q 512 994 531 1007 q 471 972 493 982 q 429 960 449 961 q 344 965 389 956 q 268 997 300 974 q 201 1019 236 1019 q 147 1003 167 1018 q 130 1001 138 996 q 119 1019 122 1007 q 116 1047 115 1032 q 125 1074 117 1063 z "},"":{"ha":564,"x_min":17,"x_max":546,"o":"m 546 61 q 528 40 540 46 q 504 28 517 33 q 481 21 489 21 q 468 24 474 21 q 456 33 463 28 q 436 46 450 39 q 391 105 401 64 q 382 194 381 146 q 390 289 383 242 q 394 367 396 336 q 392 378 394 369 q 368 369 385 376 q 334 354 351 363 q 301 337 317 346 q 282 322 286 328 q 261 267 271 306 q 240 181 251 228 q 215 85 229 133 q 181 4 201 38 q 132 -40 160 -29 q 67 -26 104 -51 q 44 -11 54 -21 q 26 10 33 -1 q 17 42 17 25 q 22 75 17 58 q 38 123 26 90 q 61 192 49 156 q 84 261 74 228 q 99 311 94 294 q 113 360 106 336 q 131 410 119 385 q 167 518 149 451 q 201 657 185 585 q 229 797 217 729 q 250 907 242 864 q 264 917 251 922 q 283 910 274 914 q 303 903 293 907 q 408 822 371 879 q 463 688 444 764 q 486 522 481 611 q 496 347 492 433 q 510 186 500 261 q 546 61 519 111 m 289 431 q 296 419 285 419 q 322 422 307 418 q 353 432 338 426 q 375 440 369 438 q 387 474 389 446 q 372 536 385 503 q 341 599 360 569 q 301 635 322 628 q 307 590 307 619 q 304 530 307 561 q 297 471 301 499 q 289 431 293 443 m 178 1047 q 197 1090 178 1069 q 236 1110 216 1112 q 276 1091 258 1106 q 298 1041 294 1076 q 277 1004 298 1027 q 242 982 256 982 q 198 1000 216 980 q 178 1047 180 1019 m 343 1051 q 362 1094 343 1073 q 401 1114 381 1116 q 441 1095 423 1110 q 463 1045 459 1080 q 442 1008 463 1031 q 407 986 421 986 q 363 1003 381 984 q 343 1051 345 1023 z "},"":{"ha":564,"x_min":17,"x_max":546,"o":"m 213 1031 l 243 1076 q 253 1094 249 1085 q 264 1110 257 1103 q 303 1153 282 1132 q 342 1169 322 1172 q 378 1149 361 1165 q 406 1113 394 1133 q 424 1078 418 1092 q 430 1063 426 1071 q 435 1049 433 1056 q 435 1035 436 1042 q 432 1021 435 1028 q 421 995 426 1008 q 408 971 415 982 q 363 904 388 938 q 343 885 354 892 q 426 791 397 851 q 470 655 456 731 q 488 494 485 579 q 497 329 492 410 q 511 178 501 249 q 546 61 521 108 q 528 40 540 46 q 504 28 517 33 q 481 21 489 21 q 468 24 474 21 q 456 33 463 28 q 436 46 450 39 q 391 105 401 64 q 382 194 381 146 q 390 289 383 242 q 394 367 396 336 q 392 378 394 369 q 368 369 385 376 q 334 354 351 363 q 301 337 317 346 q 282 322 286 328 q 261 267 271 306 q 240 181 251 228 q 215 85 229 133 q 181 4 201 38 q 132 -40 160 -29 q 67 -26 104 -51 q 44 -11 54 -21 q 26 10 33 -1 q 17 42 17 25 q 22 75 17 58 q 38 123 26 90 q 61 192 49 156 q 84 261 74 228 q 99 311 94 294 q 113 360 106 336 q 131 410 119 385 q 164 510 147 449 q 197 640 181 572 q 225 772 213 707 q 246 885 238 838 q 232 897 239 890 q 219 913 225 903 q 213 1031 183 971 m 289 431 q 296 419 285 419 q 322 422 307 418 q 353 432 338 426 q 375 440 369 438 q 387 474 389 446 q 372 536 385 503 q 341 599 360 569 q 301 635 322 628 q 307 590 307 619 q 304 530 307 561 q 297 471 301 499 q 289 431 293 443 m 314 936 q 334 970 325 951 q 351 1008 343 989 q 365 1035 360 1022 q 375 1064 369 1049 q 370 1087 378 1075 q 350 1103 363 1099 q 329 1099 335 1107 q 319 1085 324 1092 q 296 1033 304 1060 q 278 981 288 1007 q 278 959 275 972 q 288 936 282 946 q 300 925 293 926 q 314 936 307 924 z "},"":{"ha":860,"x_min":17,"x_max":786,"o":"m 774 679 q 767 668 774 671 q 730 658 747 660 q 695 660 713 657 q 660 667 678 663 q 625 676 643 672 q 582 688 603 682 q 540 693 561 693 q 549 563 543 626 q 558 436 556 500 q 581 422 563 421 q 599 425 590 424 q 618 426 608 426 q 642 426 631 426 q 667 425 654 426 q 672 407 685 419 q 628 386 656 390 q 602 381 615 383 q 575 376 589 379 q 558 372 563 375 q 553 356 554 368 q 560 292 558 328 q 565 220 561 256 q 581 156 569 185 q 621 118 593 128 q 681 143 651 131 q 738 174 710 156 q 756 179 747 179 q 775 176 765 179 q 779 164 786 174 l 767 153 q 726 122 746 138 q 682 96 706 107 q 604 59 640 76 q 529 40 568 42 q 517 33 524 36 q 504 28 511 31 q 481 21 489 21 q 468 24 474 21 q 456 33 463 28 q 436 46 450 39 q 391 105 401 64 q 382 194 381 146 q 390 289 383 242 q 394 367 396 336 q 392 378 394 369 q 368 369 385 376 q 334 354 351 363 q 301 337 317 346 q 282 322 286 328 q 261 267 271 306 q 240 181 251 228 q 215 85 229 133 q 181 4 201 38 q 132 -40 160 -29 q 67 -26 104 -51 q 44 -11 54 -21 q 26 10 33 -1 q 17 42 17 25 q 22 75 17 58 q 38 123 26 90 q 61 192 49 156 q 84 261 74 228 q 99 311 94 294 q 113 360 106 336 q 131 410 119 385 q 167 518 149 451 q 201 657 185 585 q 229 797 217 729 q 250 907 242 864 q 264 917 251 922 q 283 910 274 914 q 303 903 293 907 q 378 857 347 888 q 428 786 408 826 q 463 789 444 790 q 490 782 481 788 q 524 771 507 774 q 560 764 542 768 q 631 749 596 756 q 701 731 667 743 l 738 724 q 763 719 756 722 q 772 710 771 715 q 773 698 774 706 q 774 679 772 690 m 289 431 q 296 419 285 419 q 322 422 307 418 q 353 432 338 426 q 375 440 369 438 q 387 474 389 446 q 372 536 385 503 q 341 599 360 569 q 301 635 322 628 q 307 590 307 619 q 304 530 307 561 q 297 471 301 499 q 289 431 293 443 z "},"":{"ha":1157,"x_min":236,"x_max":554,"o":"m 261 -224 q 241 -191 246 -215 q 241 -142 236 -167 q 258 -100 246 -118 q 290 -86 271 -82 q 331 -103 310 -90 q 374 -128 351 -115 q 417 -149 396 -140 q 460 -154 439 -158 q 488 -139 481 -150 q 495 -113 496 -128 q 488 -85 494 -99 q 476 -61 482 -71 q 446 -38 471 -51 q 392 -10 421 -25 q 336 18 363 4 q 301 42 310 32 q 294 58 293 51 q 301 70 294 65 q 315 80 307 75 q 329 89 324 85 q 347 86 335 93 q 377 66 358 79 q 422 36 396 53 q 481 6 447 19 q 531 -34 514 -8 q 551 -90 549 -60 q 545 -150 554 -119 q 515 -206 536 -181 q 458 -240 494 -231 q 383 -248 422 -249 q 310 -240 344 -247 q 261 -224 276 -232 z "},"":{"ha":479,"x_min":19,"x_max":425,"o":"m 150 -114 q 133 -87 138 -107 q 133 -47 129 -67 q 148 -12 138 -26 q 174 0 158 3 q 208 -13 190 -3 q 243 -34 225 -24 q 279 -51 261 -44 q 315 -56 297 -58 q 338 -44 332 -53 q 344 -23 344 -35 q 338 1 343 -11 q 328 21 333 13 q 288 48 321 31 q 224 81 254 65 q 126 113 165 86 q 65 181 88 140 q 32 274 42 222 q 21 380 22 325 q 26 490 19 435 q 39 592 32 544 q 53 663 44 628 q 78 731 61 699 q 93 758 85 746 q 111 783 101 771 q 127 808 118 796 q 146 833 136 821 q 178 860 160 853 q 221 867 197 868 q 244 865 232 864 q 267 864 256 865 q 310 862 283 863 q 358 854 336 861 q 392 833 381 847 q 392 790 404 818 q 371 771 383 774 q 346 757 358 768 q 331 757 339 750 q 332 774 324 765 q 331 789 339 785 q 313 790 322 793 q 285 785 299 788 q 260 775 272 782 q 206 642 219 717 q 199 489 193 568 q 224 331 204 410 q 267 188 243 253 q 277 174 272 176 q 294 178 282 172 q 360 238 338 197 q 376 272 368 254 q 392 308 385 289 q 417 292 410 310 q 424 251 425 275 q 414 201 422 226 q 393 160 406 175 q 356 117 376 136 q 307 88 335 99 q 319 82 313 85 q 332 76 325 79 q 374 44 360 65 q 390 -1 388 24 q 385 -52 393 -26 q 361 -99 378 -78 q 314 -127 344 -119 q 251 -134 283 -135 q 191 -127 219 -133 q 150 -114 163 -121 z "},"":{"ha":440,"x_min":24,"x_max":411,"o":"m 399 679 q 392 668 399 671 q 355 658 372 660 q 320 660 338 657 q 285 667 303 663 q 250 676 268 672 q 207 688 228 682 q 165 693 186 693 q 174 563 168 626 q 183 436 181 500 q 206 422 188 421 q 224 425 215 424 q 243 426 233 426 q 267 426 256 426 q 292 425 279 426 q 297 407 310 419 q 253 386 281 390 q 227 381 240 383 q 200 376 214 379 q 183 372 188 375 q 178 356 179 368 q 185 292 183 328 q 190 220 186 256 q 206 156 194 185 q 246 118 218 128 q 306 143 276 131 q 363 174 335 156 q 381 179 372 179 q 400 176 390 179 q 404 164 411 174 q 392 153 396 156 q 351 122 371 138 q 307 96 331 107 q 255 71 279 83 q 207 50 231 58 q 158 40 183 42 q 106 47 133 39 q 71 72 88 51 q 51 111 54 92 q 35 223 40 169 q 25 331 29 276 q 24 398 25 364 q 26 467 24 432 q 30 547 31 507 q 29 625 29 586 l 25 763 q 38 781 26 775 q 63 788 49 786 q 92 788 78 790 q 115 782 107 786 q 149 771 132 774 q 185 764 167 768 q 256 749 221 756 q 326 731 292 743 q 344 727 335 728 q 363 724 353 726 q 388 719 381 722 q 397 710 396 715 q 398 698 399 706 q 399 679 397 690 m 263 839 l 253 819 q 225 810 244 794 q 207 824 219 814 q 181 847 194 835 q 156 869 168 858 q 139 885 144 881 q 118 900 132 890 q 90 920 104 910 q 67 940 76 931 q 61 956 57 950 q 103 986 76 981 q 112 987 107 986 q 119 986 117 988 q 167 953 139 972 q 219 915 194 935 q 257 876 243 896 q 263 839 271 856 z "},"":{"ha":440,"x_min":24,"x_max":411,"o":"m 399 679 q 392 668 399 671 q 355 658 372 660 q 320 660 338 657 q 285 667 303 663 q 250 676 268 672 q 207 688 228 682 q 165 693 186 693 q 174 563 168 626 q 183 436 181 500 q 206 422 188 421 q 224 425 215 424 q 243 426 233 426 q 267 426 256 426 q 292 425 279 426 q 297 407 310 419 q 253 386 281 390 q 227 381 240 383 q 200 376 214 379 q 183 372 188 375 q 178 356 179 368 q 185 292 183 328 q 190 220 186 256 q 206 156 194 185 q 246 118 218 128 q 306 143 276 131 q 363 174 335 156 q 381 179 372 179 q 400 176 390 179 q 404 164 411 174 q 392 153 396 156 q 351 122 371 138 q 307 96 331 107 q 255 71 279 83 q 207 50 231 58 q 158 40 183 42 q 106 47 133 39 q 71 72 88 51 q 51 111 54 92 q 35 223 40 169 q 25 331 29 276 q 24 398 25 364 q 26 467 24 432 q 30 547 31 507 q 29 625 29 586 l 25 763 q 38 781 26 775 q 63 788 49 786 q 92 788 78 790 q 115 782 107 786 q 149 771 132 774 q 185 764 167 768 q 256 749 221 756 q 326 731 292 743 q 344 727 335 728 q 363 724 353 726 q 388 719 381 722 q 397 710 396 715 q 398 698 399 706 q 399 679 397 690 m 104 864 q 110 901 96 881 q 148 940 124 921 q 200 978 172 960 q 247 1011 228 997 q 255 1012 250 1013 q 264 1011 260 1011 q 306 981 290 1006 q 300 965 310 975 q 276 945 290 956 q 248 925 263 935 q 228 910 233 915 q 210 894 222 906 q 185 872 199 883 q 160 849 172 860 q 142 835 147 839 q 114 844 122 819 l 104 864 z "},"":{"ha":440,"x_min":24,"x_max":411,"o":"m 399 679 q 392 668 399 671 q 355 658 372 660 q 320 660 338 657 q 285 667 303 663 q 250 676 268 672 q 207 688 228 682 q 165 693 186 693 q 174 563 168 626 q 183 436 181 500 q 206 422 188 421 q 224 425 215 424 q 243 426 233 426 q 267 426 256 426 q 292 425 279 426 q 297 407 310 419 q 253 386 281 390 q 227 381 240 383 q 200 376 214 379 q 183 372 188 375 q 178 356 179 368 q 185 292 183 328 q 190 220 186 256 q 206 156 194 185 q 246 118 218 128 q 306 143 276 131 q 363 174 335 156 q 381 179 372 179 q 400 176 390 179 q 404 164 411 174 q 392 153 396 156 q 351 122 371 138 q 307 96 331 107 q 255 71 279 83 q 207 50 231 58 q 158 40 183 42 q 106 47 133 39 q 71 72 88 51 q 51 111 54 92 q 35 223 40 169 q 25 331 29 276 q 24 398 25 364 q 26 467 24 432 q 30 547 31 507 q 29 625 29 586 l 25 763 q 38 781 26 775 q 63 788 49 786 q 92 788 78 790 q 115 782 107 786 q 149 771 132 774 q 185 764 167 768 q 256 749 221 756 q 326 731 292 743 q 344 727 335 728 q 363 724 353 726 q 388 719 381 722 q 397 710 396 715 q 398 698 399 706 q 399 679 397 690 m 182 999 q 156 988 167 1000 q 135 954 144 975 q 120 908 126 933 q 110 861 114 883 l 33 858 l 33 882 q 41 940 35 911 q 62 994 47 969 q 99 1038 76 1019 q 153 1067 121 1057 q 220 1072 188 1075 q 285 1057 253 1068 q 315 1032 306 1047 q 376 892 360 967 l 381 871 l 244 867 l 233 904 q 224 926 231 911 q 210 958 218 942 q 195 986 203 974 q 182 999 188 999 z "},"":{"ha":440,"x_min":24,"x_max":411,"o":"m 399 679 q 392 668 399 671 q 355 658 372 660 q 320 660 338 657 q 285 667 303 663 q 250 676 268 672 q 207 688 228 682 q 165 693 186 693 q 174 563 168 626 q 183 436 181 500 q 206 422 188 421 q 224 425 215 424 q 243 426 233 426 q 267 426 256 426 q 292 425 279 426 q 297 407 310 419 q 253 386 281 390 q 227 381 240 383 q 200 376 214 379 q 183 372 188 375 q 178 356 179 368 q 185 292 183 328 q 190 220 186 256 q 206 156 194 185 q 246 118 218 128 q 306 143 276 131 q 363 174 335 156 q 381 179 372 179 q 400 176 390 179 q 404 164 411 174 q 392 153 396 156 q 351 122 371 138 q 307 96 331 107 q 255 71 279 83 q 207 50 231 58 q 158 40 183 42 q 106 47 133 39 q 71 72 88 51 q 51 111 54 92 q 35 223 40 169 q 25 331 29 276 q 24 398 25 364 q 26 467 24 432 q 30 547 31 507 q 29 625 29 586 l 25 763 q 38 781 26 775 q 63 788 49 786 q 92 788 78 790 q 115 782 107 786 q 149 771 132 774 q 185 764 167 768 q 256 749 221 756 q 326 731 292 743 q 344 727 335 728 q 363 724 353 726 q 388 719 381 722 q 397 710 396 715 q 398 698 399 706 q 399 679 397 690 m 58 918 q 78 961 58 939 q 120 981 99 983 q 163 962 143 977 q 186 912 182 947 q 164 875 186 898 q 126 853 142 853 q 79 870 99 851 q 58 918 60 890 m 235 922 q 255 965 235 943 q 297 985 276 987 q 340 966 321 981 q 363 916 359 951 q 341 879 363 902 q 303 857 319 857 q 256 874 276 855 q 235 922 237 894 z "},"":{"ha":271,"x_min":18,"x_max":233,"o":"m 125 725 q 130 719 128 722 q 135 714 132 717 q 179 595 165 656 q 200 474 193 535 q 211 353 207 414 q 228 232 215 293 q 231 173 229 200 q 225 118 233 146 q 222 103 222 111 q 218 89 221 96 q 185 60 214 60 q 150 69 165 60 q 99 104 119 88 q 75 158 78 121 q 71 197 72 178 q 67 235 69 215 q 64 273 65 254 q 61 311 63 292 q 57 377 58 344 q 53 443 56 410 q 49 514 50 479 q 53 585 49 549 q 57 628 56 607 q 60 672 58 650 l 60 754 q 125 725 97 754 m 224 853 l 214 833 q 186 824 206 808 q 168 838 181 828 q 142 860 156 849 q 117 883 129 872 q 100 899 106 894 q 79 914 93 904 q 51 934 65 924 q 28 954 38 944 q 22 969 18 964 q 64 1000 38 994 q 73 1001 68 1000 q 81 1000 78 1001 q 128 967 100 986 q 180 929 156 949 q 218 890 204 910 q 224 853 232 869 z "},"":{"ha":271,"x_min":6,"x_max":233,"o":"m 125 725 q 130 719 128 722 q 135 714 132 717 q 179 595 165 656 q 200 474 193 535 q 211 353 207 414 q 228 232 215 293 q 231 173 229 200 q 225 118 233 146 q 222 103 222 111 q 218 89 221 96 q 185 60 214 60 q 150 69 165 60 q 99 104 119 88 q 75 158 78 121 q 71 197 72 178 q 67 235 69 215 q 64 273 65 254 q 61 311 63 292 q 57 377 58 344 q 53 443 56 410 q 49 514 50 479 q 53 585 49 549 q 57 628 56 607 q 60 672 58 650 l 60 754 q 125 725 97 754 m 14 864 q 19 901 6 881 q 58 940 33 921 q 110 978 82 960 q 157 1011 138 997 q 165 1012 160 1013 q 174 1011 169 1011 q 215 981 200 1006 q 210 965 219 975 q 186 945 200 956 q 158 925 172 935 q 138 910 143 915 q 120 894 132 906 q 95 872 108 883 q 69 849 82 860 q 51 835 57 839 q 24 844 32 819 l 14 864 z "},"":{"ha":271,"x_min":-24,"x_max":324,"o":"m 125 725 q 130 719 128 722 q 135 714 132 717 q 179 595 165 656 q 200 474 193 535 q 211 353 207 414 q 228 232 215 293 q 231 173 229 200 q 225 118 233 146 q 222 103 222 111 q 218 89 221 96 q 185 60 214 60 q 150 69 165 60 q 99 104 119 88 q 75 158 78 121 q 71 197 72 178 q 67 235 69 215 q 64 273 65 254 q 61 311 63 292 q 57 377 58 344 q 53 443 56 410 q 49 514 50 479 q 53 585 49 549 q 57 628 56 607 q 60 672 58 650 l 60 754 q 125 725 97 754 m 125 944 q 99 933 110 946 q 78 900 88 921 q 63 854 69 879 q 53 807 57 829 l -24 804 l -24 828 q -16 886 -22 857 q 5 940 -10 915 q 42 984 19 965 q 96 1013 64 1003 q 163 1017 131 1021 q 228 1003 196 1014 q 258 978 249 993 q 319 838 303 913 l 324 817 l 188 813 l 176 850 q 167 872 174 857 q 153 903 161 888 q 138 932 146 919 q 125 944 131 944 z "},"":{"ha":271,"x_min":-42,"x_max":283,"o":"m 125 725 q 130 719 128 722 q 135 714 132 717 q 179 595 165 656 q 200 474 193 535 q 211 353 207 414 q 228 232 215 293 q 231 173 229 200 q 225 118 233 146 q 222 103 222 111 q 218 89 221 96 q 185 60 214 60 q 150 69 165 60 q 99 104 119 88 q 75 158 78 121 q 71 197 72 178 q 67 235 69 215 q 64 273 65 254 q 61 311 63 292 q 57 377 58 344 q 53 443 56 410 q 49 514 50 479 q 53 585 49 549 q 57 628 56 607 q 60 672 58 650 l 60 754 q 125 725 97 754 m -41 889 q -19 935 -41 912 q 26 955 3 958 q 71 936 50 951 q 96 883 92 920 q 72 845 96 868 q 32 821 48 821 q -18 839 3 819 q -41 889 -39 860 m 148 893 q 170 939 148 916 q 214 960 191 962 q 260 940 239 955 q 284 887 280 924 q 261 849 284 873 q 220 825 237 825 q 171 843 191 823 q 148 893 150 864 z "},"":{"ha":493,"x_min":-68,"x_max":472,"o":"m 50 563 q 49 621 49 592 q 49 679 49 650 q 50 717 49 699 q 50 756 51 736 q 56 808 50 785 q 74 822 60 822 q 105 819 89 821 q 132 803 121 817 q 156 796 140 793 q 206 801 181 799 q 257 804 232 803 q 309 801 283 804 q 358 785 335 797 q 374 777 365 781 q 390 769 383 774 q 417 749 407 763 q 436 719 428 735 q 455 667 451 694 q 461 613 458 640 q 463 456 472 536 q 428 301 453 376 q 367 158 404 225 q 289 39 331 90 q 277 24 282 26 q 257 25 272 22 q 240 29 246 25 q 206 40 224 43 q 168 35 188 38 q 164 34 165 35 q 160 33 163 33 q 131 34 143 28 q 108 51 118 40 q 86 97 93 71 q 64 265 71 185 q 54 422 57 344 q 4 428 26 422 q -18 432 -7 431 q -39 438 -29 433 q -57 456 -51 444 q -65 481 -62 468 q -62 491 -68 489 q -50 494 -56 493 l -1 503 q 51 514 24 507 q 51 538 51 525 q 50 563 50 550 m 250 546 q 265 543 258 546 q 279 538 272 540 q 272 694 283 614 q 263 723 269 710 q 249 749 256 736 q 235 757 244 754 q 153 756 199 764 l 156 724 q 168 628 161 675 q 183 533 175 581 q 208 539 196 536 q 235 544 221 542 q 242 545 238 544 q 250 546 246 546 m 244 261 l 256 319 l 258 332 q 264 377 261 356 q 269 422 267 399 q 246 425 258 424 q 222 429 233 426 l 204 433 q 224 347 214 389 q 244 261 233 304 z "},"":{"ha":493,"x_min":-29,"x_max":500,"o":"m -29 811 q -17 810 -22 810 q -8 807 -12 810 q 6 801 -1 804 q 19 794 13 797 q 67 747 51 778 q 94 685 82 715 q 127 578 114 631 q 157 474 140 525 q 165 438 161 456 q 175 400 169 419 q 178 410 176 408 q 190 457 185 433 q 203 504 196 481 l 219 575 q 235 630 228 603 q 251 685 243 657 q 256 699 254 692 q 260 713 257 706 q 269 742 264 726 q 283 769 275 757 q 302 788 292 781 q 326 793 313 794 q 348 792 338 792 q 369 789 358 792 q 407 757 397 782 q 431 708 415 733 q 442 680 439 694 q 447 650 444 665 q 474 432 461 535 q 497 226 486 329 q 494 202 500 211 q 471 193 489 193 q 416 201 446 193 q 361 223 386 208 q 319 260 336 238 q 304 313 303 282 q 305 333 306 324 q 304 353 304 343 q 299 403 300 386 q 299 440 299 419 q 301 498 300 461 q 303 611 303 535 q 303 638 303 625 q 306 667 304 651 q 305 672 306 669 q 304 681 304 675 q 297 675 300 678 q 260 553 268 621 q 248 417 251 486 q 237 279 244 347 q 201 153 229 211 q 203 131 203 142 q 203 110 203 121 q 192 87 203 99 q 171 75 182 75 q 122 75 146 72 q 104 81 113 78 q 88 89 96 85 q 69 100 78 94 q 51 110 60 106 q 28 135 36 118 q 22 169 19 153 q 16 388 21 278 q 0 606 11 499 q -6 654 -3 629 q -12 704 -10 679 q -21 749 -17 726 q -29 793 -25 771 l -29 811 m 22 1007 q 49 1021 33 1015 q 79 1026 61 1025 q 121 1021 97 1028 q 160 1005 144 1014 q 190 988 175 996 q 221 973 204 979 q 263 965 238 967 q 311 969 288 964 q 354 983 335 975 q 388 1002 374 992 q 410 1021 403 1013 q 418 1019 414 1021 q 425 1017 421 1018 q 435 1011 429 1015 q 453 988 444 1001 q 457 965 463 974 q 441 951 454 961 q 409 928 428 940 q 368 905 390 915 q 326 893 346 894 q 242 898 286 889 q 165 931 197 907 q 99 952 133 953 q 44 936 64 951 q 27 935 35 929 q 16 953 19 940 q 13 981 13 965 q 22 1007 14 996 z "},"":{"ha":460,"x_min":8,"x_max":451,"o":"m 208 49 q 138 81 168 56 q 88 140 108 106 q 56 213 68 174 q 39 290 43 253 q 34 310 38 300 q 26 329 31 319 q 13 370 15 349 q 10 413 10 392 q 9 481 8 447 q 14 549 10 515 q 27 608 19 572 q 49 672 35 643 q 86 715 64 701 q 144 707 108 728 q 172 701 158 701 q 197 713 185 701 q 224 725 210 721 q 261 726 243 733 q 289 719 275 722 q 315 710 303 715 q 340 701 322 707 q 376 689 357 696 q 410 674 394 682 q 429 660 425 667 q 448 570 444 614 q 449 483 451 526 q 442 395 447 439 q 436 307 438 351 q 435 297 436 301 q 435 288 435 293 q 433 264 433 276 q 431 240 432 251 q 428 224 429 232 q 424 208 426 217 q 394 154 417 182 q 340 103 371 126 q 274 65 310 81 q 208 49 239 50 m 214 107 q 235 126 226 108 q 249 165 243 143 q 259 209 254 188 q 268 242 264 231 q 287 312 283 276 q 293 383 290 347 q 295 480 296 432 q 297 576 294 528 q 286 653 297 613 q 276 667 281 664 q 246 676 264 676 q 215 668 228 676 q 199 653 206 661 q 193 633 192 644 q 194 610 196 622 q 190 588 192 599 q 185 569 190 576 q 174 554 181 561 q 162 568 163 558 q 154 586 161 578 q 146 564 147 574 q 140 543 143 557 q 135 523 138 532 q 133 503 133 514 q 133 434 133 475 q 135 348 133 393 q 140 259 136 303 q 153 181 144 215 q 177 125 163 146 q 214 107 192 104 m 358 800 l 349 781 q 321 771 340 756 q 303 785 315 775 q 277 808 290 796 q 252 831 264 819 q 235 846 240 842 q 214 861 228 851 q 186 881 200 871 q 163 901 172 892 q 157 917 153 911 q 199 947 172 942 q 208 948 203 947 q 215 947 213 949 q 263 915 235 933 q 315 876 290 896 q 353 837 339 857 q 358 800 367 817 z "},"":{"ha":460,"x_min":8,"x_max":451,"o":"m 208 49 q 138 81 168 56 q 88 140 108 106 q 56 213 68 174 q 39 290 43 253 q 34 310 38 300 q 26 329 31 319 q 13 370 15 349 q 10 413 10 392 q 9 481 8 447 q 14 549 10 515 q 27 608 19 572 q 49 672 35 643 q 86 715 64 701 q 144 707 108 728 q 172 701 158 701 q 197 713 185 701 q 224 725 210 721 q 261 726 243 733 q 289 719 275 722 q 315 710 303 715 q 340 701 322 707 q 376 689 357 696 q 410 674 394 682 q 429 660 425 667 q 448 570 444 614 q 449 483 451 526 q 442 395 447 439 q 436 307 438 351 q 435 297 436 301 q 435 288 435 293 q 433 264 433 276 q 431 240 432 251 q 428 224 429 232 q 424 208 426 217 q 394 154 417 182 q 340 103 371 126 q 274 65 310 81 q 208 49 239 50 m 214 107 q 235 126 226 108 q 249 165 243 143 q 259 209 254 188 q 268 242 264 231 q 287 312 283 276 q 293 383 290 347 q 295 480 296 432 q 297 576 294 528 q 286 653 297 613 q 276 667 281 664 q 246 676 264 676 q 215 668 228 676 q 199 653 206 661 q 193 633 192 644 q 194 610 196 622 q 190 588 192 599 q 185 569 190 576 q 174 554 181 561 q 162 568 163 558 q 154 586 161 578 q 146 564 147 574 q 140 543 143 557 q 135 523 138 532 q 133 503 133 514 q 133 434 133 475 q 135 348 133 393 q 140 259 136 303 q 153 181 144 215 q 177 125 163 146 q 214 107 192 104 m 142 811 q 147 848 133 828 q 185 888 161 868 q 238 926 210 907 q 285 958 265 944 q 292 959 288 960 q 301 958 297 958 q 343 928 328 953 q 338 913 347 922 q 314 892 328 903 q 285 872 300 882 q 265 857 271 863 q 248 842 260 853 q 223 819 236 831 q 197 797 210 807 q 179 782 185 786 q 151 792 160 767 l 142 811 z "},"":{"ha":460,"x_min":8,"x_max":451,"o":"m 208 49 q 138 81 168 56 q 88 140 108 106 q 56 213 68 174 q 39 290 43 253 q 34 310 38 300 q 26 329 31 319 q 13 370 15 349 q 10 413 10 392 q 9 481 8 447 q 14 549 10 515 q 27 608 19 572 q 49 672 35 643 q 86 715 64 701 q 144 707 108 728 q 172 701 158 701 q 197 713 185 701 q 224 725 210 721 q 261 726 243 733 q 289 719 275 722 q 315 710 303 715 q 340 701 322 707 q 376 689 357 696 q 410 674 394 682 q 429 660 425 667 q 448 570 444 614 q 449 483 451 526 q 442 395 447 439 q 436 307 438 351 q 435 297 436 301 q 435 288 435 293 q 433 264 433 276 q 431 240 432 251 q 428 224 429 232 q 424 208 426 217 q 394 154 417 182 q 340 103 371 126 q 274 65 310 81 q 208 49 239 50 m 214 107 q 235 126 226 108 q 249 165 243 143 q 259 209 254 188 q 268 242 264 231 q 287 312 283 276 q 293 383 290 347 q 295 480 296 432 q 297 576 294 528 q 286 653 297 613 q 276 667 281 664 q 246 676 264 676 q 215 668 228 676 q 199 653 206 661 q 193 633 192 644 q 194 610 196 622 q 190 588 192 599 q 185 569 190 576 q 174 554 181 561 q 162 568 163 558 q 154 586 161 578 q 146 564 147 574 q 140 543 143 557 q 135 523 138 532 q 133 503 133 514 q 133 434 133 475 q 135 348 133 393 q 140 259 136 303 q 153 181 144 215 q 177 125 163 146 q 214 107 192 104 m 251 925 q 225 914 236 926 q 205 881 214 901 q 190 835 196 860 q 179 788 183 810 l 103 785 l 103 808 q 110 867 104 838 q 131 921 117 896 q 168 965 146 946 q 222 993 190 983 q 290 998 257 1001 q 354 983 322 994 q 385 958 375 974 q 446 818 429 893 l 450 797 l 314 793 l 303 831 q 294 853 300 838 q 280 884 288 868 q 265 913 272 900 q 251 925 257 925 z "},"":{"ha":460,"x_min":8,"x_max":493,"o":"m 208 49 q 138 81 168 56 q 88 140 108 106 q 56 213 68 174 q 39 290 43 253 q 34 310 38 300 q 26 329 31 319 q 13 370 15 349 q 10 413 10 392 q 9 481 8 447 q 14 549 10 515 q 27 608 19 572 q 49 672 35 643 q 86 715 64 701 q 144 707 108 728 q 172 701 158 701 q 197 713 185 701 q 224 725 210 721 q 261 726 243 733 q 289 719 275 722 q 315 710 303 715 q 340 701 322 707 q 376 689 357 696 q 410 674 394 682 q 429 660 425 667 q 448 570 444 614 q 449 483 451 526 q 442 395 447 439 q 436 307 438 351 q 435 297 436 301 q 435 288 435 293 q 433 264 433 276 q 431 240 432 251 q 428 224 429 232 q 424 208 426 217 q 394 154 417 182 q 340 103 371 126 q 274 65 310 81 q 208 49 239 50 m 214 107 q 235 126 226 108 q 249 165 243 143 q 259 209 254 188 q 268 242 264 231 q 287 312 283 276 q 293 383 290 347 q 295 480 296 432 q 297 576 294 528 q 286 653 297 613 q 276 667 281 664 q 246 676 264 676 q 215 668 228 676 q 199 653 206 661 q 193 633 192 644 q 194 610 196 622 q 190 588 192 599 q 185 569 190 576 q 174 554 181 561 q 162 568 163 558 q 154 586 161 578 q 146 564 147 574 q 140 543 143 557 q 135 523 138 532 q 133 503 133 514 q 133 434 133 475 q 135 348 133 393 q 140 259 136 303 q 153 181 144 215 q 177 125 163 146 q 214 107 192 104 m 53 928 q 79 942 64 936 q 110 947 92 946 q 151 942 128 949 q 190 926 175 935 q 220 908 206 917 q 251 894 235 900 q 293 886 268 888 q 342 890 318 885 q 385 904 365 896 q 419 923 404 913 q 440 942 433 933 q 449 940 444 942 q 456 938 451 939 q 465 932 460 936 q 484 908 475 922 q 488 886 493 894 q 472 872 485 882 q 440 849 458 861 q 399 826 421 836 q 357 814 376 815 q 272 819 317 810 q 196 851 228 828 q 129 873 164 874 q 75 857 94 872 q 58 856 65 850 q 47 874 50 861 q 44 901 43 886 q 53 928 44 917 z "},"":{"ha":460,"x_min":8,"x_max":451,"o":"m 208 49 q 138 81 168 56 q 88 140 108 106 q 56 213 68 174 q 39 290 43 253 q 34 310 38 300 q 26 329 31 319 q 13 370 15 349 q 10 413 10 392 q 9 481 8 447 q 14 549 10 515 q 27 608 19 572 q 49 672 35 643 q 86 715 64 701 q 144 707 108 728 q 172 701 158 701 q 197 713 185 701 q 224 725 210 721 q 261 726 243 733 q 289 719 275 722 q 315 710 303 715 q 340 701 322 707 q 376 689 357 696 q 410 674 394 682 q 429 660 425 667 q 448 570 444 614 q 449 483 451 526 q 442 395 447 439 q 436 307 438 351 q 435 297 436 301 q 435 288 435 293 q 433 264 433 276 q 431 240 432 251 q 428 224 429 232 q 424 208 426 217 q 394 154 417 182 q 340 103 371 126 q 274 65 310 81 q 208 49 239 50 m 214 107 q 235 126 226 108 q 249 165 243 143 q 259 209 254 188 q 268 242 264 231 q 287 312 283 276 q 293 383 290 347 q 295 480 296 432 q 297 576 294 528 q 286 653 297 613 q 276 667 281 664 q 246 676 264 676 q 215 668 228 676 q 199 653 206 661 q 193 633 192 644 q 194 610 196 622 q 190 588 192 599 q 185 569 190 576 q 174 554 181 561 q 162 568 163 558 q 154 586 161 578 q 146 564 147 574 q 140 543 143 557 q 135 523 138 532 q 133 503 133 514 q 133 434 133 475 q 135 348 133 393 q 140 259 136 303 q 153 181 144 215 q 177 125 163 146 q 214 107 192 104 m 75 857 q 99 908 75 883 q 149 931 124 934 q 200 910 177 927 q 228 850 223 892 q 201 808 228 834 q 156 781 175 781 q 101 802 124 779 q 75 857 77 825 m 286 862 q 310 913 286 888 q 360 936 335 938 q 411 914 388 931 q 439 855 434 897 q 412 812 439 839 q 367 786 386 786 q 311 806 335 783 q 286 862 288 830 z "},"":{"ha":460,"x_min":-69,"x_max":524,"o":"m 208 49 q 147 74 175 54 q 93 -56 118 6 q 50 -168 68 -117 q 26 -182 46 -178 q -15 -184 7 -186 q -53 -176 -36 -182 q -67 -158 -69 -169 q -64 -147 -64 -153 q -64 -136 -64 -142 q -58 -112 -62 -124 q -46 -90 -53 -101 q -43 -76 -46 -85 q 13 40 -15 -24 q 69 174 40 103 q 49 232 57 201 q 39 290 42 263 q 34 310 38 300 q 26 329 31 319 q 13 370 15 349 q 10 413 10 392 q 9 481 8 447 q 14 549 10 515 q 27 608 19 572 q 49 672 35 643 q 86 715 64 701 q 144 707 108 728 q 172 701 158 701 q 197 713 185 701 q 224 725 210 721 q 261 726 243 733 l 290 718 q 339 826 315 775 q 386 919 363 876 q 399 947 393 935 q 413 971 406 958 q 430 980 415 976 q 461 984 444 983 q 494 983 478 985 q 518 981 511 982 q 518 953 524 978 q 498 888 513 929 q 461 792 483 847 q 411 674 439 738 q 422 666 418 669 q 429 660 426 663 q 448 570 444 614 q 449 483 451 526 q 442 395 447 439 q 436 307 438 351 q 435 297 436 301 q 435 288 435 293 l 431 240 q 428 224 429 232 q 424 208 426 217 q 394 154 417 182 q 340 103 371 126 q 274 65 310 81 q 208 49 239 50 m 269 669 q 242 676 257 676 q 215 668 226 675 q 199 653 206 661 q 193 633 192 644 q 194 610 196 622 q 190 588 192 599 q 185 569 190 576 q 174 554 181 561 q 162 568 163 558 q 154 586 161 578 q 146 564 147 574 q 140 543 143 557 q 135 523 138 532 q 133 503 133 514 q 133 428 133 472 q 135 335 132 383 q 202 505 168 419 q 269 669 236 590 m 214 107 q 235 126 226 108 q 249 165 243 143 q 259 209 254 188 q 268 242 264 231 q 287 312 283 276 q 293 383 290 347 q 294 396 293 390 q 294 408 294 401 l 172 132 q 214 107 188 103 z "},"":{"ha":486,"x_min":-32,"x_max":474,"o":"m 426 692 q 465 545 457 617 q 472 410 474 474 q 463 290 469 346 q 454 193 456 235 l 454 194 q 423 122 446 157 q 367 61 400 86 q 293 25 333 36 q 211 22 253 14 q 111 94 143 35 q 62 204 81 147 q 32 321 43 261 q 24 362 28 342 q 17 403 19 382 q 9 465 13 435 q 3 526 6 494 q -3 582 1 546 q -11 658 -7 618 q -19 735 -15 699 q -24 790 -22 771 q -32 836 -26 811 q -28 840 -31 838 q -22 842 -25 842 q 38 833 8 839 q 71 821 54 829 q 88 807 81 815 q 97 789 93 799 q 108 771 101 779 q 113 758 111 765 q 115 744 114 751 q 131 665 119 715 q 156 561 143 615 q 181 456 169 507 q 199 371 193 404 q 206 325 203 351 q 212 270 210 299 q 215 217 214 242 q 214 176 215 192 q 224 123 213 144 q 242 96 235 101 q 294 92 265 79 q 347 161 322 106 q 360 335 361 261 q 349 466 358 408 q 326 571 340 524 q 300 668 311 618 q 296 685 297 676 q 292 703 294 694 q 303 719 290 715 q 326 725 314 722 q 350 731 338 728 q 361 734 356 733 q 372 736 367 735 q 405 725 390 742 q 426 692 419 708 m 318 858 l 308 839 q 281 829 300 814 q 263 844 275 833 q 237 866 250 854 q 212 889 224 878 q 194 904 200 900 q 174 919 188 910 q 146 940 160 929 q 122 960 132 950 q 117 975 113 969 q 158 1006 132 1000 q 167 1006 163 1006 q 175 1006 172 1007 q 222 973 194 992 q 274 935 250 954 q 313 895 299 915 q 318 858 326 875 z "},"":{"ha":486,"x_min":-32,"x_max":474,"o":"m 426 692 q 465 545 457 617 q 472 410 474 474 q 463 290 469 346 q 454 193 456 235 l 454 194 q 423 122 446 157 q 367 61 400 86 q 293 25 333 36 q 211 22 253 14 q 111 94 143 35 q 62 204 81 147 q 32 321 43 261 q 24 362 28 342 q 17 403 19 382 q 9 465 13 435 q 3 526 6 494 q -3 582 1 546 q -11 658 -7 618 q -19 735 -15 699 q -24 790 -22 771 q -32 836 -26 811 q -28 840 -31 838 q -22 842 -25 842 q 38 833 8 839 q 71 821 54 829 q 88 807 81 815 q 97 789 93 799 q 108 771 101 779 q 113 758 111 765 q 115 744 114 751 q 131 665 119 715 q 156 561 143 615 q 181 456 169 507 q 199 371 193 404 q 206 325 203 351 q 212 270 210 299 q 215 217 214 242 q 214 176 215 192 q 224 123 213 144 q 242 96 235 101 q 294 92 265 79 q 347 161 322 106 q 360 335 361 261 q 349 466 358 408 q 326 571 340 524 q 300 668 311 618 q 296 685 297 676 q 292 703 294 694 q 303 719 290 715 q 326 725 314 722 q 350 731 338 728 q 361 734 356 733 q 372 736 367 735 q 405 725 390 742 q 426 692 419 708 m 154 931 q 160 967 146 947 q 198 1007 174 988 q 250 1045 222 1026 q 297 1078 278 1064 q 305 1078 300 1079 q 314 1078 310 1078 q 356 1047 340 1072 q 350 1032 360 1042 q 326 1012 340 1022 q 298 992 313 1001 q 278 976 283 982 q 260 961 272 972 q 235 938 249 950 q 210 916 222 926 q 192 901 197 906 q 164 911 172 886 l 154 931 z "},"":{"ha":486,"x_min":-32,"x_max":474,"o":"m 426 692 q 465 545 457 617 q 472 410 474 474 q 463 290 469 346 q 454 193 456 235 l 454 194 q 423 122 446 157 q 367 61 400 86 q 293 25 333 36 q 211 22 253 14 q 111 94 143 35 q 62 204 81 147 q 32 321 43 261 q 24 362 28 342 q 17 403 19 382 q 9 465 13 435 q 3 526 6 494 q -3 582 1 546 q -11 658 -7 618 q -19 735 -15 699 q -24 790 -22 771 q -32 836 -26 811 q -28 840 -31 838 q -22 842 -25 842 q 38 833 8 839 q 71 821 54 829 q 88 807 81 815 q 97 789 93 799 q 108 771 101 779 q 113 758 111 765 q 115 744 114 751 q 131 665 119 715 q 156 561 143 615 q 181 456 169 507 q 199 371 193 404 q 206 325 203 351 q 212 270 210 299 q 215 217 214 242 q 214 176 215 192 q 224 123 213 144 q 242 96 235 101 q 294 92 265 79 q 347 161 322 106 q 360 335 361 261 q 349 466 358 408 q 326 571 340 524 q 300 668 311 618 q 296 685 297 676 q 292 703 294 694 q 303 719 290 715 q 326 725 314 722 q 350 731 338 728 q 361 734 356 733 q 372 736 367 735 q 405 725 390 742 q 426 692 419 708 m 199 1071 q 172 1060 183 1072 q 152 1026 161 1047 q 137 981 143 1006 q 126 933 131 956 l 50 931 l 50 954 q 58 1013 51 983 q 78 1067 64 1042 q 115 1110 93 1092 q 169 1139 138 1129 q 237 1144 204 1147 q 301 1129 269 1140 q 332 1104 322 1119 q 393 964 376 1039 l 397 943 l 261 939 l 250 976 q 241 999 247 983 q 227 1030 235 1014 q 212 1058 219 1046 q 199 1071 204 1071 z "},"":{"ha":486,"x_min":-32,"x_max":474,"o":"m 426 692 q 465 545 457 617 q 472 410 474 474 q 463 290 469 346 q 454 193 456 235 l 454 194 q 423 122 446 157 q 367 61 400 86 q 293 25 333 36 q 211 22 253 14 q 111 94 143 35 q 62 204 81 147 q 32 321 43 261 q 24 362 28 342 q 17 403 19 382 q 9 465 13 435 q 3 526 6 494 q -3 582 1 546 q -11 658 -7 618 q -19 735 -15 699 q -24 790 -22 771 q -32 836 -26 811 q -28 840 -31 838 q -22 842 -25 842 q 38 833 8 839 q 71 821 54 829 q 88 807 81 815 q 97 789 93 799 q 108 771 101 779 q 113 758 111 765 q 115 744 114 751 q 131 665 119 715 q 156 561 143 615 q 181 456 169 507 q 199 371 193 404 q 206 325 203 351 q 212 270 210 299 q 215 217 214 242 q 214 176 215 192 q 224 123 213 144 q 242 96 235 101 q 294 92 265 79 q 347 161 322 106 q 360 335 361 261 q 349 466 358 408 q 326 571 340 524 q 300 668 311 618 q 296 685 297 676 q 292 703 294 694 q 303 719 290 715 q 326 725 314 722 q 350 731 338 728 q 361 734 356 733 q 372 736 367 735 q 405 725 390 742 q 426 692 419 708 m 60 990 q 83 1037 60 1014 q 129 1059 105 1061 q 177 1039 155 1055 q 203 984 198 1022 q 178 944 203 969 q 136 919 153 919 q 84 938 105 917 q 60 990 62 960 m 257 994 q 279 1042 257 1018 q 326 1063 302 1065 q 373 1043 352 1059 q 399 988 395 1027 q 374 948 399 973 q 332 923 349 923 q 280 943 302 921 q 257 994 259 964 z "}}}
